<svg id="Calque_1" data-name="Calque 1" xmlns="http://www.w3.org/2000/svg" viewBox="0 0 85 85"><defs><style>.cls-1{fill:#999d3b;}.cls-2{fill:#fff;}</style></defs><circle class="cls-1" cx="42.5" cy="42.5" r="42.5" transform="translate(-13.03 65.5) rotate(-67.5)"/><polygon class="cls-2" points="23.21 31 23.15 29.7 21.27 29.71 21.65 31 23.21 31"/><path class="cls-2" d="M75.53,22.57l-.1-.3c0-.29,0-.58,0-.87l0-.21c0-.15-.1-.21-.24-.23h-.28c-.09,0-.13,0-.13-.12s-.06-.42-.09-.63a.59.59,0,0,0-.58-.53l-.69,0c-.4,0-.8,0-1.21,0s-.4,0-.49.32-.17.54-.25.81a.28.28,0,0,1-.32.22L66.2,21l-5.91,0-6.6,0-3.63,0a1.61,1.61,0,0,0-.38.08c-.06,0-.12.07-.18.07-.49,0-1-.08-1.47-.08-1.31,0-2.62,0-3.93,0H40.85c-.28,0-.55,0-.83.06l-.18,0-.89,0c-1.54,0-3.08,0-4.62,0-.25,0-.49,0-.74,0h-.78l-6.3,0H23.13l-.42,0a2.15,2.15,0,0,0-.24-.18s-.09,0-.13,0-.27-.07-.41-.08L20.73,21c-.24,0-.27-.07-.31-.3s-.09-.34-.13-.51-.12,0-.11.06l0,.2c0,.16.08.32.11.48l-.14-.07,0-.09c0-.22-.07-.43-.11-.64-.28,0-.55-.09-.83-.11l-2.05-.2-1.51-.11a1.48,1.48,0,0,0-.26,0c.14.23,0,.42,0,.61a11.52,11.52,0,0,0-.09,1.17c0,.08,0,.18.11.18h.06v.07l0,0h0a.21.21,0,0,0-.28.18c-.07.28-.14.56-.22.84s-.14.34-.21.51l0,.24a.24.24,0,0,0-.06.08c-.15.49-.29,1-.42,1.48,0,.13,0,.28,0,.4a4.23,4.23,0,0,0-.25,1,.34.34,0,0,1,0,.1c-.13.45-.54,1.77-.67,2.22,0,0-.14,2.14-.19,2.39,0,.09.06.18.1.28l.1.15a.81.81,0,0,0,.77.42,5.16,5.16,0,0,1,2.17.31,5.74,5.74,0,0,1,3.24,3.12l.15.52s.74,2.83-.94,4.33l-3.9,8.05L11.57,61.58c0,.15-.06.3.14.35l.11,0a.58.58,0,0,0,0,.18c0,.26,0,.53,0,.79s0,.29,0,.43,0,.12,0,.15,0,.17.09.2c-.12,0-.16.09-.13.21a2.42,2.42,0,0,1,0,.38c0,.25,0,.51,0,.76a1.59,1.59,0,0,0,.06.3.72.72,0,0,0,.24.16,9.65,9.65,0,0,0,1,.19.32.32,0,0,0,.26-.09,3.07,3.07,0,0,0,.41-.47c.24-.31.45-.63.68-.94l0,0L12,63.85l0-.26,2.64.36,0,.1a.33.33,0,0,1,.25.06c0,.12,0,.22,0,.31v.07c0,.09-.06.23-.14.27s-.1.19,0,.3l-.08.15.09,0c-.08.17-.17.35-.24.54a.54.54,0,0,0,.46.72c.63.06,1.26.12,1.88.16s1.48.06,2.21.1c1.06.06,2.11.13,3.17.21.87.06,1.74.16,2.61.22,1.14.08,2.28.16,3.42.19.74,0,1.49,0,2.24-.08a1.87,1.87,0,0,0,.44-.14c.16-.13.12-.28.08-.45-.13-.45-.27-.9-.37-1.36a.67.67,0,0,0-.55-.61.81.81,0,0,0-.09-.48c-.18-.41-.34-.83-.5-1.24l5.73-17.64A3.93,3.93,0,0,1,39,44.74a13.77,13.77,0,0,0,4.4.78c1.8,0,3.61,0,5.41,0a4.12,4.12,0,0,0,2.8-1.22c.15-.17.29-.35.43-.52l.2-.27a.42.42,0,0,0,0-.12s.07,0,.08,0c.11-.25.22-.51.32-.77a2.83,2.83,0,0,0,.06-.42v0a1.18,1.18,0,0,0,.27-.7s0-.06-.07-.08l0,0c.09.07.11,0,.13-.06l.21-.69.51-1.61c.05-.17.12-.35.18-.52.11-.34.22-.68.34-1,.18-.53.37-1.05.56-1.58l.32-.53.49-.42.53-.28.51,0,2.56.05h2.24c.14,0,.24,0,.24-.2s0-.39.06-.59,0-.18.17-.18h1.35a5.06,5.06,0,0,1,0,.55.3.3,0,0,0,.26.32c.07,0,.13.07.19.07H65c.12,0,.19,0,.2-.17s0-.4,0-.59,0-.21.17-.21l1.27,0c0,.15,0,.3,0,.45a.4.4,0,0,0,.35.45.55.55,0,0,0,.17,0H68.4c.12,0,.17-.06.19-.16l.06-.63c0-.09,0-.18.15-.18l1.22,0v.41c0,.33.08.42.39.5a.47.47,0,0,0,.16,0l1.42.06a1.24,1.24,0,0,0,.31-.1s.12-.09.14-.14.11-.4.18-.59.21-.62.33-.92.25-.56.37-.84H75a1,1,0,0,0,.15-.07,1.54,1.54,0,0,0,.15-.32c0-.31,0-.62,0-.93a1.62,1.62,0,0,0,0-.2c0-.38,0-.75,0-1.12s0-.47,0-.7,0-.58,0-.87.22-1.48.22-1.58A28.71,28.71,0,0,0,75.53,22.57ZM12,64.92l-.1,0,0-.09,0-.05.05,0h0ZM49,22.13s.08.82.08,2.2a1.2,1.2,0,0,1-1.17,1.36H41.56l-1-.43-.08-3.21Zm-9.9,1.81.28.16a1.56,1.56,0,0,1-1.22-1.23s.11.07.12.12A1.61,1.61,0,0,0,39.1,23.94Zm-.19.84s0,.07-.06.12c-.1-.4-.4-.24-.66-.25H36.7c-1,0-6.29.1-7.47.12-.28,0-.17-.13-.21-.14,2.05-.14,8.15-.15,10.2-.19v.07l-.19,0C38.89,24.57,38.86,24.65,38.91,24.78Zm-5.77-3c0-.29.11-.37.4-.39s.45,0,.67,0a.48.48,0,0,1,.56.61h0L33.84,22c-.22.13-.47.05-.72.06h0A1.49,1.49,0,0,0,33.14,21.8Zm-13.87.44c.33,0,.66-.06,1-.07.49,0,1,0,1.47,0,.22,0,.45,0,.67-.05.05,0,.1-.07.16-.12l.27.54h0c-.1-.13-.18-.25-.4-.22a4.76,4.76,0,0,1-.65-.06c-.76,0-1.51,0-2.26,0a1.81,1.81,0,0,0-.37.09l0-.05C19.16,22.3,19.21,22.24,19.27,22.24Zm-3.75.44h.59c.14,0,.28,0,.43,0,.38,0,.76,0,1.14,0s1,0,1.45,0c.21,0,.42,0,.63,0h2.13l.66-.05c.12,0,.23,0,.35,0a.9.9,0,0,0,.23-.08.35.35,0,0,0,.14.06l.76,0,.59,0c.14,0,.29,0,.43,0l.94,0c.23,0,.46,0,.69,0l.71,0h.93L30,22.5l1.06,0h.9c.3,0,.59,0,.89,0s.43,0,.65-.06l.28,0h.9c.2,0,.4,0,.59,0a2.61,2.61,0,0,0,.4,0L38,22.28c.13,0,.26-.07.35.07s-.06.28-.1.42a.21.21,0,0,1-.12.08c.09-.21,0-.37-.24-.37a7.85,7.85,0,0,0-1,0,9,9,0,0,0-3.27.78,2.61,2.61,0,0,0-.94.65c-.22-.19-.49-.13-.75-.13-.6,0-1.2,0-1.8,0s-1.24,0-1.85.05A1,1,0,0,0,28,24c0-.2-.19-.27-.35-.35s-.45-.21-.68-.3a.21.21,0,0,0-.18.05c-.21.17-.41.35-.61.53.07-.21-.1-.27-.25-.34a4.16,4.16,0,0,1-.48-.22.2.2,0,0,0-.25,0c-.18.17-.37.32-.57.49a.36.36,0,0,0-.35-.33c-.22,0-.39-.36-.66-.13l-.55.46c0-.24-.24-.27-.42-.35-.51-.22-.51-.22-.93.15l-.2.19-.24-.23-.14-.08c-.18-.07-.38-.22-.56-.19s-.31.23-.46.35l-.15.13a3.43,3.43,0,0,0-.33-.24c-.59-.32-.59-.31-1.1.12l-.13.11a2.85,2.85,0,0,0-.37-.24c-.64-.28-.67-.27-1.18.25l-.13.14a2.42,2.42,0,0,0-1.07,0c-.09,0-.16.14-.24.21C15.45,23.68,15.48,23.18,15.52,22.68Zm1,9a.66.66,0,0,1-.65-.66.65.65,0,0,1,1.3,0A.66.66,0,0,1,16.54,31.71Zm-2.19-2v-.42H15s-.05-.15-.07-.24,0-.15,0-.23c.12-.72.24-1.44.35-2.16s.41-2.07.41-2.07a.37.37,0,0,1,.28-.27h0l.41,0,.09,0a.34.34,0,0,1,0,.14,3.22,3.22,0,0,0-.05.93,1.39,1.39,0,0,1-.09.45.52.52,0,0,1-.1.18A1.82,1.82,0,0,0,16,27.34a1,1,0,0,1-.2.78,1.64,1.64,0,0,0-.28.92c0,.19,0,.25-.07.29l2,0a.28.28,0,0,0,0-.11l.09-.55c.06-.35.12-.69.17-1,0-.15,0-.2,0-.36a.65.65,0,0,1,.11-.22c.07.07.14-.45.08-.52a2.05,2.05,0,0,0,.11-.6c0-.14.09-.36.12-.34a3.17,3.17,0,0,1,0-.62,1.15,1.15,0,0,0,.08-.28s.07-.06.09,0l.33.26a.41.41,0,0,1,.08.13c0,.11-.1.38-.1.4a5.74,5.74,0,0,1-.08,1,1.87,1.87,0,0,0-.26,1,.76.76,0,0,0,0,.15.78.78,0,0,1-.11.58,1.57,1.57,0,0,0-.24.87.37.37,0,0,1,0,.2h1.18l0-.2c.06-.22.12-.43.17-.66a1.81,1.81,0,0,0,.07-.58v-.07a1.7,1.7,0,0,0,0-.45.17.17,0,0,1,0-.1,2.13,2.13,0,0,0,.15-.46,1.36,1.36,0,0,0,.1-.21c0-.07,0-.17,0-.22s0-.13-.05-.18a1.62,1.62,0,0,1,0-.22,2.41,2.41,0,0,1,.2-1c0-.11.06-.22.1-.33a3.09,3.09,0,0,1,.31.23s.07.11.11.16-.12,1.32-.11,1.34l-.12.27c-.09.2-.18.62-.19.62,0,.24,0,.48,0,.72h0c-.05.11-.08.24-.13.34a1.59,1.59,0,0,0-.18.72.76.76,0,0,1,0,.27h1l0-.19c.06-.22.12-.43.17-.66a1.81,1.81,0,0,0,.07-.58v-.07a2.26,2.26,0,0,0,0-.45.16.16,0,0,1,0-.1,2.31,2.31,0,0,0,.16-.46,1.36,1.36,0,0,0,.1-.21,1,1,0,0,0,0-.22c0-.08,0-.13,0-.18a1.62,1.62,0,0,1,0-.22,2.41,2.41,0,0,1,.2-1c0-.11.07-.22.11-.33a2.35,2.35,0,0,1,.32.23c.05,0,.08.11.12.16s-.12,1.32-.12,1.34l-.12.27a5.47,5.47,0,0,0-.2.62c0,.24,0,.48,0,.72h0a2,2,0,0,1-.14.34,1.74,1.74,0,0,0-.18.72.56.56,0,0,1,0,.26h1.18l0-.18c.06-.22.12-.43.17-.66a1.81,1.81,0,0,0,.07-.58v-.07a2.26,2.26,0,0,0,0-.45.12.12,0,0,1,0-.1,2.31,2.31,0,0,0,.16-.46,1.36,1.36,0,0,0,.1-.21c0-.07,0-.17,0-.22s0-.13-.05-.18a1.62,1.62,0,0,1,0-.22,2.41,2.41,0,0,1,.2-1l.11-.33a3.19,3.19,0,0,1,.32.23,1.11,1.11,0,0,1,.12.16c0,.16-.12,1.32-.12,1.34s-.08.19-.12.27a5.47,5.47,0,0,0-.2.62c0,.24,0,.48,0,.72h0a3.45,3.45,0,0,1-.14.34,1.59,1.59,0,0,0-.18.72,1.2,1.2,0,0,1,0,.25h.95l0-.17c.06-.22.12-.43.18-.66a1.82,1.82,0,0,0,.06-.58v-.07a1.61,1.61,0,0,0,0-.44.31.31,0,0,1,0-.11,2.51,2.51,0,0,0,.17-.46,1.36,1.36,0,0,0,.1-.21,1,1,0,0,0,0-.22c0-.08,0-.13-.05-.18a1.62,1.62,0,0,1,0-.22,2.26,2.26,0,0,1,.21-1c0-.11.07-.22.1-.33a3.39,3.39,0,0,1,.34.23s.07.11.11.16S25,26.33,25,26.35s-.08.19-.13.27a3.93,3.93,0,0,0-.2.62c0,.24,0,.48,0,.72h0a3.17,3.17,0,0,1-.16.37,1.56,1.56,0,0,0-.17.69,1.19,1.19,0,0,1,0,.24h1l0-.16c.06-.22.13-.43.18-.66a1.81,1.81,0,0,0,.07-.58v-.07a1.61,1.61,0,0,0,0-.44.13.13,0,0,1,0-.11,2.51,2.51,0,0,0,.17-.46,1.39,1.39,0,0,0,.11-.21c0-.07,0-.17,0-.22s0-.13,0-.18,0-.15,0-.22a2.26,2.26,0,0,1,.22-1l.11-.33a3.39,3.39,0,0,1,.34.23,1.11,1.11,0,0,1,.12.16c0,.16-.13,1.32-.12,1.34a2.24,2.24,0,0,1-.13.27,6.36,6.36,0,0,0-.21.62c0,.24,0,.48,0,.72h0a2.06,2.06,0,0,1-.16.37,1.44,1.44,0,0,0-.18.69,1.3,1.3,0,0,1,0,.23l7.5-.05,0,.42-10,.07.07,1.56h-2L21,29.71Zm21.19,2H32.45s-.19-.09,0-.14h.27l3.22,0h0C35.87,31.81,35.7,31.77,35.54,31.77Zm.34.11a1.59,1.59,0,0,1-.38.07q-1.39,0-2.79,0a2.09,2.09,0,0,1-.34,0v-.05h3.49Zm-.32-.39-2.8,0a2.91,2.91,0,0,0-.31,0h0c0-.06,0-.13,0-.22H36C35.92,31.5,35.74,31.49,35.56,31.49Zm0-.27h-3l.09-.08h3Zm-2-.33h-.78s0-.12,0-.13l.05,0h.73S33.53,30.87,33.53,30.89ZM30.14,65l.1.24a4.19,4.19,0,0,1-1.3.12c-1.31,0-3.49-.14-6.44-.35a1.14,1.14,0,0,1-.71-.47,1.78,1.78,0,0,0-1.15-.67,2.37,2.37,0,0,0-1.56.55,1.38,1.38,0,0,1-.78.35c-2-.16-3-.3-3-.3l0-.26s1,.14,3,.3c.13,0,.37-.14.62-.3a2.6,2.6,0,0,1,1.72-.6,2,2,0,0,1,1.31.76c.2.2.35.37.55.38C25.15,65,29.56,65.3,30.14,65Zm1.26-20.5A13.22,13.22,0,0,1,31.1,47c-1.2,4.76-3,8.24-5.45,10.32-2.15,1.86-1.4,3.32-.85,4.38.1.18.19.36.26.52A.82.82,0,0,1,25,63c-.32.51-1.22.56-1.26.57l-9-.91,0-.09c0-.12-1.1-3.53,4.78-6.42,5.52-2.72,7-4.92,6.78-10.56-.15-4.44-4.49-6.42-6.3-7.39-.43-.23-.1-.75-.18-.84v-.54c.06.07,0,.24.33.42,1.85,1,6.76,3.61,6.91,8.19.19,5.77-1.31,8.47-6.94,11.24-3,1.46-3.87,2.57-4.32,3.57a3.44,3.44,0,0,0-.36,1.8s9,1,9.22.65c.09-.14,0-.15-.1-.37s-.18-.32-.27-.5c-.56-1.08-1.32-2.92,1-4.91s4-5.31,5.19-10a13.62,13.62,0,0,0,.42-2.31,10.21,10.21,0,0,1,.24-2c.16-.64.36-1.22.52-1.74.3-.91.63-1.4.47-1.69a.29.29,0,0,0-.18-.14,47.25,47.25,0,0,0-5.85-.55s-.24,0-.48.27-.25.63-.12,1.29l-.49.1a2,2,0,0,1,.24-1.68A1.11,1.11,0,0,1,26,38a47.11,47.11,0,0,1,6.17.54.51.51,0,0,1,.33.26c.21.39,0,1.12-.36,2.13-.16.51-.35,1.09-.51,1.73A9.5,9.5,0,0,0,31.4,44.54Zm4.87-1.16a1.6,1.6,0,0,1-2.3.94c-.67-.36-1.39-.58-1.35-1.39a4.74,4.74,0,0,0-.9-.5s.09-.72.41-.59l.72.14a1.71,1.71,0,0,1,1.08-.54,12.14,12.14,0,0,1,1.8.27A1.34,1.34,0,0,1,36.27,43.38Zm-2.2-12.53s0-.12,0-.13h2.24v.12Zm2.06-.39-3,0a.82.82,0,0,1-.22,0s-.07,0-.11-.06l0-.06h3.54v-.05h-2l-1.42,0a.47.47,0,0,1-.15-.06c.05,0,.1-.07.15-.07l3.28,0h.18C36.43,30.47,36.39,30.46,36.13,30.46Zm-1.73-.54h2.05c0,.14-.07.1-.14.1H32.88l.12-.09h0c-.06-.09,0-.11.08-.11h2l1.3,0h.11v0a.58.58,0,0,1-.18,0h-3.1a1.16,1.16,0,0,0-.18,0h1.4Zm2-.41L36,29.44c-.1,0-.21-.08-.26.08s-.08,0-.12,0a.13.13,0,0,1-.07-.1c0-.17-.06-.89-.1-1.09h5.7c0,.11,0,.28-.21.28-1.31,0-2.62.18-3.93.17-.36,0-.36.25-.49.59C36.47,29.44,36.45,29.47,36.44,29.51ZM51.65,42.26c-.07.17-.12.32-.18.47s-.6.83-.64.71a3,3,0,0,1-1.42.83,8.1,8.1,0,0,1-1.4.12c-1.5,0-3,0-4.49,0a10.84,10.84,0,0,1-3-.36,20.9,20.9,0,0,1-2.16-.7,2.63,2.63,0,0,1-1.17-.89,1.33,1.33,0,0,1-.41-.9,1.4,1.4,0,0,1-.21-.71,2.56,2.56,0,0,1,.05-1.45.37.37,0,0,1,.31-.29A.72.72,0,0,0,37.43,38a.32.32,0,0,1,0-.43c.23-.27.45-.54.68-.8.08-.09.21-.14.19-.31s0-.08.07-.13l.68.66-.39.34s-.11.13-.1.17a.25.25,0,0,0,.16.12c.38.11.77.22,1.15.31s.32.11.36.38.12.78.18,1.19l.13,0a4.94,4.94,0,0,0,1.58,2.33,3.56,3.56,0,0,0,.63.47,1.19,1.19,0,0,1,.5.65c0,.07,0,.14.08.2a.28.28,0,0,0,.41.09c.07,0,.12-.1.19-.15a.54.54,0,0,1,.48-.1.83.83,0,0,0,.85-.16.43.43,0,0,0,.15-.44c-.06-.17-.24-.18-.39-.19a.82.82,0,0,1-.57-.13.48.48,0,0,0-.22,0,.34.34,0,0,1-.3-.17c-.07-.13-.26-.19-.39-.28a3.83,3.83,0,0,1-.42-.28c-.09-.07-.13-.19-.21-.27a2,2,0,0,1-.42-.63c0-.06-.15-.21-.11-.16s-.18-.28.18-1.36l-.41-.45A3.21,3.21,0,0,1,44,36.28a4.74,4.74,0,0,1,1-.39.45.45,0,0,0,.36-.35c0-.14.12-.18.25-.19a32.46,32.46,0,0,1,3.82,0,3.13,3.13,0,0,1,3,2.87C52.43,38.34,51.67,42.26,51.65,42.26ZM41.09,39.14a.26.26,0,0,1,.26-.25.26.26,0,1,1,0,.51A.26.26,0,0,1,41.09,39.14Zm.66-2.65a.32.32,0,0,1,.32-.33.33.33,0,1,1,0,.66A.32.32,0,0,1,41.75,36.49Zm1.48-4.73a.55.55,0,0,1,.55-.55.55.55,0,0,1,.55.55.54.54,0,0,1-.55.55A.55.55,0,0,1,43.23,31.76Zm5.83,1.14a.54.54,0,1,1,.54.54A.54.54,0,0,1,49.06,32.9Zm7.14-3.39-19.05.12v-.42h.32l18.76-.12Zm.07-2.33c-1.88,0-3.76,0-5.64,0H46.21l-3,0-2.91,0-1.76,0c-.79,0-1.58,0-2.37-.06a7.35,7.35,0,0,1-2.13-.39A7.16,7.16,0,0,1,33,26.3a1.18,1.18,0,0,0-.63-.16l-2.26.05c-.34,0-.75.11-1.06-.1-.64-.4-.51-1.27-.25-1.32,0,.07-.3,1.31.85,1.34s2.05-.05,3.08-.06,2.12,0,3.19,0,1.93,0,2.89,0c.51,0,1-.07,1.52-.1a.43.43,0,0,1,.3.06,2.91,2.91,0,0,0,1.93.42l4.69,0c.28,0,.56,0,.84,0a1.67,1.67,0,0,0,1.44-1l.11-.23c0,.16.08.23.25.22l20.34-.1h1.47c.19,0,.38,0,.56,0l.76-.09h.06l0,0a2.39,2.39,0,0,1-.28.35,5.18,5.18,0,0,1-1.68,1.13A2.72,2.72,0,0,1,70,27c-.66,0-1.32,0-2,0H65.34c-.72,0-1.44,0-2.16,0l-2.66,0c-.51,0-1,0-1.53,0a2.34,2.34,0,0,0-.5.14l-.17,0C57.64,27.21,57,27.18,56.27,27.18Zm16.16-.78A8.69,8.69,0,0,1,72,27.57c-.17.31-.1.64-.22,1l-.77,0c0-.05,0-.09,0-.12.15-.43.29-.87.47-1.29a2,2,0,0,1,.89-.95l.09,0,0,.09-.06.07ZM62.28,27.76c.11-.09.18-.23.29-.31a1.07,1.07,0,0,1,1.15-.07l.07.08a1.79,1.79,0,0,0-.37.87c0,.22-.23.29-.42.31s-.59,0-.89,0c-.11,0-.16,0-.15-.16A1,1,0,0,1,62.28,27.76Zm-.58.6a.25.25,0,0,1-.11.17,1,1,0,0,1-.37.13,7.48,7.48,0,0,1-.82,0c-.14,0-.18-.07-.17-.2a1.21,1.21,0,0,1,.31-.72,1.13,1.13,0,0,1,.82-.5,1.23,1.23,0,0,1,.63.12l.1.07A1.53,1.53,0,0,0,61.7,28.36Zm2.38-.74a.93.93,0,0,1,.67-.35,3.47,3.47,0,0,1,.63.07l.07.12a2.08,2.08,0,0,0-.33.91.31.31,0,0,1-.23.2c-.36.05-.73.07-1.1.09-.1,0-.14-.07-.13-.16A1.61,1.61,0,0,1,64.08,27.62Zm1.44.49a1,1,0,0,1,.35-.56,1.09,1.09,0,0,1,1.23-.24l.21.1a1.38,1.38,0,0,0-.42.85.33.33,0,0,1-.24.31,3.25,3.25,0,0,1-.43.08h-.67a.12.12,0,0,1-.13-.14C65.45,28.38,65.5,28.25,65.52,28.11Zm3.4-.79.07,0c.16.08,0,.19,0,.26a5.54,5.54,0,0,1-.27.78.86.86,0,0,1-.1.16c-.27,0-.53.08-.8.1s-.3,0-.45,0-.16,0-.15-.16A1.28,1.28,0,0,1,68.92,27.32Zm-.5,6.62h-.84s0,0,0,0v0a.62.62,0,0,1,.25-.11c.22,0,.44,0,.69,0C68.48,33.86,68.45,33.94,68.42,33.94Zm4-.06-.87.09h-.36l-.57,0s0,0-.08-.06.06-.11.1-.11h.49a2,2,0,0,0,.7,0c.18-.09.32,0,.47-.05s.07,0,.09,0l.06-.08c0,.06,0,.11,0,.16S72.38,33.87,72.38,33.88Zm1.26-4.46-16.9.12v-.42L71.53,29h0l1-.05a5.45,5.45,0,0,1,.7,0l.1,0h.31v.13h0Z"/><path class="cls-2" d="M44.27,31.94a.87.87,0,0,1-.77.19C43.73,32.33,44.23,32.2,44.27,31.94Z"/><path class="cls-2" d="M16,31.14a.57.57,0,0,0,.93.25C16.45,31.48,16.45,31.48,16,31.14Z"/><path class="cls-2" d="M37.21,29.34s0,.08.09.14l.29-.17a1.06,1.06,0,0,0-.12-.1h-.18A.12.12,0,0,0,37.21,29.34Z"/><path class="cls-2" d="M73.35,29H71.53l-.08,0a2.5,2.5,0,0,0,.45,0,14.66,14.66,0,0,1,1.75,0h0A1.94,1.94,0,0,0,73.35,29Z"/><path class="cls-2" d="M57.8,29.25l-.09.09h.52C58.1,29.14,57.93,29.31,57.8,29.25Z"/><polygon class="cls-2" points="33 29.93 33 29.93 33 29.93 33 29.93"/><path class="cls-2" d="M14.49,64.19l.14,0,0-.16C14.6,64.06,14.55,64.11,14.49,64.19Z"/><path class="cls-2" d="M22.34,29.34s-.08.06-.12.15l.32,0,0,0-.2,0Z"/><path class="cls-2" d="M19.5,29.38a.14.14,0,0,0,.1-.08h-.48l0,.15A2.79,2.79,0,0,0,19.5,29.38Z"/><path class="cls-2" d="M21.05,29.38a.17.17,0,0,0,.11-.09h-.51l0,.16A3.07,3.07,0,0,0,21.05,29.38Z"/><path class="cls-2" d="M22.52,29.42a.78.78,0,0,0,.21,0,.19.19,0,0,0,.13-.1h-.52v.06S22.44,29.35,22.52,29.42Z"/><path class="cls-2" d="M24.21,29.38a.17.17,0,0,0,.13-.11h-.53l0,.18A3.07,3.07,0,0,0,24.21,29.38Z"/><path class="cls-2" d="M25.78,29.38a.19.19,0,0,0,.14-.12h-.55l0,.19A3.21,3.21,0,0,0,25.78,29.38Z"/><path class="cls-2" d="M17.34,29.35s-.09.12,0,.12a2.73,2.73,0,0,0,.49-.06.22.22,0,0,0,.12-.1h-.49C17.42,29.36,17.38,29.39,17.34,29.35Z"/><path class="cls-2" d="M15.31,29.35l.1,0H15A.61.61,0,0,0,15.31,29.35Z"/><polygon class="cls-2" points="23.13 29.34 23.15 29.7 23.41 29.7 23.39 29.33 23.13 29.34"/><polygon class="cls-2" points="21.22 29.57 20.98 29.64 21 29.71 21.27 29.71 21.22 29.57"/></svg>