<svg id="Calque_1" data-name="Calque 1" xmlns="http://www.w3.org/2000/svg" viewBox="0 0 85 85"><defs><style>.cls-1{fill:#636a28;}.cls-2{fill:#fff;}</style></defs><circle class="cls-1" cx="42.5" cy="42.5" r="42.5" transform="translate(-13.03 65.5) rotate(-67.5)"/><path class="cls-2" d="M75.09,23.53a3.15,3.15,0,0,0-.36-.92.9.9,0,0,0-.25-.35.65.65,0,0,1-.26-.35,2.92,2.92,0,0,0-.43-.72,2.64,2.64,0,0,1-.35-.69,11.22,11.22,0,0,1-.33-1.17.29.29,0,0,0,0-.09.14.14,0,0,0-.12-.09.58.58,0,0,0-.45.05c-.11.08-.25.08-.35.17a.26.26,0,0,1-.21,0,5.12,5.12,0,0,0-.78-.06c-.4,0-.8,0-1.2,0a.52.52,0,0,1-.41-.18.44.44,0,0,0-.4-.13c-.34,0-.45.14-.4.48s0,.64,0,1,0,.18.21.18l.47,0c.06,0,.09.05.07.11s-.07.16-.19.17h-.32l-5.08,0-3.64,0-7.78-.05-6.49,0c-.26,0-.52,0-.78,0-.62,0-1.23,0-1.85,0H42.38c-1.38,0-2.76-.05-4.14-.06l-4,0a9,9,0,0,1-1.47,0,1.79,1.79,0,0,0-.4,0,3.77,3.77,0,0,1-.47,0l-1.67,0-3.29,0c-.4,0-.33,0-.45-.33a.91.91,0,0,0-.32-.45,1.21,1.21,0,0,0-.41-.16c-1.47-.4-3-.71-4.44-1.07l-1.44-.34-.27,0c-.54,0-1.07,0-1.6,0a.33.33,0,0,0-.1,0,.27.27,0,0,0-.28.2c-.11.26-.22.52-.34.77a.79.79,0,0,0-.07.4c0,.4.08.81.11,1.21,0,0,0,.09,0,.13a.09.09,0,0,0,.05.07.5.5,0,0,0,.29.09c.07,0,.13,0,.13-.12s0-.31,0-.47,0-.25,0-.37,0,0,0,0a2.2,2.2,0,0,1,.44-.09.17.17,0,0,1,.15.22,3.47,3.47,0,0,0,0,.72c0,.1,0,.19-.84.19a.61.61,0,0,1-.19,0,3.85,3.85,0,0,0-.67-.09A2.75,2.75,0,0,0,16,21c-.38.05-.53.21-.56.49s0,.61,0,.91a.74.74,0,0,0,.08.3c.11.3.22.59.34.88a.41.41,0,0,1,0,.39c-.16.33-.31.66-.46,1,0,.1-.07.2-.1.3a.08.08,0,0,0,.09.12c.3,0,0,.19-.06.28a.34.34,0,0,0,0,.14,1.9,1.9,0,0,0,0,.41,6,6,0,0,1-.14,1.4A1.53,1.53,0,0,0,15,28a3.93,3.93,0,0,1,0,1,1.84,1.84,0,0,1-.81,1.29,5.39,5.39,0,0,1-.58.32,1,1,0,0,1-.7.08c-.39-.1-.79-.18-1.19-.27a2.61,2.61,0,0,0-.84-.08.45.45,0,0,0-.41.29.46.46,0,0,0,.09.52,2.6,2.6,0,0,0,.36.3,5.5,5.5,0,0,0,3.08,1h.82a2.81,2.81,0,0,1,2.14,1,4.51,4.51,0,0,1,1.1,3,5.22,5.22,0,0,1-.83,2.82l-.45.71c-.7,1.1-1.36,2.21-2,3.34a.67.67,0,0,1-.3.3.37.37,0,0,0-.2.27.25.25,0,0,1,0,.07.44.44,0,0,1,.14,0L11.25,55.37l-.59,3.77c0,.22,0,.43.06.64a3,3,0,0,0,.12.52.72.72,0,0,0,.37.48l0,0a11.72,11.72,0,0,1-.23-2.6c.05-1.6,2.67-10.92,3-11.87a28.77,28.77,0,0,1,2.42-4.44c.57-.93,1.11-1.82,1.44-2.46A13.84,13.84,0,0,0,19,35.38h.36a14.3,14.3,0,0,1-1.22,4.22c-.34.65-.88,1.54-1.46,2.48a28.53,28.53,0,0,0-2.37,4.36c-.32.94-2.94,10.24-3,11.77A11.63,11.63,0,0,0,11.66,61l-.12,0a1.66,1.66,0,0,0,.58.43,1.21,1.21,0,0,0,.18,0,15.35,15.35,0,0,1-.45-3.43c.05-1.6,2.73-10.93,3.08-11.9a38.28,38.28,0,0,1,2.31-4c.82-1.34,1.66-2.73,2.05-3.49A6.5,6.5,0,0,0,20.39,35l.18,0h.18a6.86,6.86,0,0,1-1.15,3.93c-.38.75-1.23,2.14-2.05,3.48a42,42,0,0,0-2.28,4c-.35,1-3,10.27-3.06,11.79a14.71,14.71,0,0,0,.48,3.48l-.1,0,.37,0c0-.12,0-.26-.06-.41a.91.91,0,0,1-.07-.14l.06,0a12.39,12.39,0,0,1,0-4.47c.54-1.49,2.09-7.87,2.11-7.94l.08-.34.23.27a1.49,1.49,0,0,0,.87.52h0c.45,0,.76-.42.9-.82a1.52,1.52,0,0,0-.28-1.51,1.52,1.52,0,0,0-.84-.35l-.29,0,4.12-7.25a4.82,4.82,0,0,0,1.22-4.33l0-.15.13,0a13.11,13.11,0,0,1,2.9-.83c.08,0,.31,0,.57,0,1.25-.07,2.49-.09,2.91.43a.65.65,0,0,1,.11.61c-.07.28-.43,1.61-1,3.5h0C25,44.73,21.6,57.31,21.56,57.47c0,0-.3,3.45.48,5l.13.27h-.29c-2.15,0-8.62-.45-8.68-.45h-.14l0-.14s0-.08,0-.16,0,0-.06.06c-.13.22-.26.43-.38.65a.88.88,0,0,0-.11.39,2.45,2.45,0,0,1,0,.38,7.72,7.72,0,0,1-.37,1.39,1.5,1.5,0,0,0-.09.42c0,.41,0,.82,0,1.23a1,1,0,0,0,.43.86,1.37,1.37,0,0,0,.72.28l1,.07,2.07.17,2,.14,2.81.23c.28,0,.57,0,.85,0a19.4,19.4,0,0,0,2.75-.1,5.32,5.32,0,0,0,1.63-.44,2.37,2.37,0,0,0,.5-.32,1,1,0,0,0,.38-.66c0-.18.05-.35.06-.53.05-1.38,0-2.76.07-4.14a.34.34,0,0,0-.14-.33.11.11,0,0,1,0-.16.31.31,0,0,0,0-.25c0-.05,0-.1,0-.15a6.07,6.07,0,0,1-.24-2.32,4.38,4.38,0,0,1,.16-1,.57.57,0,0,1,.22-.33.5.5,0,0,0,.24-.28c.06-.2.21-.37.2-.59a.36.36,0,0,1,0-.11.73.73,0,0,0,.07-.24,3.68,3.68,0,0,0,.15-.57c.1-.12,0-.29.12-.41s.08-.41.19-.59.15-.39.14-.6a1.26,1.26,0,0,0,.12-.42,1.44,1.44,0,0,0,.11-.42s0-.07,0-.11a.43.43,0,0,0,.06-.18.42.42,0,0,1,.08-.26.26.26,0,0,0,0-.15.57.57,0,0,1,.08-.29.42.42,0,0,0,0-.15,3.15,3.15,0,0,1,.17-.6,4.77,4.77,0,0,0,.17-.62,1.56,1.56,0,0,0,.15-.6s0,0,0-.06a.33.33,0,0,0,.07-.29c0-.11.13-.17.12-.28v0a.46.46,0,0,1,.08-.3.28.28,0,0,0,0-.18.39.39,0,0,1,.06-.21.31.31,0,0,0,.07-.2.31.31,0,0,1,.05-.21.33.33,0,0,0,.07-.23.31.31,0,0,1,.06-.21.26.26,0,0,0,.06-.21.25.25,0,0,1,0-.15c.13-.18.07-.42.21-.61s0-.17,0-.24.06-.41.19-.59c0,0,0-.06,0-.09a.24.24,0,0,1,.05-.2.27.27,0,0,0,.07-.21.32.32,0,0,1,.07-.23.25.25,0,0,0,0-.11.56.56,0,0,1,.1-.36.36.36,0,0,0,0-.15.28.28,0,0,1,.06-.2.26.26,0,0,0,.06-.21c0-.06,0-.13,0-.18a.32.32,0,0,0,0-.36.45.45,0,0,1,0-.42,2.88,2.88,0,0,1,1-1.22,1.87,1.87,0,0,1,1.57-.34,2.66,2.66,0,0,1,.9.34,13.59,13.59,0,0,0,1.3.7,11.06,11.06,0,0,0,4,1.16c.67.06,1.35.11,2,.13.41,0,.82,0,1.22,0a12.7,12.7,0,0,0,1.95,0,4,4,0,0,0,1.77-.58,3.71,3.71,0,0,0,.41-.28,5.7,5.7,0,0,0,1.17-1.13.67.67,0,0,0,.17-.36c0-.14-.08-.25-.08-.37s.06-.26,0-.39l0,0a.2.2,0,0,1,0-.15.4.4,0,0,0,0-.34.37.37,0,0,1,0-.18.66.66,0,0,0,0-.28.39.39,0,0,1,0-.24c0-.21-.08-.41,0-.62a.29.29,0,0,0,0-.15.28.28,0,0,1,0-.18c0-.24-.06-.48,0-.71a.17.17,0,0,0,0-.07.47.47,0,0,1,0-.33.29.29,0,0,0,0-.13c-.06-.16,0-.34,0-.49s0-.32.06-.48,0,0,0-.06c0-.2,0-.4.05-.6A3.27,3.27,0,0,1,49.66,34a5.51,5.51,0,0,1,1.07-.64.57.57,0,0,1,.51,0c.34.16.69.28,1,.42a1.32,1.32,0,0,0,.55.11l3,0c1.31,0,7.39.12,8,.13l6.93.12a6.66,6.66,0,0,0,1.41,0c.3-.05.62-.08.93-.12a.49.49,0,0,0,.41-.29c.08-.17.19-.33.28-.49a.89.89,0,0,0,.1-.66,1.2,1.2,0,0,1,.19-1.05.35.35,0,0,0,.09-.26c0-.47.08-.93.08-1.41V28.26c0-.27,0-.53,0-.79a.47.47,0,0,1,.19-.38.4.4,0,0,0,.14-.27c0-.06,0-.12.06-.17a.5.5,0,0,0-.21.05A4.55,4.55,0,0,0,75.09,23.53ZM16.74,48.08h0v0Zm-.7-1c.62.05.72,1.45,0,1.33S15.42,47.08,16,47.12ZM73.88,22a5.26,5.26,0,0,0-.14,4.79c-.53.58-1.06-.68-1.09-2.16a4.66,4.66,0,0,1,.62-2.75C73.55,21.48,73.88,22,73.88,22Zm-1.54,1.82a7,7,0,0,1,.53-2.3c.34-.5.76,0,.76,0s-.35-.12-.48,0c-.76.77-.89,3.43-.47,4.87a1.09,1.09,0,0,0,.84.82C72.41,27.58,72.2,25.53,72.34,23.81Zm0-2.44a2,2,0,0,1-1,.48l-4.18,0c-.27.79-1.41,3.51-1.45,3.7s-.36.18-.47.17h-.12s-.08,0-.07-.1,1.21-3,1.48-3.77h-1c-.24.63-1.41,3.47-1.45,3.63s-.31.25-.51.25h-.08a.08.08,0,0,1-.08-.09c0-.22,1.2-3.09,1.47-3.78H64c-.18.48-1.44,3.52-1.48,3.69s-.26.2-.46.2H62a.07.07,0,0,1-.08-.09c0-.22,1.21-3.13,1.47-3.8h-.87c-.3.79-1.42,3.51-1.46,3.71s-.1.18-.2.17-.4,0-.49,0c.05-.25,1.28-3.29,1.48-3.89H61c-.26.7-1.43,3.56-1.49,3.77s-.07.15-.15.15H59a.07.07,0,0,1,0-.08c0-.22,1.26-3.22,1.48-3.84h-.83c-.17.46-1.47,3.63-1.53,3.84a.11.11,0,0,1-.12.09,1.4,1.4,0,0,1-.53,0c.06-.22,1.28-3.23,1.51-3.89h-.83c-.21.67-1.39,3.63-1.46,3.87,0,0-.38.07-.42.07a.53.53,0,0,1-.25,0c0-.16,1.26-3.42,1.46-3.94l-11.94-.13s.11,0-.09-.42Zm-1.5,3.3a.75.75,0,0,1,.15,0c.06,0,.1,0,.11.1v.06a3.92,3.92,0,0,1,0,.59,1.42,1.42,0,0,1-.58,0c-.87-.05-1.73,0-2.6,0H67l-.16,0a.09.09,0,0,1-.08-.11,2.18,2.18,0,0,1,.09-.23c.14-.4.14-.4.57-.4h3.36Zm-34-2.1a1.46,1.46,0,0,1,1.26-1.4c1.21-.11,6.55-.11,6.86.23s.11.89-.53,1.54a5.6,5.6,0,0,1-3.61,1.62c-1.54,0-4-.11-4-.11Zm-5.66-1.23c.59-.11,4.23-.08,4.23-.08l.65.89s.16.62,0,.65-6.13,0-6.13,0S30.59,21.45,31.17,21.34Zm-1.31,2.1.4-.07h6c-.65.85-1.11,1-1.11,1l-6.24-.13c-.16-.22,0-.76,0-.76S29.66,23.47,29.86,23.44Zm-.94-2.13h.18c.1,0,.13,0,.1.11s-1.1,2.37-1.14,2.49S28,24,27.81,24c0,0-.16,0-.16-.06s1.09-2.46,1.17-2.61A.11.11,0,0,1,28.92,21.31Zm-1.46.05a.12.12,0,0,1,.1-.05h.19c.1,0,.13,0,.1.11s-1.11,2.37-1.15,2.49-.05.13-.25.13c0,0-.16,0-.15-.06S27.39,21.51,27.46,21.36Zm-1.41,0a.09.09,0,0,1,.09-.05h.19c.1,0,.13,0,.1.11s-1.11,2.37-1.15,2.49S25.23,24,25,24c0,0-.16,0-.15-.06S26,21.51,26.05,21.36Zm-1.27-.05H25c.1,0,.14,0,.11.11S24,23.78,23.92,23.9s-.05.13-.25.13c0,0-.16,0-.16-.06s1.1-2.46,1.17-2.61A.12.12,0,0,1,24.78,21.31ZM19,19.51l0-.09a.19.19,0,0,1,.19-.13c.54,0,1.08,0,1.63,0h0a2.17,2.17,0,0,1,1,.13c.49.14,1,.28,1.48.4a.44.44,0,0,1,.36.31L24,21c.06.17.11.33.17.53H23.7c-.24.52-1.05,2.23-1.08,2.34s-.06.13-.25.13c0,0-.16,0-.16-.06s.8-1.82,1.07-2.41h-.89c-.24.53-1,2.23-1.08,2.34s0,.13-.25.13c0,0-.16,0-.15-.06s.79-1.8,1.07-2.4H21.8a.1.1,0,0,1-.1-.12l.09-.3a1.62,1.62,0,0,0,.1-.62.66.66,0,0,0-.5-.6.51.51,0,0,0-.47.11.69.69,0,0,0-.27.66s0,.08,0,.12,0,.1-.09.1l-.19,0c-.45,0-.89,0-1.34,0h-.16a.09.09,0,0,1-.1-.09.72.72,0,0,1,0-.25A4.37,4.37,0,0,1,19,19.51Zm1.92,1.8h.19c.1,0,.13,0,.1.11S20.05,23.78,20,23.9,20,24,19.76,24c0,0-.16,0-.15-.06s1.09-2.46,1.16-2.61A.12.12,0,0,1,20.87,21.31ZM21,20.17a.41.41,0,0,1,.62.1.62.62,0,0,1,.1.42.15.15,0,0,1-.11.13,2.44,2.44,0,0,1-.56.08H21a.14.14,0,0,1-.13-.12A.61.61,0,0,1,21,20.17Zm-1.53,1.19a.12.12,0,0,1,.1-.05h.18c.1,0,.14,0,.11.11s-1.11,2.37-1.15,2.49-.05.13-.25.13c0,0-.16,0-.16-.06S19.4,21.51,19.47,21.36Zm-2.86.37c-.34.76-.5,1.15-.5,1.15S15.43,21.65,16.61,21.73Zm1.26,9.19a.63.63,0,0,1-.55-.49c0-.07,0-.13,0-.2a.56.56,0,0,1,.19-.44.3.3,0,0,1,.52.06,1.91,1.91,0,0,1,.25.69A.33.33,0,0,1,17.87,30.92ZM19,29.42a.13.13,0,0,1-.12-.13.11.11,0,0,1,.12-.11h0a2.2,2.2,0,0,1,0-1.46h0a.12.12,0,0,1-.12-.12.12.12,0,0,1,.12-.12h.1a4,4,0,0,1,.78-1.15h3.58l2.8,1.4a7.08,7.08,0,0,1-.11,1.79c-.17.34-.17,1-1,1H20a3.15,3.15,0,0,1-.94-1.11Zm6.4-3.09a.61.61,0,1,1,.59.76A.7.7,0,0,1,25.35,26.33Zm-.18,7h0Zm.54.06,0,0s0,0,0,0ZM22.16,66.15a2,2,0,0,1-1.91,1.35l-7.39-.9a12.06,12.06,0,0,1,.56-2.8l8.4.45S22.72,64.69,22.16,66.15Zm2.52,1.18h-.24V64h.24Zm.73-.23h-.24V63.74h.24Zm.67-.16h-.24V63.57h.24ZM29,40.44a.75.75,0,0,1-.8-.75c.33-1,.84-.42.84-.42l.59-.05s2-.7,2,1.32C30.91,42.44,29,40.44,29,40.44Zm2.57-6.88c-1.39,1.18-2.05,4.34-2.39,5.38a1,1,0,0,0-1.32.43,1,1,0,0,0,.33,1.1.77.77,0,0,0,.58.23s-.05.69-.4.87a4.7,4.7,0,0,0-1.1,2,.85.85,0,0,0,.21.76l-.41.09.27.38-.37.06.24.38-.35.08.24.33-.38,0L27,46l-.41.07.25.36-.34,0,.24.41-.39,0,.27.42h-.4l.3.38-.39.06.25.4-.37,0,.24.34-.38,0,.28.4-.4.06.25.37-.39.05.29.38-.37.08.28.35-.44.05.31.38-.43.08.28.35-.39,0,.31.39-.43,0,.31.4-.43.07.29.36-.41,0,.28.42-.37,0a2.07,2.07,0,0,0,.25.38l-.38,0,.26.4-.38,0,.26.39-.38.07.3.36-.37.08.19.36h-.33l.22.39-.39,0,.31.48-.42,0,.31.39h-.45l.28.48-.42-.06.39.48-.45,0s.51.25.17.48c-1.43.22-.67,4.53-.67,4.53l-.42.09a31.35,31.35,0,0,1-.09-4.79c.21-1.3,5.67-21.51,6.1-22.77s-.38-1.18-.38-1.18-2.36-.29-3.7-.29-.63-.09-3.57.75a3.11,3.11,0,0,0-1.3-2.6l4.18.09S34,31.58,34,31.57,32.93,32.39,31.55,33.56Zm.13-5.8a.49.49,0,1,1,1,0,.49.49,0,1,1-1,0Zm2.12.46s.22-1,2.24-.9c1.56-.17,2.35.78,2.35,1.06s0,1.46-2.19,1.46S33.8,28.94,33.8,28.22Zm3.91,4.1c-.17-.21-1.68,0-1.68,0,.13-.34-.21-1.13.76-1.47C37.33,30.77,37.46,31.23,37.71,32.32Zm8.58,9.92a1.87,1.87,0,0,1-.43.68,1.3,1.3,0,0,1-.89.41h-.12c-.84,0-1.68,0-2.51-.07l-1.51-.07-1.56-.09a6.89,6.89,0,0,1-2-.39,4.24,4.24,0,0,1-2.28-2,.23.23,0,0,1,0-.25,1.82,1.82,0,0,0,.17-1.25,1.51,1.51,0,0,0-.61-1,.3.3,0,0,1-.13-.29,4.22,4.22,0,0,1,1.89-3.34l.72-.45.28-.13,2.27-1.09,0,1.11.49.79-.45,1.68-.14-.16a4.93,4.93,0,0,0,.28,2.21,4.63,4.63,0,0,0,1.47,2,3.92,3.92,0,0,0,.95.55,2.39,2.39,0,0,1,.37.15.55.55,0,0,0,.4,0,2.28,2.28,0,0,1,.52-.1.08.08,0,0,0,.08,0,.12.12,0,0,0,0-.12.42.42,0,0,0-.21-.13,3.94,3.94,0,0,1-1.6-1.06,4.67,4.67,0,0,1-1.09-4.15l.21-.94c0-.1.06-.19.08-.28a.21.21,0,0,0-.18-.28.55.55,0,0,0-.18,0c-.23,0-.46,0-.69,0-.07,0-.11,0-.12-.11s0-.15.11-.15.33,0,.49-.07.45-.08.68-.11a2.69,2.69,0,0,0,.77-.26,3.2,3.2,0,0,1,.9-.26,2.22,2.22,0,0,1,1.14.13,3.76,3.76,0,0,1,1.64,1.31,5.21,5.21,0,0,1,.74,1.69c.07.26.13.52.18.79a1.46,1.46,0,0,1,0,.22c0,.61,0,1.23,0,1.84l.06,1.57A3.59,3.59,0,0,1,46.29,42.24ZM40,28.19a.65.65,0,1,1,.65.64A.65.65,0,0,1,40,28.19Zm9.28-2.8-3.89,0H35.14l-1.47,0H22.41l-6.28,0h-.3c-.05,0-.09-.05-.06-.08l.27-.46a.29.29,0,0,1,.24-.11H27.94a5.13,5.13,0,0,1,.59.12,6,6,0,0,0,.85,0l11.51.06a4,4,0,0,0,1-.11,3.83,3.83,0,0,1,.68-.08h5.83c1.2,0,2.4,0,3.6,0h2.83c.43,0,.46,0,.29.39,0,.12,0,.27-.13.34s-.27,0-.4,0Zm12.79,8.18-9.45-.19A1.09,1.09,0,0,1,51.9,33c0-.1,8.12,0,10.22.06Zm10.44.19-8.92-.12s-.11-.37-.05-.49,7.1.17,9.2.22Zm.33-1-21.18-.39s-.11-.06-.39-.73C51.22,31.49,73,32,73,32Zm.7-2.48c-.3,0-.24-1.09,0-1.09S73.85,30.29,73.55,30.29Zm.33-1.38c-.08,0-.09-.13-.14-.19a.21.21,0,0,0-.35,0,.9.9,0,0,0-.13.28,3,3,0,0,0,0,1.34,1.14,1.14,0,0,1,.1.36s0,.69,0,.73-.15.07-.19.07a.07.07,0,0,1,0,0,2.16,2.16,0,0,1-.18-.56,3.59,3.59,0,0,1-.09-.81c0-.69,0-1.38,0-2.07a1.32,1.32,0,0,0,0-.33c0-.17,0-.27-.22-.33h0c-.06,0-.16,0-.06-.17s.12,0,.13,0c.18.14.46.41.74.35-.13.31-.11.38.16.54a.46.46,0,0,1,.25.34,2.9,2.9,0,0,0,.12.42S73.89,28.89,73.88,28.91Zm.28-2.78c-.92,0-.61-3.5,0-3.5S75.09,26.13,74.16,26.13Z"/><path class="cls-2" d="M13.29,61.45c0,.1,0,.19,0,.27s.19.05.29.06,0,0,0,.07,0,0-.05,0l-.25,0v0c.92.06,6.07.4,8.24.43a13.85,13.85,0,0,1-.41-5C21.27,57.16,27,36,27.34,34.8a.28.28,0,0,0,0-.29c-.34-.41-1.87-.33-2.61-.29a3.4,3.4,0,0,1-.63,0,13.32,13.32,0,0,0-2.59.77,5.08,5.08,0,0,1-1.34,4.49l-3.8,6.7a2,2,0,0,1,.8.4,1.94,1.94,0,0,1,.37,1.9,1.39,1.39,0,0,1-1.3,1.06,1.51,1.51,0,0,1-.88-.41c-.33,1.31-1.57,6.33-2.05,7.66-.39,1.08-.13,3.47,0,4.63l0,0Z"/><polygon class="cls-2" points="74.69 26.65 74.69 26.65 74.69 26.65 74.69 26.65"/><path class="cls-2" d="M38.55,35.36h0S38.55,35.36,38.55,35.36Z"/><path class="cls-2" d="M38.56,35.36h0Z"/><polygon class="cls-2" points="25.18 33.3 25.18 33.31 25.18 33.31 25.18 33.3"/><path class="cls-2" d="M39.61,35.64c0-.15.07-.31.1-.46s0-.25.08-.36a.44.44,0,0,0-.09-.52.41.41,0,0,1-.11-.25c0-.07,0-.13,0-.19a.11.11,0,0,0-.14-.1l-.74.12a.18.18,0,0,0-.14.1.76.76,0,0,1-.08.11.3.3,0,0,1-.42,0,1.49,1.49,0,0,1-.14-.12.28.28,0,0,0-.29-.05c-.09,0-.08.12-.1.18h0c-.05-.13-.08-.15-.16-.12l2.13,2.33A4.51,4.51,0,0,1,39.61,35.64Z"/><path class="cls-2" d="M38.35,34v0l0,0a.23.23,0,0,0-.2.06A.2.2,0,0,0,38.35,34Z"/><path class="cls-2" d="M22.36,21.3h-.19a.09.09,0,0,0-.09.05l-.1.21h.41a.75.75,0,0,0,.07-.15C22.49,21.34,22.46,21.31,22.36,21.3Z"/><path class="cls-2" d="M23.66,21.3h-.18a.11.11,0,0,0-.1.05l-.1.2h.42a1.41,1.41,0,0,0,.06-.15C23.79,21.34,23.76,21.31,23.66,21.3Z"/><path class="cls-2" d="M40.63,24.42a0,0,0,0,1,0,0h0s0,0,0,0Z"/><path class="cls-2" d="M64,21.57c-.06,0-.33,0-.39,0a.12.12,0,0,0-.09.08l0,.13H64s0-.05,0-.06S64.05,21.57,64,21.57Z"/><path class="cls-2" d="M65.2,21.57a1.08,1.08,0,0,0-.18,0,.16.16,0,0,0-.1.08.5.5,0,0,1,0,.15h.65c0-.06,0-.1,0-.12S65.3,21.57,65.2,21.57Z"/><path class="cls-2" d="M66.63,21.58a.11.11,0,0,0-.1.08l-.06.15h.63a1.54,1.54,0,0,0,.06-.21A1.62,1.62,0,0,0,66.63,21.58Z"/><path class="cls-2" d="M57.52,21.57s-.07,0-.09.08l0,.07h.67l0-.12S58.35,21.47,57.52,21.57Z"/><path class="cls-2" d="M59.52,21.56c-.06,0-.56,0-.57.05s0,.07-.05.13h.67a.43.43,0,0,1,0,0C59.6,21.62,59.58,21.57,59.52,21.56Z"/><path class="cls-2" d="M62,21.57a.12.12,0,0,0-.11.11.42.42,0,0,1,0,.09h.67l.08-.19A1.57,1.57,0,0,0,62,21.57Z"/><path class="cls-2" d="M60.53,21.57a.09.09,0,0,0-.09.08l0,.1H61l.06-.15A1.24,1.24,0,0,0,60.53,21.57Z"/><path class="cls-2" d="M25.48,28a.12.12,0,0,0,0-.24H22a1.69,1.69,0,0,1-.05.24Z"/><path class="cls-2" d="M21.84,28.42h0l3.57,0a.12.12,0,0,0,0-.24h0l-3.52,0c0,.09,0,.16-.05.24Z"/><path class="cls-2" d="M21.74,28.83h3.54a.12.12,0,0,0,.12-.12.13.13,0,0,0-.12-.12H21.79c0,.1,0,.17-.06.24Z"/><path class="cls-2" d="M21.66,29.23h3.49a.12.12,0,0,0,.12-.12.13.13,0,0,0-.12-.12H21.68a1,1,0,0,1-.08.22Z"/><path class="cls-2" d="M21.44,29.43s.09,0,.16-.22a.12.12,0,0,1-.06-.1.12.12,0,0,1,.12-.12h0a1.56,1.56,0,0,0,.05-.16.12.12,0,0,1-.12-.12.13.13,0,0,1,.13-.12h.05c0-.05,0-.11.05-.17a.12.12,0,0,1-.12-.12.12.12,0,0,1,.12-.12h.05c0-.05,0-.11,0-.17h-.06a.12.12,0,0,1,0-.24H22l0-.1a.12.12,0,0,0,0-.1.11.11,0,0,0-.09-.05l-2.81,0a2.44,2.44,0,0,0-.1.24l2.76,0a12.35,12.35,0,0,1-.38,1.43c-.26,0-1.54,0-2.37,0a2.44,2.44,0,0,0,.1.24l1.84,0Z"/><path class="cls-2" d="M12.34,61.69l.25-.07a1.57,1.57,0,0,1-.29-.08Z"/><path class="cls-2" d="M11.24,60.81l.07.31.23-.06,0,0A.89.89,0,0,0,11.24,60.81Z"/><path class="cls-2" d="M10.74,57.72a.43.43,0,0,0-.09-.38.33.33,0,0,1,0-.43.34.34,0,0,0,0-.18.25.25,0,0,1,0-.12,3.65,3.65,0,0,0,.22-.8c.14-.18.07-.43.21-.61,0-.2.13-.35.12-.55,0,0,0,0,0-.06a1.12,1.12,0,0,0,.13-.44c.14-.18.06-.44.21-.61,0-.22.16-.39.13-.6s.11-.18.11-.29a.41.41,0,0,1,.08-.3.25.25,0,0,0,0-.15A.38.38,0,0,1,12,52a.25.25,0,0,0,0-.18.34.34,0,0,1,.07-.24.34.34,0,0,0,.05-.17.4.4,0,0,1,.07-.24.3.3,0,0,0,0-.21.32.32,0,0,1,.07-.23.24.24,0,0,0,0-.18.4.4,0,0,1,.07-.24.13.13,0,0,0,0-.14.29.29,0,0,1,.06-.24.31.31,0,0,0,0-.21.25.25,0,0,1,0-.09c.14-.17.08-.4.2-.58a.37.37,0,0,0,0-.15.34.34,0,0,1,.07-.24.17.17,0,0,0,.05-.14.42.42,0,0,1,.09-.32.36.36,0,0,0,0-.15.31.31,0,0,1,.06-.21.21.21,0,0,0,0-.2.31.31,0,0,1,.06-.21.28.28,0,0,0,0-.17.34.34,0,0,1,.06-.24.32.32,0,0,0,.06-.21.53.53,0,0,1,0-.18.49.49,0,0,0,.08-.29.17.17,0,0,1,0-.12.43.43,0,0,0,.08-.29c0-.13.11-.2.12-.31a.44.44,0,0,1,.06-.3.16.16,0,0,0,.05-.17.26.26,0,0,1,0-.21.27.27,0,0,0,.06-.23.16.16,0,0,1,0-.15s.07-.07.07-.11a1,1,0,0,1,.14-.48.31.31,0,0,0-.21.33.44.44,0,0,0-.1.49c-.22.05-.13.39-.13.39a.43.43,0,0,0-.11.46.26.26,0,0,0-.11.34s-.25.22-.13.46c-.19.17-.08.49-.08.49s-.27.07-.17.29c-.14.27-.19.41-.1.55a.24.24,0,0,0-.14.32.27.27,0,0,0-.09.45.26.26,0,0,0-.09.36.33.33,0,0,0-.12.45s-.24.07-.12.35c-.19.21-.18.32-.11.45a.33.33,0,0,0-.14.46c-.12.14-.18.25-.08.39a.3.3,0,0,0-.12.39.37.37,0,0,0-.13.42.49.49,0,0,0-.12.45.39.39,0,0,0-.11.43.4.4,0,0,0-.11.41.28.28,0,0,0-.09.38.4.4,0,0,0-.13.42.34.34,0,0,0-.12.44.32.32,0,0,0-.12.42.27.27,0,0,0-.12.39c-.16.13-.1.43-.1.43s-.22.08-.13.4c-.21.19-.17.3-.1.41a.28.28,0,0,0-.11.4c-.21.06-.19.35-.13.43a.27.27,0,0,0,0,.47.39.39,0,0,1,.11.4,13.83,13.83,0,0,0,.07,1.39l.05-.31A5.65,5.65,0,0,1,10.74,57.72Z"/><path class="cls-2" d="M26.73,38.42s0,0,0,0h0v0Z"/><path class="cls-2" d="M13.15,61.93l.21,0,0-.19a1.75,1.75,0,0,0-.33-.06h0c0,.13,0,.24,0,.33A.17.17,0,0,1,13.15,61.93Z"/><path class="cls-2" d="M13.29,61.45v0a2.16,2.16,0,0,0-.4-.28s0,.07,0,.1A.41.41,0,0,0,13.29,61.45Z"/><polygon class="cls-2" points="12.94 61.47 12.97 61.47 12.95 61.45 12.94 61.47"/><polygon class="cls-2" points="24.27 52.19 24.26 52.2 24.27 52.2 24.27 52.19"/><polygon class="cls-2" points="24.13 52.65 24.13 52.66 24.13 52.66 24.13 52.65"/><path class="cls-2" d="M26.67,42.64s0,0,0,0v0s0,0,0,0Z"/><polygon class="cls-2" points="26.52 33.26 26.53 33.25 26.52 33.25 26.52 33.26"/><circle class="cls-2" cx="36.83" cy="31.65" r="0.34"/></svg>