<svg id="Calque_1" data-name="Calque 1" xmlns="http://www.w3.org/2000/svg" viewBox="0 0 85 85"><defs><style>.cls-1{fill:#3d4c28;}.cls-2{fill:#fff;}</style></defs><circle class="cls-1" cx="42.5" cy="42.5" r="42.5" transform="translate(-13.03 65.5) rotate(-67.5)"/><path class="cls-2" d="M78.31,27a2.48,2.48,0,0,0-.22-1A1,1,0,0,1,78,25.4a.34.34,0,0,0-.1-.29.46.46,0,0,1-.12-.35c0-.12,0-.26,0-.34a.53.53,0,0,1-.14-.41c0-.12,0-.23,0-.35a.91.91,0,0,0-.62-.65,2,2,0,0,0-.73,0c-.8.26-1.58.56-2.36.87a2.27,2.27,0,0,0-.57.26.52.52,0,0,1-.36.12c-.37,0-.74,0-1.11,0a2,2,0,0,0-.68.11,7.81,7.81,0,0,1-3,.5c-3,0-6,0-8.94,0-.74,0-1.47,0-2.2,0H48.13c-.73,0-1.45,0-2.18,0-.34,0-.69,0-1-.05a7.32,7.32,0,0,0-1.55-.12l-.08,0a1.76,1.76,0,0,0-.75-.14l-2.15,0c-.82,0-1.64,0-2.47,0s-1.62,0-2.42-.07-1.49,0-2.23-.08A2.88,2.88,0,0,1,31.72,24a.33.33,0,0,0-.18-.08l-.72-.07a14.58,14.58,0,0,0-1.48,0,.28.28,0,0,1-.25-.13c0-.06-.08-.15-.15-.15-.24,0-.23-.16-.23-.32a1.13,1.13,0,0,0,0-.18c0-.11-.06-.15-.17-.15s-.15.06-.16.17a3.32,3.32,0,0,1,0,.53.16.16,0,0,0-.18-.05.93.93,0,0,0-.65,1c.06.36.11.73.19,1.08a.49.49,0,0,1-.1.45c-.17.24-.34.48-.5.73a.24.24,0,0,1-.31.13.42.42,0,0,0-.54.22,5.8,5.8,0,0,1-.34.52c-.09.13-.18.26-.28.38a.89.89,0,0,1-1.45,0,1.33,1.33,0,0,0-.19-.14,2,2,0,0,0-.61-.26,4,4,0,0,0-.9-.26.89.89,0,0,0-.75.07c-.2.37-.17.65.26.81l.18.05a2.45,2.45,0,0,1,.45.17,2.92,2.92,0,0,1,.59.4,12,12,0,0,0,1.05.7c.15.1.14.11,0,.22a2.48,2.48,0,0,1-.88.5,2.81,2.81,0,0,0-1.08.67.93.93,0,0,1-.32.21,9.9,9.9,0,0,1-2.49.79,5.93,5.93,0,0,0-.83.21.63.63,0,0,0-.45.48,1.47,1.47,0,0,0,0,.36c0,.28,0,.56,0,.84A13.35,13.35,0,0,1,17.7,36a3.59,3.59,0,0,1-.51,1.17c-.49.67-1,1.33-1.52,2a37.38,37.38,0,0,0-3.06,4.24c-.34.58-.69,1.16-1,1.76a23,23,0,0,0-1,2.54c-.5,1.47-.94,3-1.42,4.43s-1,3.17-1.55,4.76a7.13,7.13,0,0,0-.31,1.27c0,.23,0,.3.21.41l.2.08a4.65,4.65,0,0,0,1.11.22c1.35.1,2.71.15,4.07.18a62.83,62.83,0,0,0,6.72-.18,3,3,0,0,0,1-.19.65.65,0,0,0,.41-.53,3.35,3.35,0,0,0,0-.71c-.08-1.05-.11-2.1-.14-3.14A27.64,27.64,0,0,1,21.16,50a8,8,0,0,1,.63-2.45A4.35,4.35,0,0,1,24,45.33a6.52,6.52,0,0,1,2.13-.43,17.22,17.22,0,0,1,1.76,0,1,1,0,0,0,.6-.14c.06,0,.1,0,.13,0l.18.37a3.45,3.45,0,0,0,1.31,1.47,4.16,4.16,0,0,0,1.18.42,8,8,0,0,0,2.68.1,12.87,12.87,0,0,0,3.36-.8,4.7,4.7,0,0,0,2.55-2.25A4.14,4.14,0,0,0,40.31,42a2.84,2.84,0,0,1,.26-1.38,2.25,2.25,0,0,1,2.11-1.29,24.1,24.1,0,0,0,2.55,0c.13,0,.19-.06.2-.2s0-.46,0-.7c0-1,0-2,.06-3a2.9,2.9,0,0,1,.39-1.38A1.83,1.83,0,0,0,46.28,33c0-.14.07-.18.2-.18h3.45c2.91,0,5.82,0,8.72,0s5.51,0,8.26,0c3.42,0,6.83,0,10.25,0a.5.5,0,0,0,.51-.32,3.91,3.91,0,0,0,.41-1.71,2.26,2.26,0,0,1,.11-1s0,0,0-.07A11.27,11.27,0,0,0,78.31,27Zm-35.81.3c0-.14,0-.29,0-.43a.18.18,0,0,1,.16-.2,1.68,1.68,0,0,1,.67,0,1.49,1.49,0,0,0,.47,0,2.09,2.09,0,0,1,.35,0h1.38c.16,0,.31,0,.47,0s.18,0,.18.16a4.48,4.48,0,0,1,0,1c0,.13-.13.17-.25.18a5.77,5.77,0,0,1-.83,0,7.7,7.7,0,0,1-1,0,2.16,2.16,0,0,0-.76,0,1.72,1.72,0,0,1-.32,0,.9.9,0,0,0-.36.05c-.11.05-.16,0-.16-.11v-.47ZM20.27,50.14c-.7,2.43-.22,7.79-.22,7.85a.15.15,0,0,1,0,.13.16.16,0,0,1-.13.06l-.19,0c-3.83-.42-6.51-.44-7.34-.07a.18.18,0,0,1-.21-.06.18.18,0,0,1,0-.22l.57-.69C15,54.3,16.21,52.88,17,52.6s2.58-1.39,3-2.56v0a.17.17,0,0,1,.22-.12.17.17,0,0,1,.12.21S20.28,50.12,20.27,50.14Zm-.54-1.45c-.52,1.66-2.43,3.06-4,4.09-1.31.84-3.34,3.36-4.67,5.35a.16.16,0,0,1-.14.08h0a.16.16,0,0,1-.14-.12,14.38,14.38,0,0,1-.38-7c.47-3.39,4.11-8.54,4.26-8.76a.18.18,0,0,1,.22,0,.17.17,0,0,1,.09.2c-.33,1.37-.12,1.84.11,2,.52.34,1.74-.42,2.16-.74a.18.18,0,0,1,.21,0,.18.18,0,0,1,.06.2A3.55,3.55,0,0,0,17.31,46a.52.52,0,0,0,.29.26c1.84.63,2.72-1.35,2.76-1.44a.18.18,0,0,1,.21-.1.19.19,0,0,1,.12.21S20.26,47,19.73,48.69Zm0-6.84a2.06,2.06,0,1,1,2.14-2.06A2.1,2.1,0,0,1,19.77,41.85Zm19.29,1.81a3.53,3.53,0,0,1-1.8,1.65,10.26,10.26,0,0,1-3.61.9l-1.07,0a4.26,4.26,0,0,1-1.91-.34,2.46,2.46,0,0,1-1.23-1.33,3.9,3.9,0,0,1-.34-1.81A3.66,3.66,0,0,1,30,40.56a5.12,5.12,0,0,1,.59-.55.15.15,0,0,1,.2,0,3.59,3.59,0,0,0,1.58.6c.21,0,.21,0,.19.26a4.29,4.29,0,0,0,1.27,3.68,3.66,3.66,0,0,0,1.79.84l.51.08a.36.36,0,0,0,.42-.4c0-.12-.08-.17-.18-.19a3.62,3.62,0,0,1-1.14-.54,2.79,2.79,0,0,1-1.25-1.86,1.72,1.72,0,0,1,.36-1.43,7.09,7.09,0,0,0,.59-.74,3.38,3.38,0,0,0,.46-1.09c0-.1.06-.13.15-.13a7.42,7.42,0,0,1,1.82.21,2.84,2.84,0,0,1,2,1.88A3.21,3.21,0,0,1,39.06,43.66Zm5.65-5.9c0,.32,0,.32-.34.32H42.88a3.27,3.27,0,0,0-1.85.48,3.68,3.68,0,0,0-.91.85.47.47,0,0,1-.2.17.36.36,0,0,1-.51-.12,3.86,3.86,0,0,0-1.63-1.22A4.41,4.41,0,0,0,36.6,38a12.68,12.68,0,0,0-2-.1,13.43,13.43,0,0,0-3.46.54,3.82,3.82,0,0,0-2.32,2.06c0,.09-.33.28-.38.32a.1.1,0,0,1-.17,0,1.51,1.51,0,0,1-.18-.26c-.09-.18-.48-.8-.53-.86a5.39,5.39,0,0,0-3.47-2.06,5.75,5.75,0,0,1-1.35-.31,2.51,2.51,0,0,1-1.3-1.38,1.38,1.38,0,0,1-.07-.67c0-.26,0-.53,0-.79,0-.51,0-1,0-1.54a1.08,1.08,0,0,0,0-.18c0-.26-.11-.32-.37-.31a7.34,7.34,0,0,0-1.47.28c-.18,0-.24.33-.24.49a11,11,0,0,1-.1,1.28,9.48,9.48,0,0,1-1,2.8c0,.1-.44,0-.56.07a.7.7,0,0,1,.11-.26,6.33,6.33,0,0,0,.77-1.91,12.09,12.09,0,0,0,.24-2.24c0-.43,0-.48.45-.56a12.32,12.32,0,0,0,2.73-.77A13.13,13.13,0,0,0,24,30.39a12,12,0,0,0,3-2.89c.4-.55.78-1.12,1.17-1.69a.49.49,0,0,1,.41-.23l.73,0c.08,0,.13,0,.13-.13,0-.27.06-.31.39-.31h5.62c1.34,0,2.68,0,4,0,1.12,0,2.24,0,3.35,0a10.73,10.73,0,0,1,1.5,0,8.86,8.86,0,0,0,.9.13h.66c.21,0,.23,0,.26.25a3.77,3.77,0,0,1,0,.47s0,.11,0,.11a.34.34,0,0,1-.2-.06,2.73,2.73,0,0,0-1-.21c-.36,0-.72,0-1.08,0a3.56,3.56,0,0,0-.86.12s-.4.48-.48.48-.08-.06-.09-.11a.6.6,0,0,0-.63-.57c-1.84,0-3.67,0-5.51,0-1.06,0-2.12,0-3.17,0l-1.73,0c-.29,0-.37.08-.36.37s0,.63,0,.95c0,.12,0,.2-.17.25s-.17.25-.27.37a1.52,1.52,0,0,0-.23.5,2.42,2.42,0,0,1-.23.59.49.49,0,0,0-.16.49,3.22,3.22,0,0,1,0,.62,9.58,9.58,0,0,0-.16,1.69A3.52,3.52,0,0,0,30.23,33c.05.19.15.36.2.55a.83.83,0,0,0,.3.48c.18.1.33.81.34,1.1s.05.38.36.41a15.1,15.1,0,0,0,1.78,0h.61c1.18,0,2.35,0,3.53,0s2.29,0,3.43,0c.41,0,1,0,.91-.08s0-.18,0-.28c0-.84,0-1.67,0-2.51,0-.13,0-.2.17-.19s.56,0,.56.2c0,.74,0,1.49.06,2.24a4.55,4.55,0,0,1-.05.56,12.4,12.4,0,0,1,2-.1c.19,0,.23,0,.23.24,0,.72,0,1.44,0,2.16C44.72,37.73,44.71,37.74,44.71,37.76ZM35.4,29.65a4,4,0,0,0,1.14.2c1.56.07,3.13,0,4.7,0a.75.75,0,0,0,.15,0c.09,0,.13,0,.12.13a5.62,5.62,0,0,0,0,.58c0,.05,0,.09-.08.08-.52,0-1,0-1.55,0-.74,0-1.48,0-2.22,0a2.79,2.79,0,0,0-.5,0,4.12,4.12,0,0,1-.86,0c-.25,0-.5,0-.75,0-.54,0-1.07,0-1.61,0-.76,0-1.52,0-2.28.09-.12,0-.1-.07-.1-.14V28.76c0-.15,0-.29,0-.44s.05-.17.16-.17h.22a.58.58,0,0,0,.51-.21.39.39,0,0,1,.62,0,.42.42,0,0,0,.37.17c.89,0,1.76-.06,2.64-.12S38,28,39,28l2.29,0a.25.25,0,0,1,.17,0,.18.18,0,0,1,.07.18c0,.08-.09.05-.14.05-1.4,0-2.8,0-4.2,0a6.08,6.08,0,0,0-1.64.19,2.74,2.74,0,0,0-.4.15s-.11.06-.09.13.06.07.11.09a1.94,1.94,0,0,0,.68,0l4.36-.09a4.86,4.86,0,0,0,1.36-.14,3.66,3.66,0,0,1,0,.66c0,.18-.14.11-.25.13.06-.09-4.49-.14-4.49-.14a3.16,3.16,0,0,1-.92-.09c-.19-.05-.58-.12-.58-.12S35.28,29.61,35.4,29.65Zm-.22,4.14a5.29,5.29,0,0,0,1.49.08c.38,0,.73-.13,1.11-.13a1,1,0,0,1,.13.35s0,.11,0,.11-1.69,0-2,0S35,34,34.79,34a2.09,2.09,0,0,1-.25,0c-.15,0-2.18,0-2.42-.06a2,2,0,0,1-.42,0c-.09,0-.1,0-.1-.13s0-.27,0-.41,0-.19.12-.23.09-.15.12-.23l0-.1a.15.15,0,0,1,0,.18c0,.14,0,.27,0,.41s0,0,.08,0H33.5c.17,0,.13-.13.14-.23s0-.16.13-.14a.55.55,0,0,0,.31-.08c.15-.09.33-.07.48-.14a.85.85,0,0,0,.22-.09,3.34,3.34,0,0,1,1.41-.42c.6-.08,1.81-.08,1.81-.08s.11.33-.17.41c-.67.17-2.2.17-2.67.37C35.11,33.13,35.06,33.75,35.18,33.79Zm-3.85-1c.14,0,.1.11.1.18,0,.68,0,1.36.07,2,0,.09,0,.17,0,.26s0,.13-.06.15a.16.16,0,0,1-.19-.08.39.39,0,0,1,0-.21V34.08h0V33C31.23,32.94,31.19,32.82,31.33,32.82Zm.09-3.61s0,0,0,.06,0,.13-.1.13-.07-.07-.07-.13c0-.32,0-.65,0-1v-.51h0V27a.17.17,0,0,1,.07-.17s.08-.05.13,0,0,.07,0,.11C31.42,27.7,31.39,28.46,31.42,29.21Zm14.46,3.57s-.09,0-.09.07-.18.25-.26.37a3.09,3.09,0,0,0-.25.66c-.09.27-.17.55-.25.82a.54.54,0,0,1-.05.11.05.05,0,0,1-.07,0,15.49,15.49,0,0,0-1.7-.2c-.44.11-.31-1.68-.15-2s2.54-.2,2.77-.19.1.07.1.13S46,32.75,45.88,32.78Zm.24-2.25a.32.32,0,0,1-.4.22,1.32,1.32,0,0,0-.49-.05,2,2,0,0,0-.41.05h-.09a6.27,6.27,0,0,0-1.37-.09c-.24,0-.48,0-.72,0s-.1-.08-.1-.14c0-.3,0-.6,0-.87a1.77,1.77,0,0,1,.6,0,12,12,0,0,1,1.47,0,2.24,2.24,0,0,0,.51,0,7.13,7.13,0,0,1,1,0c.08,0,.1,0,.1.11A2.69,2.69,0,0,1,46.12,30.53Zm28-5.31h0c-.12,0-.21.34-.32.33-.3,0-2.91.05-3,0s0-.29,0-.37Zm-27.87.21c0-.18.05-.23.22-.22,1.41.06,2.82,0,4.23,0,2.26,0,4.52,0,6.79,0,3.11,0,6.23,0,9.34,0l3.24,0h.43s0,.36,0,.38c-1.2,0-5.42.05-5.54-.05s-.06-.06-.1,0,0,.07,0,.11c.07.22,0,.24-.18.25l-11.67.17c-.11,0-5.22.11-5.58.14a2.44,2.44,0,0,1-1-.06.19.19,0,0,1-.14-.2C46.3,25.76,46.29,25.59,46.29,25.43ZM73,32a2.77,2.77,0,0,1-.76,0,28.47,28.47,0,0,0-2.92,0c-.25.07-.24-.2-.48-.19-.06,0-.15,0-.13-.11s.1-.07.16-.07c.27,0,1.85,0,2.28,0a12.46,12.46,0,0,0,1.73,0s.21.09.21.14S73.09,32,73,32Zm.61-1.41s0,0-.06,0c-.2,0-.38.09-.58.09-.44,0-.87,0-1.3,0s-.68,0-1,0-.77,0-1.15,0-.6.07-.9.07a1.61,1.61,0,0,1-.31,0l-20.68.14-.09,0a5.32,5.32,0,0,0-.69,0,.38.38,0,0,1-.18,0c-.11-.06-.2,0-.28.09a2.93,2.93,0,0,1,0-.58s0-.07,0,0,.33,0,.5,0c.39.05.79,0,1.18.08a5.53,5.53,0,0,0,1.07.06l2.27,0h.81c.41,0,.82-.05,1.23,0s.8-.07,1.2,0c.22,0,.45,0,.65,0a5.83,5.83,0,0,0,.72,0c.46,0,.92,0,1.37,0s.9,0,1.35,0,.75,0,1.13-.06c.21,0,.44,0,.66,0l.91,0c.27,0,.54,0,.81,0s.63,0,.95,0,.83,0,1.25,0h1.63c.54,0,1.09.06,1.62,0s.87.06,1.31,0c.62,0,1.24,0,1.87.05.47,0,.94,0,1.42,0a5,5,0,0,1,1,0c.12,0,.23,0,.35,0s.11,0,.12.07S73.69,30.54,73.65,30.56ZM46.38,29.8c0-.08,0-.15.12-.14a4.69,4.69,0,0,0,.75,0l.93.05c.21,0,.43,0,.64,0a4.22,4.22,0,0,0,.87,0c.12,0,.23.09.36,0a.35.35,0,0,1-.3.09c-.33,0-.65.06-1,.06-.71,0-1.43,0-2.14,0C46.53,30,46.4,30,46.38,29.8ZM77.64,32c-.21,0-1.49.08-1.76.06s-.65-.14-.66-.22.07-.05.12-.07a1.51,1.51,0,0,1,.52-.06c.29,0,1.33,0,1.57-.05a.32.32,0,0,1,.32.09S77.76,32,77.64,32ZM78,27.08c0,.22-.1.28-.32.26a2.23,2.23,0,0,0-.36,0,4.34,4.34,0,0,1-.51,0c-.13,0-.27.3-.38.4s-8.27.05-8.92,0l-19.83.08a3.45,3.45,0,0,0-.85,0h-.06c-.34,0-.4,0-.4-.37s0-.38,0-.56,0-.17.15-.17l.83,0c.51,0,1,0,1.52,0s.84,0,1.26,0c.59,0,1.17,0,1.75,0s.92,0,1.37,0,1.16,0,1.74,0,1,0,1.47,0c1.25,0,2.5,0,3.75,0,.48,0,1,0,1.46,0,.31,0,.62,0,.93,0,.14,0,.28,0,.41,0a10.14,10.14,0,0,0,1.1,0l10.72.2.79,0a.29.29,0,0,1,.13,0,.52.52,0,0,0,.34.1A7.52,7.52,0,0,0,77.37,27a1,1,0,0,1,.45,0c.09,0,.09-.07.13-.12Z"/><path class="cls-2" d="M17.49,46.6a.83.83,0,0,1-.49-.43,3.11,3.11,0,0,1,0-1.86c-.56.36-1.57.88-2.16.49-.37-.24-.51-.75-.41-1.54-1,1.54-3.37,5.32-3.74,7.91a15.88,15.88,0,0,0,.25,6.47,21.63,21.63,0,0,1,4.57-5.16c1.43-.92,3.4-2.32,3.9-3.9.29-.95.56-2,.74-2.78A2.33,2.33,0,0,1,17.49,46.6Zm-3.12,2.91a.78.78,0,0,1-.8-.77.81.81,0,1,1,.8.77Z"/><path class="cls-2" d="M17.11,52.93c-.69.25-1.91,1.73-4.12,4.41l-.22.27a10.18,10.18,0,0,1,1.88-.13c1.64,0,3.65.18,5,.33a34.78,34.78,0,0,1,0-6.73A7.49,7.49,0,0,1,17.11,52.93Z"/><path class="cls-2" d="M14.37,48.19a.55.55,0,1,0,.58.55A.57.57,0,0,0,14.37,48.19Z"/><path class="cls-2" d="M19.77,38.09a1.71,1.71,0,1,0,1.79,1.7A1.74,1.74,0,0,0,19.77,38.09Z"/><path class="cls-2" d="M37.14,36.07a.59.59,0,0,0-.63.58.59.59,0,0,0,.6.61.64.64,0,0,0,.63-.6A.61.61,0,0,0,37.14,36.07Zm0,.27c-.07.12-.14.25-.22.37s-.1,0-.15,0-.09-.14-.1-.26a.35.35,0,0,1,.14-.19.32.32,0,0,1,.3,0C37.17,36.25,37.17,36.3,37.15,36.34Z"/><path class="cls-2" d="M28.46,38.84a.56.56,0,0,0-.57.55.54.54,0,0,0,.58.54A.53.53,0,0,0,29,39.4.54.54,0,0,0,28.46,38.84Z"/><path class="cls-2" d="M41.56,37.51c-.12,0-.1.09-.11.16s0,.12-.07.12-.13,0-.13-.12-.11-.16-.21-.16-.1.11-.11.18,0,.16.09.16a4.73,4.73,0,0,0,.53,0c.11,0,.15-.09.15-.19S41.66,37.51,41.56,37.51Z"/><path class="cls-2" d="M33.38,28.64c-.36,0-.73,0-1.09,0s-.42-.1-.42.45c0,.11.05.14.15.14h1.19c.41,0,.37.08.38-.39C33.59,28.68,33.53,28.64,33.38,28.64Z"/></svg>