<svg id="Calque_1" data-name="Calque 1" xmlns="http://www.w3.org/2000/svg" viewBox="0 0 85 85"><defs><style>.cls-1{fill:#506d25;}.cls-2{fill:#fff;}.cls-3{fill:#426330;opacity:0.05;}</style></defs><circle class="cls-1" cx="42.5" cy="42.5" r="42.5" transform="translate(-13.03 65.5) rotate(-67.5)"/><path class="cls-2" d="M4.29,36.67l-2.1,0s-.67,0-.66.31,0,.69,0,.69,0,.17.12.19a.46.46,0,0,1,.05.62,3.9,3.9,0,0,0,.12.46s.4.13.09.62c.07.27.09.4.09.4a.42.42,0,0,1,.15.64c0,.34,0,.43,0,.43s.34.24,0,.75a2.73,2.73,0,0,0,0,.37.39.39,0,0,1,.12.65,3.48,3.48,0,0,0,.12.47.41.41,0,0,1,0,.65l.08.36s.43.38.08.67a3.17,3.17,0,0,0,0,.43s.44.32.06.64c0,.2,0,.45.19.49s.3.3,0,.63a2.14,2.14,0,0,0,0,.38.41.41,0,0,1,.06.67c0,.26,0,.42,0,.42s.41.23,0,.66c0,.21,0,.42,0,.42a.38.38,0,0,1,0,.63,3.65,3.65,0,0,0,0,.41.4.4,0,0,1,0,.66c0,.19,0,.42,0,.42s.44.23,0,.66a2,2,0,0,1,.07.3H3.26s0,.57.35.61h.65L6.1,51.45l.12-.11.44-.41,0-1.3s.88-.11.92-.39.15-.61.15-.61-.29-.06-.08-.36a2,2,0,0,0,.24-.3s.09-.12,0-.2-.28-.11.15-.55a.84.84,0,0,0,.13-.2s0-.06-.08-.09-.25-.12.14-.51a1.51,1.51,0,0,0,.12-.19v-.14s-.44,0,.14-.58c.09-.11,0-1.61,2.71-2l4.29-.88.09,0,3.39-1.39a.65.65,0,0,1,.2,0l9.42-.09.31.08h1.59l.21,0H31a.29.29,0,0,0,.15.31l2.23.74a2.2,2.2,0,0,1,.77,3.55C32.58,48,30.34,51.32,30,51.86l-.13.13L28,53.31s-1,.55,0,1.44c.8.63,3.35,2.41,3.35,2.41l.26.2a7.87,7.87,0,0,0,2.54.5c.49,0,.69.08,1.12-.48s.74-.56.12-1.38c-.09-.15-.32-.36.19-1.13s4.3-7.4,4.3-7.4.06-.1-.14-.21a2.43,2.43,0,0,1,.18-.36l2.6,1.36a.55.55,0,0,0,.18.06l4,.47.64,0,1.65.3a.58.58,0,0,0,.59.09c0-.22.33-1.93.33-1.93l.07.1h.47s1.47,7.89,2,8.81c.07.25.45,1.52.67,2.24a.53.53,0,0,0,.66.36l4.82-1.42s.23-.14.06-.59a19.84,19.84,0,0,0-.87-2.51c-.06,0-.07,0-.07,0S56,47.81,56.08,46.65l1-.19s.21,0,.06-.31c0-.31.09-4.08,4-3.38h.07v-.12l.14.06h1.56s.17,0,.12-.4h.36a.43.43,0,0,0,.31.39h.57l.09-.35h.33s0,.37.37.37h.5l.12-.34H66a.4.4,0,0,0,.39.36h.49l.12-.36h.3a.34.34,0,0,0,.35.35h.56l.1-.32h.3a.39.39,0,0,0,.42.36h.5l.13-.35h.25s0,.36.5.37h.4l.16-.38h.27s0,.39.52.39h.4l.13-.37h.24a.67.67,0,0,0,.57.39h.32l.2-.36h.2a.54.54,0,0,0,.59.39h.35l.17-.4h.21s0,.37.64.38.31,0,.31,0l.17-.36h.17s0,.41.69.41.31,0,.31,0l.13-.37h.17a.43.43,0,0,0,.46.36l1.56,0s.43,0,.43-.35,0-.32,0-.32v-.29a1,1,0,0,0-.15-.6c-.17-.17-.52-.06-.69-1.25a.71.71,0,0,1,.29.06h3.35a1.48,1.48,0,0,0,.71-1.42c0-1.11-.12-1.28-.9-1.74h-3l-.09.06-.15-.06h-.59l-.12.13h-.23a.84.84,0,0,1,.18-.83,1.47,1.47,0,0,0-1-.72c-.61-.2-7.42-2.75-9-3.35a.51.51,0,0,1-.34-.48l0-1.76a.93.93,0,0,0-.94-.78l-1.63,0a2.68,2.68,0,0,0-1.83.74l0,0a2.61,2.61,0,0,0-.79,1.78A.68.68,0,0,1,63,32H62.9l0,.32h-.39l-.1-.37H61.6v.36h-.45L61,32h-.72v.37h-.47L59.63,32H59v.36h-.48l-.14-.38h-.69v.35h-.49L57,31.91h-.62v.38h-.51L55.57,32H55v.35h-.5l-.21-.38h-.57v.37h-.57L53,31.94h-.57v.37h-.55l-.2-.4h-.57v.41H50.5l-.23-.41h-.54v.39h-.58l-.24-.39h-.5v.4h-.59l-.22-.41h-.48v.4H46.5l-.24-.39h-.5v.41h-.62l-.17-.4h-.51v.38h-.65l-.19-.39h-.53v.39h-.61l-.17-.39H41.8v.37h-.66l-.22-.37h-.46v.4h-.64V32H39.6v-.23l-.34-.87a.62.62,0,0,0-.33-.1H37.28a4.06,4.06,0,0,1-1.6-.71,5.15,5.15,0,0,0-.71-.62,1.19,1.19,0,0,0-1.33.14,8,8,0,0,0-.93,1.13s-.3.81-.3.9,0,.37,0,.37H31.5l-.34.31v.43H30.1l-.53.53L17.32,36.8l-.15,0H6.48l-.14.1H4.47Z"/><path class="cls-1" d="M41.92,44.18,40.9,46s-.11.31.29.61l1.38,1.08.27.15h.39l3.12.4a1,1,0,0,0,1.06-.45c.38-.62.76-1.28.76-1.28V46.3l.45-.75L48.46,44H48s0,.21-.16.21h-.65s-.1,0-.1-.21h-2.4a4.19,4.19,0,0,0-.94,1.77,5.24,5.24,0,0,0,0,1.17c.05.17.13.4.13.4s.07.41-.3.23l-.18-.14h0A4.09,4.09,0,0,1,43,44.24a2.39,2.39,0,0,1-.2-.27h-.69Z"/><path class="cls-3" d="M43.31,44h1.31a6.44,6.44,0,0,0-.72,1.12,2.58,2.58,0,0,0-.22,1.31,1.77,1.77,0,0,0,.12.74c0,.11.12.33,0,.41s-.19,0-.4-.17h0s-.26-.52-.31-.67-.12-.62-.12-.62a6.27,6.27,0,0,1,0-1.11c0-.24.13-.76.13-.76L42.8,44Z"/><path class="cls-1" d="M49.54,34.89,49,37.21a.66.66,0,0,0,.73.64h5.13s.47,0,.47-.41V35.1s.07-.64-.3-.79-4.89,0-4.89,0A.86.86,0,0,0,49.54,34.89Z"/><path class="cls-1" d="M65.31,36l4,0s.16,0,.16.22.06.51-.25.49H65.08a.55.55,0,0,1-.16-.4C64.92,36,65,36,65.31,36Z"/><path class="cls-1" d="M70.9,36l4,0s.15,0,.15.22.06.52-.25.49H70.67a.55.55,0,0,1-.16-.4C70.51,36.08,70.54,36,70.9,36Z"/><polygon class="cls-1" points="63.96 37.14 64.6 37.15 64.6 38.2 63.98 38.2 63.96 37.14"/><polygon class="cls-1" points="65.29 37.15 65.93 37.15 65.93 38.21 65.31 38.21 65.29 37.15"/><polygon class="cls-1" points="66.64 37.17 67.28 37.18 67.28 38.24 66.66 38.24 66.64 37.17"/><polygon class="cls-1" points="67.97 37.18 68.61 37.19 68.61 38.24 67.99 38.24 67.97 37.18"/><polygon class="cls-1" points="69.34 37.17 69.98 37.18 69.98 38.24 69.36 38.24 69.34 37.17"/><polygon class="cls-1" points="70.67 37.18 71.31 37.19 71.31 38.24 70.69 38.24 70.67 37.18"/><polygon class="cls-1" points="71.99 37.21 72.63 37.21 72.63 38.27 72 38.27 71.99 37.21"/><polygon class="cls-1" points="73.32 37.22 73.96 37.22 73.96 38.28 73.33 38.28 73.32 37.22"/><polygon class="cls-1" points="74.67 37.21 75.31 37.21 75.31 38.27 74.69 38.27 74.67 37.21"/><polygon class="cls-1" points="76 37.22 76.64 37.22 76.64 38.28 76.02 38.28 76 37.22"/><polygon class="cls-1" points="63.94 38.88 64.58 38.89 64.58 39.95 63.95 39.95 63.94 38.88"/><polygon class="cls-1" points="65.27 38.89 65.91 38.9 65.91 39.95 65.28 39.95 65.27 38.89"/><polygon class="cls-1" points="66.61 38.91 67.26 38.92 67.26 39.98 66.63 39.98 66.61 38.91"/><polygon class="cls-1" points="67.94 38.92 68.59 38.93 68.59 39.99 67.96 39.99 67.94 38.92"/><polygon class="cls-1" points="69.31 38.91 69.95 38.92 69.95 39.98 69.33 39.98 69.31 38.91"/><polygon class="cls-1" points="70.64 38.92 71.28 38.93 71.28 39.99 70.66 39.99 70.64 38.92"/><polygon class="cls-1" points="71.96 38.95 72.6 38.96 72.6 40.02 71.98 40.02 71.96 38.95"/><polygon class="cls-1" points="73.29 38.96 73.93 38.96 73.93 40.02 73.31 40.02 73.29 38.96"/><polygon class="cls-1" points="74.64 38.95 75.29 38.96 75.29 40.02 74.66 40.02 74.64 38.95"/><polygon class="cls-1" points="75.97 38.96 76.62 38.96 76.62 40.02 75.99 40.02 75.97 38.96"/><path class="cls-1" d="M38.7,42.09a2.72,2.72,0,0,0,1.8-1.32,1.06,1.06,0,0,1,1.9.6.93.93,0,0,1-.84,1.21l-2.83.05a.28.28,0,0,1-.18-.46A.35.35,0,0,1,38.7,42.09Z"/><rect class="cls-1" x="32.17" y="34.62" width="17.64" height="0.4"/><rect class="cls-1" x="32.22" y="35.97" width="17.64" height="0.4"/><rect class="cls-1" x="63.94" y="38.52" width="12.69" height="0.13" transform="translate(0.28 -0.5) rotate(0.41)"/><polygon class="cls-1" points="2.63 38.5 17.8 38.43 29.94 34.98 29.94 35.75 17.82 39.15 2.66 39.15 2.63 38.5"/><polygon class="cls-1" points="60.47 33.24 60.47 33.89 60.65 34.07 71.84 34.17 69.84 33.28 60.47 33.24"/><path class="cls-1" d="M51.51,48.52c.28,1.43,1,4.83,1.3,6.24a.62.62,0,0,0,.78.45l2.54-.8a.61.61,0,0,0,.41-.73A50.83,50.83,0,0,1,55.38,48a.62.62,0,0,0-.69-.58L52,47.79A.61.61,0,0,0,51.51,48.52Z"/><path class="cls-1" d="M44.77,43.16h0a3.6,3.6,0,0,1,3.33-2.25l8.24,0-.64-.81-8.42,0a4,4,0,0,0-3.41,2.35l0,.09Z"/></svg>