<svg id="Calque_1" data-name="Calque 1" xmlns="http://www.w3.org/2000/svg" viewBox="0 0 85 85"><defs><style>.cls-1{fill:#89a24b;}.cls-2{fill:#426330;opacity:0.05;}.cls-3{fill:#fff;}</style></defs><circle class="cls-1" cx="42.5" cy="42.5" r="42.5" transform="translate(-13.03 65.5) rotate(-67.5)"/><path class="cls-2" d="M43.31,44h1.31a6.44,6.44,0,0,0-.72,1.12,2.58,2.58,0,0,0-.22,1.31,1.77,1.77,0,0,0,.12.74c0,.11.12.33,0,.41s-.19,0-.4-.17h0s-.26-.52-.31-.67-.12-.62-.12-.62a6.27,6.27,0,0,1,0-1.11c0-.24.13-.76.13-.76L42.8,44Z"/><path class="cls-3" d="M3.93,37.75l-.39-.33H2.93a.54.54,0,0,0-.33.48A60.79,60.79,0,0,0,3.62,49a.57.57,0,0,0,.49.35c.23,0,.35,0,.53-.36A5.08,5.08,0,0,1,5,48.28l1.13.92s.3,0,.28-.26c-.29-.32-.88-.87-.88-.87a1.26,1.26,0,0,1-.12-.57,27.6,27.6,0,0,0,1.94-2.44l1.94-.78v.13l-.43.36v1.56l.33.27s.09,0,.26-.14,2.83-2.37,2.83-2.37h.51v.63a1.09,1.09,0,0,0,1,0v-.64h1.78a2.27,2.27,0,0,1,2-2.21h1.2a.17.17,0,0,0,.23,0s0-1,0-1h1.6V40.8h1.4l.18.32h.64v1.31a.56.56,0,0,0,.61.39,1.65,1.65,0,0,1,1.75,1.26.27.27,0,0,0-.11.26v.74l-4.85,7.21s-.07.21.27.3,4.26,1,4.26,1,.81.19.64-.62c-.1-.2-.24-.39.06-.91s1.33-2.33,1.33-2.33a.9.9,0,0,1,.81-.15c.11,0,.41-.1,0-.51a.57.57,0,0,1-.09-.76c.22-.35.65-1.11.65-1.11h1.69a4.92,4.92,0,0,0,3.69,0H34v.55s.92,8.2,1.3,8.57a2.42,2.42,0,0,1,.28.2s.26.2,0,.68a1.55,1.55,0,0,0,.07.41l.2,0-.1.14.28.19,5.61-1.51s.47-.12,0-1a31.49,31.49,0,0,1-1.51-8.62.84.84,0,0,0,0-.46l-.08-.16s1.08-.07.26-.6c0-.42,0-2.53,0-2.53a1.49,1.49,0,0,1,.67-.79c.19-.07.56-.17.4-.69,0-.25,0-.44,0-.44h.19s.1,1,.28,1l1.32-.25.1-.17h.16s0,.62.48.63L58,42s.25,0,.23-.45c.25,0,.63,0,.64-.29s0-.53,0-.53H59v.58l.24.23V43.4s.26.46.49,0V41.59l.07-.26v-.56s.14,0,.17-.36h2.14v.19l.24.15v1l.08.09h.66v-.33h.86l.13-.14v-.66l-.72-.31h15l.12-.08.27.13,0,.1h.42s.19-.68.4,0h.26s.18-.6.35,0h2.7s.08,0,.09-.23V38.66s0-.12-.15-.13H80.2s-.17.65-.35,0h-.28s-.15.64-.35,0h-.44l-.28.14H63.28V34s-.57-1.93-1.91,0c-.9,1.17-2.46,3.13-2.46,3.13l0,.59s-.06-.22-.23-.21h-.34L58,37.14l-14.39-.29s-.19.07-.18.61H43.3a.23.23,0,0,0-.21-.18l-1.2-.23s-.21.08-.25.44h-.16v-.73l-.16-.16h-1.1v.27h-.3l-.21-.27h-.44v.28H39l-.21-.27h-.42v.29H38l-.24-.31h-.4v.27h-.31l-.2-.26h-.43v.29h-.28l-.23-.3h-.42v.28h-.24L35,36.6h-.45v.28H34.3l-.21-.29h-.44v.27h-.31l-.21-.27h-.4v.3h-.26l-.2-.29h-.45v.28h-.23l-.19-.27h-.2a.52.52,0,0,0-.13-.42l0-.3a1.94,1.94,0,0,0-1-.45c-.69-.12-1.33-.26-1.33-.26s.09-1.86-.65-2.12l-.75-.26s-.21,0-.21.19v1.69H27v.86l.08.11v1H24.6v.11h-.14v-.1h-.79l-.12,1,.33.22h-.53l-.14.07H22.13l-.18.22H19l-.41-.31H4Z"/><path class="cls-1" d="M30.24,44.22a1.92,1.92,0,0,0,.52,2.45s.08,0-.09-.32a1.52,1.52,0,0,1,.53-2.15c.81,0,1.33,0,1.33,0a1.33,1.33,0,0,1,.9,2.14,2.18,2.18,0,0,1-2.14.74c-.89-.13-1.69-.23-2.15-.94A1.35,1.35,0,0,1,30.24,44.22Z"/><path class="cls-1" d="M4,39.24H6.1a.35.35,0,0,1,0,.48H4S3.6,39.58,4,39.24Z"/><path class="cls-1" d="M3.92,40H6.07a.37.37,0,0,1,0,.48L4,40.46S3.56,40.31,3.92,40Z"/><path class="cls-1" d="M6.63,39.25H8.77a.37.37,0,0,1,0,.48l-2.12,0S6.27,39.59,6.63,39.25Z"/><path class="cls-1" d="M6.59,40H8.74a.36.36,0,0,1,0,.48l-2.11,0S6.23,40.32,6.59,40Z"/><path class="cls-1" d="M9.28,39.26h2.15a.37.37,0,0,1,0,.48l-2.12,0S8.92,39.6,9.28,39.26Z"/><path class="cls-1" d="M9.25,40h2.14a.35.35,0,0,1,0,.48l-2.12,0S8.89,40.32,9.25,40Z"/><path class="cls-1" d="M11.9,39.27H14a.35.35,0,0,1,0,.48l-2.12,0S11.54,39.6,11.9,39.27Z"/><path class="cls-1" d="M11.87,40H14a.36.36,0,0,1,0,.48l-2.12,0S11.51,40.33,11.87,40Z"/><path class="cls-1" d="M14.6,39.3h2.15a.35.35,0,0,1,0,.48H14.64S14.24,39.63,14.6,39.3Z"/><path class="cls-1" d="M14.57,40h2.14a.35.35,0,0,1,0,.48H14.6S14.21,40.36,14.57,40Z"/><path class="cls-1" d="M63.48,39.38v.4l14.79,0V39.4Z"/><path class="cls-1" d="M44.52,39a7.28,7.28,0,0,1,.12-2h.17a10.87,10.87,0,0,0-.12,2Z"/><path class="cls-1" d="M45.72,39a7.28,7.28,0,0,1,.12-2H46a10.87,10.87,0,0,0-.12,2Z"/><path class="cls-1" d="M46.9,39A7.73,7.73,0,0,1,47,37h.17A10.81,10.81,0,0,0,47.07,39Z"/><path class="cls-1" d="M48.09,39A7.73,7.73,0,0,1,48.21,37h.17A10.81,10.81,0,0,0,48.26,39Z"/><path class="cls-1" d="M49.29,39a7.28,7.28,0,0,1,.12-2h.16a11.27,11.27,0,0,0-.11,2Z"/><path class="cls-1" d="M50.49,39A7.28,7.28,0,0,1,50.61,37h.17A10.87,10.87,0,0,0,50.66,39Z"/><path class="cls-1" d="M51.67,39a7.73,7.73,0,0,1,.12-2H52A10.81,10.81,0,0,0,51.84,39Z"/><path class="cls-1" d="M52.86,39A7.73,7.73,0,0,1,53,37.06h.17A10.81,10.81,0,0,0,53,39Z"/><path class="cls-1" d="M54.1,39a7.73,7.73,0,0,1,.12-2h.17A10.81,10.81,0,0,0,54.27,39Z"/><path class="cls-1" d="M55.3,39a7.73,7.73,0,0,1,.12-2h.17A10.81,10.81,0,0,0,55.47,39Z"/><path class="cls-1" d="M56.48,39.05a7.39,7.39,0,0,1,.13-1.95h.16a12,12,0,0,0-.12,1.95Z"/><path class="cls-1" d="M57.68,39.06a7.28,7.28,0,0,1,.12-2H58a11.27,11.27,0,0,0-.11,2Z"/><path class="cls-1" d="M60,38.42v.29h2.17s.09-.23-.09-.32H60Z"/><path class="cls-1" d="M61.31,35.06l-1.62,2.1s-.22.51.68.51h2.12s.24,0,.23-.51v-.81a.41.41,0,0,0-.25-.19c-.17,0-.4-.17-.4-.29v-.59s0-.35-.35-.35S61.31,35.06,61.31,35.06Z"/><path class="cls-1" d="M33.39,40.18v-1s0-.49.85-.5l4.59,0a.52.52,0,0,1,.48.58c0,.55,0,.86,0,.86l-5.93,0Z"/><path class="cls-1" d="M25.31,40.46s-.14,2,.42,2h2.39S25.44,42.52,25.31,40.46Z"/><rect class="cls-1" x="25.23" y="38.18" width="6.81" height="0.27"/><rect class="cls-1" x="25.26" y="39.1" width="4.23" height="0.26"/><path class="cls-1" d="M36,47.28l2-.32a.88.88,0,0,1,1,.8,37.1,37.1,0,0,0,.81,5.66.88.88,0,0,1-.69,1.1l-1.95.38a.88.88,0,0,1-1-.73c-.2-1.33-.6-3.87-.94-5.87A.89.89,0,0,1,36,47.28Z"/><circle class="cls-1" cx="27.82" cy="34.12" r="0.53"/><circle class="cls-1" cx="33.37" cy="42.85" r="0.49"/></svg>