<svg id="Vecto" xmlns="http://www.w3.org/2000/svg" viewBox="0 0 156.65 48.79"><defs><style>.cls-1{fill:#3d4c28;}.cls-2{fill:#fff;}</style></defs><path class="cls-1" d="M2.6,9.63,1.85,9H.65A1.08,1.08,0,0,0,0,9.92,119.48,119.48,0,0,0,2,31.51a1.12,1.12,0,0,0,1,.69c.43,0,.68,0,1-.71a9.27,9.27,0,0,1,.75-1.33L6.94,32a.45.45,0,0,0,.53-.51c-.57-.63-1.7-1.7-1.7-1.7a2.36,2.36,0,0,1-.24-1.1c.29,0,3.78-4.76,3.78-4.76l3.77-1.52,0,.25-.83.71,0,3,.64.53s.18.08.5-.27S18.86,22,18.86,22h1v1.21a2,2,0,0,0,1.86,0V22H25.2A4.41,4.41,0,0,1,29,17.66c.93,0,2.32,0,2.32,0a.35.35,0,0,0,.46,0c.06-.1,0-1.93,0-1.93h3.12v-.13h2.72l.35.63h1.24v2.55a1.09,1.09,0,0,0,1.19.75A3.24,3.24,0,0,1,43.83,22a.54.54,0,0,0-.22.5v1.44L34.15,38s-.13.41.54.57S43,40.45,43,40.45s1.57.38,1.25-1.2c-.2-.39-.48-.76.12-1.77S47,32.93,47,32.93a1.71,1.71,0,0,1,1.57-.28c.22,0,.8-.2,0-1a1.1,1.1,0,0,1-.17-1.47c.44-.68,1.27-2.17,1.27-2.17H53a9.62,9.62,0,0,0,7.19,0h1v1s1.8,16,2.53,16.7a5.3,5.3,0,0,1,.55.4s.5.39,0,1.33a2.79,2.79,0,0,0,.15.79l.37-.06-.18.28.53.36,10.94-2.95s.91-.22.07-1.88c-.31,0-2.44-8-2.93-16.8a1.64,1.64,0,0,0-.1-.88L73,26s2.09-.13.5-1.17c0-.82.06-4.93.06-4.93a2.9,2.9,0,0,1,1.31-1.53c.36-.13,1.09-.33.78-1.35a6.85,6.85,0,0,0,0-.85l.38,0s.18,1.86.53,1.91l2.58-.49.19-.34h.31s.05,1.2.94,1.23L107.89,18s.49,0,.44-.88c.49,0,1.23,0,1.25-.55s0-1,0-1h.22l0,1.13.47.45v3.57s.5.88,1,0V17.11l.14-.49V15.53s.27,0,.32-.7h4.19v.37l.45.29v2l.16.17h1.29V17h1.68l.25-.27V15.45l-1.4-.61h29.23l.24-.16.52.25.08.21h.82s.38-1.32.78,0h.5s.36-1.17.69,0h5.25s.17-.09.18-.45,0-3.27,0-3.27,0-.23-.28-.26h-5.17s-.33,1.28-.69,0H150s-.29,1.25-.68,0h-.86l-.55.29H118.23v-9s-1.12-3.76-3.73,0c-1.74,2.28-4.79,6.1-4.79,6.1l-.09,1.15s-.12-.42-.45-.4a6,6,0,0,1-.67,0L108,8.45,80,7.89s-.36.13-.34,1.18H79.3a.48.48,0,0,0-.41-.37l-2.33-.44s-.41.16-.49.86h-.31V7.7l-.32-.3H73.31v.53h-.59l-.41-.52h-.87V8h-.6l-.41-.53h-.81V8H69l-.47-.6h-.78v.52h-.6l-.39-.5H66V8h-.55L65,7.4h-.82v.54h-.48l-.54-.54h-.86v.54h-.49l-.42-.57h-.85v.54h-.62l-.4-.52h-.78V8H58.2l-.39-.56h-.88v.54H56.5l-.37-.52h-.4a1,1,0,0,0-.26-.81c0-.33,0-.6,0-.6a3.72,3.72,0,0,0-1.94-.86c-1.34-.25-2.58-.53-2.58-.53S51.09,1,49.65.5L48.2,0s-.41,0-.41.36V3.65h-.22V5.32l.15.23V7.4H42.87v.22h-.28V7.41H41.06l-.23,1.95.64.43h-1l-.29.15H38.05l-.33.42h-5.8l-.8-.6H2.69Z" transform="translate(0)"/><path class="cls-2" d="M53.87,22.23s-1.56,3,1,4.79c.06,0,.16-.06-.17-.62a3,3,0,0,1,1-4.2h2.58s3.62.7,1.75,4.16c-.37.49-1.48,1.73-4.17,1.44-1.73-.24-3.28-.44-4.19-1.81C51.53,25.56,50.72,23,53.87,22.23Z" transform="translate(0)"/><path class="cls-2" d="M2.66,12.55l4.17,0a.7.7,0,0,1,0,.94l-4.13,0S2,13.2,2.66,12.55Z" transform="translate(0)"/><path class="cls-2" d="M2.59,14l4.18,0a.69.69,0,0,1,0,.94l-4.12,0S1.89,14.62,2.59,14Z" transform="translate(0)"/><path class="cls-2" d="M7.85,12.56H12a.69.69,0,0,1,0,.93l-4.13,0S7.15,13.22,7.85,12.56Z" transform="translate(0)"/><path class="cls-2" d="M7.79,14H12a.69.69,0,0,1,0,.93l-4.13,0S7.09,14.64,7.79,14Z" transform="translate(0)"/><path class="cls-2" d="M13,12.58l4.18,0a.7.7,0,0,1,0,.94l-4.13,0S12.33,13.23,13,12.58Z" transform="translate(0)"/><path class="cls-2" d="M13,14l4.17,0a.7.7,0,0,1,0,.94L13,15S12.26,14.65,13,14Z" transform="translate(0)"/><path class="cls-2" d="M18.13,12.6l4.18,0a.71.71,0,0,1,0,.94l-4.12,0S17.43,13.25,18.13,12.6Z" transform="translate(0)"/><path class="cls-2" d="M18.06,14l4.18,0a.7.7,0,0,1,0,.94l-4.13,0S17.36,14.67,18.06,14Z" transform="translate(0)"/><path class="cls-2" d="M23.39,12.65l4.18,0a.7.7,0,0,1,0,.94l-4.13,0S22.69,13.3,23.39,12.65Z" transform="translate(0)"/><path class="cls-2" d="M23.33,14.07l4.17,0a.7.7,0,0,1,0,.94l-4.13,0S22.62,14.72,23.33,14.07Z" transform="translate(0)"/><path class="cls-2" d="M118.61,12.81v.78l28.82.06v-.81Z" transform="translate(0)"/><path class="cls-2" d="M81.67,12a14.68,14.68,0,0,1,.24-3.8h.33A21,21,0,0,0,82,12Z" transform="translate(0)"/><path class="cls-2" d="M84,12a14.69,14.69,0,0,1,.24-3.8h.33A21,21,0,0,0,84.35,12Z" transform="translate(0)"/><path class="cls-2" d="M86.32,12a14.69,14.69,0,0,1,.24-3.8h.32A22,22,0,0,0,86.65,12Z" transform="translate(0)"/><path class="cls-2" d="M88.64,12a14.68,14.68,0,0,1,.24-3.8h.32A22,22,0,0,0,89,12Z" transform="translate(0)"/><path class="cls-2" d="M91,12a14.6,14.6,0,0,1,.24-3.79h.33A20.83,20.83,0,0,0,91.3,12Z" transform="translate(0)"/><path class="cls-2" d="M93.3,12a14.69,14.69,0,0,1,.24-3.8h.33A21,21,0,0,0,93.64,12Z" transform="translate(0)"/><path class="cls-2" d="M95.61,12.08a14.69,14.69,0,0,1,.24-3.8h.32a22,22,0,0,0-.23,3.79Z" transform="translate(0)"/><path class="cls-2" d="M97.93,12.09a14.6,14.6,0,0,1,.24-3.79h.32a21.86,21.86,0,0,0-.23,3.78Z" transform="translate(0)"/><path class="cls-2" d="M100.34,12.13a14.69,14.69,0,0,1,.24-3.8h.33a21,21,0,0,0-.23,3.79Z" transform="translate(0)"/><path class="cls-2" d="M102.68,12.12a14.68,14.68,0,0,1,.24-3.8h.32a22,22,0,0,0-.23,3.79Z" transform="translate(0)"/><path class="cls-2" d="M105,12.17a15,15,0,0,1,.23-3.8h.33a21,21,0,0,0-.23,3.79Z" transform="translate(0)"/><path class="cls-2" d="M107.31,12.18a14.6,14.6,0,0,1,.24-3.79h.32a22,22,0,0,0-.23,3.79Z" transform="translate(0)"/><path class="cls-2" d="M111.74,10.94v.57H116s.17-.45-.18-.63h-4.06Z" transform="translate(0)"/><path class="cls-2" d="M114.4,4.39,111.24,8.5s-.43,1,1.31,1h4.14s.46-.1.45-1,0-1.58,0-1.58a.79.79,0,0,0-.49-.36c-.34-.06-.78-.34-.78-.57V4.8s-.08-.68-.69-.67S114.4,4.39,114.4,4.39Z" transform="translate(0)"/><path class="cls-2" d="M60,14.38V12.52s-.07-.95,1.65-1,8.94.07,8.94.07a1,1,0,0,1,.94,1.12c0,1.08,0,1.68,0,1.68L60,14.47Z" transform="translate(0)"/><path class="cls-2" d="M44.26,14.91s-.28,3.9.81,3.9l4.66,0S44.5,18.94,44.26,14.91Z" transform="translate(0)"/><rect class="cls-2" x="44.1" y="10.47" width="13.26" height="0.53"/><rect class="cls-2" x="44.15" y="12.26" width="8.25" height="0.51"/><path class="cls-2" d="M65.08,28.21l4-.63a1.72,1.72,0,0,1,2,1.55,71.66,71.66,0,0,0,1.58,11,1.71,1.71,0,0,1-1.34,2.15l-3.79.74a1.73,1.73,0,0,1-2-1.42c-.39-2.59-1.16-7.54-1.82-11.44A1.7,1.7,0,0,1,65.08,28.21Z" transform="translate(0)"/><circle class="cls-2" cx="49.15" cy="2.56" r="1.04"/><circle class="cls-2" cx="59.96" cy="19.57" r="0.96"/></svg>