<svg id="Vecto" xmlns="http://www.w3.org/2000/svg" viewBox="0 0 148.36 53.64"><defs><style>.cls-1{fill:#636a28;}.cls-2{fill:#fff;}.cls-3{fill:#426330;opacity:0.05;}</style></defs><path class="cls-1" d="M5,13.62l-3.78.05S0,13.73,0,14.24s0,1.25,0,1.25,0,.29.21.33A.83.83,0,0,1,.33,17a6.28,6.28,0,0,0,.21.83s.72.23.17,1.12l.16.72a.74.74,0,0,1,.26,1.15c0,.62,0,.78,0,.78s.62.43.06,1.37a4.71,4.71,0,0,0,.09.65.72.72,0,0,1,.21,1.18,8.22,8.22,0,0,0,.21.85.73.73,0,0,1,.07,1.17c.06.34.14.65.14.65s.78.69.14,1.22c0,.41.09.77.09.77s.81.59.12,1.16c0,.36,0,.81.34.89.15.1.54.54-.09,1.13a5.39,5.39,0,0,0,0,.69.74.74,0,0,1,.12,1.21c0,.46.08.76.08.76s.76.42.08,1.19c0,.38,0,.76,0,.76A.7.7,0,0,1,3,38.34c0,.45,0,.74,0,.74a.73.73,0,0,1,0,1.2C3,40.62,3,41,3,41s.79.41.06,1.19a2.71,2.71,0,0,1,.12.54H3.13s0,1,.62,1.09H4.93l3.32-3.52.22-.2.79-.75L9.17,37s1.6-.2,1.67-.7c0-.27.26-1.1.26-1.1s-.52-.13-.14-.66A3.59,3.59,0,0,0,11.4,34s.15-.22,0-.36-.52-.2.26-1a2.13,2.13,0,0,0,.23-.36s0-.13-.14-.17-.45-.21.25-.91c.15-.22.22-.35.22-.35v-.25s-.8.08.25-1.07c.15-.18-.08-2.9,4.9-3.57l7.74-1.58.17-.06,6.12-2.51a1.15,1.15,0,0,1,.36-.07l17-.17.56.15,2.88,0,.37-.09.61,0h.11a.52.52,0,0,0,.27.56c.29.11,4,1.33,4,1.33s4.53,2,1.39,6.43c-2.87,4-6.92,10.05-7.57,11a.91.91,0,0,1-.24.24l-3.38,2.38s-1.83,1-.05,2.61c1.44,1.14,6.06,4.36,6.06,4.36l.47.35s.56.41,4.58.9c.89,0,1.25.16,2-.86.64-.78,1.35-1,.23-2.49-.17-.27-.57-.65.34-2s7.76-13.38,7.76-13.38.11-.18-.24-.38a3.81,3.81,0,0,1,.32-.64L74,34.56a.92.92,0,0,0,.33.11l7.21.85,1.16.08,3,.54a1.06,1.06,0,0,0,1.07.16c.05-.41.59-3.49.59-3.49l.13.18h.85s2.66,14.26,3.53,15.92c.12.46.81,2.75,1.21,4.05a.94.94,0,0,0,1.18.64L102.92,51s.42-.25.11-1.06a38.06,38.06,0,0,0-1.57-4.54c-.11,0-.14,0-.14,0s-3-11.71-2.76-13.8c1.22-.22,1.79-.35,1.79-.35s.39,0,.12-.56c.07-.55.16-7.37,7.24-6.1l.13,0,0-.22.24.11h2.83s.29,0,.22-.72h.64s0,.6.56.7h1l.17-.63h.59s.07.66.67.66h.9l.21-.62h.58a.71.71,0,0,0,.71.64h.88l.21-.65h.55a.61.61,0,0,0,.64.62c.61,0,1,0,1,0l.2-.58h.53a.72.72,0,0,0,.76.66c.59,0,.9,0,.9,0l.23-.65h.46s-.08.66.91.69l.71,0,.29-.68H126s0,.71.94.71.73,0,.73,0l.23-.66h.44a1.17,1.17,0,0,0,1,.71h.59l.36-.66h.35a1,1,0,0,0,1.07.7h.63l.32-.72H133s0,.67,1.15.69.56,0,.56,0L135,24h.31s0,.75,1.25.75.56,0,.56,0l.24-.68h.3a.78.78,0,0,0,.83.66c.76,0,2.82.05,2.82.05s.77,0,.77-.64-.08-.57-.08-.57l0-.53a1.82,1.82,0,0,0-.27-1.08c-.31-.3-.94-.12-1.25-2.26a1.22,1.22,0,0,1,.52.11l6,0a2.67,2.67,0,0,0,1.29-2.58c0-2-.21-2.3-1.63-3.13h-5.44l-.18.11-.26-.11h-1.07l-.21.24h-.42a1.55,1.55,0,0,1,.33-1.51,2.75,2.75,0,0,0-1.77-1.3c-1.09-.37-13.4-5-16.27-6a1,1,0,0,1-.62-.87l-.07-3.19a1.67,1.67,0,0,0-1.7-1.4c-.8,0-2,0-2.94,0a4.77,4.77,0,0,0-3.31,1.34l0,0a4.76,4.76,0,0,0-1.44,3.21,1.25,1.25,0,0,1-.18.58h-.24l0,.58-.72,0L110,5.13h-1.42l0,.66h-.81l-.24-.66h-1.31v.66h-.85L105,5.11h-1.19v.66h-.88l-.25-.69h-1.25V5.7h-.88L100.17,5H99.06v.7h-.93l-.48-.62h-1v.63h-.91L95.35,5h-1v.67h-1l-.4-.64h-1v.67h-1L90.52,5h-1v.73h-1L88.06,5h-1v.7h-1L85.61,5H84.7v.73H83.64L83.24,5h-.86v.72H81.26L80.82,5h-.9v.73H78.79L78.48,5h-.91v.68H76.4L76.05,5h-1v.71H74L73.69,5h-.92v.68H71.58L71.17,5h-.83v.72H69.18V5.13h-.39V4.72l-.62-1.59a1.16,1.16,0,0,0-.6-.17h-3A7.54,7.54,0,0,1,61.7,1.68,10,10,0,0,0,60.42.55,2.18,2.18,0,0,0,58,.81a14.73,14.73,0,0,0-1.67,2s-.54,1.46-.54,1.62,0,.67,0,.67h-1.6l-.63.56v.78H51.62l-1,1L28.53,13.85a.84.84,0,0,1-.27,0H8.94l-.26.19H5.31Z" transform="translate(0 0)"/><path class="cls-2" d="M73,27.19l-1.84,3.2s-.2.55.52,1.11,2.49,1.94,2.49,1.94l.5.28.71,0,5.63.74a1.83,1.83,0,0,0,1.92-.82c.68-1.12,1.37-2.32,1.37-2.32l0-.26.82-1.36-.31-2.81h-.92s.06.37-.28.37H82.42s-.17-.07-.17-.38l-4.35,0A7.72,7.72,0,0,0,76.21,30a9.83,9.83,0,0,0,0,2.12c.09.31.24.72.24.72s.11.73-.54.41A4.06,4.06,0,0,1,75.6,33h-.1a7.37,7.37,0,0,1-.57-5.71c-.22-.26-.37-.48-.37-.48H73.32Z" transform="translate(0 0)"/><path class="cls-3" d="M75.49,26.83h2.37a11.46,11.46,0,0,0-1.3,2,4.57,4.57,0,0,0-.4,2.37,3.27,3.27,0,0,0,.21,1.35c.07.19.22.58-.06.74-.11,0-.33,0-.71-.31h-.1S75,32.07,75,31.79s-.22-1.12-.22-1.12a10.33,10.33,0,0,1,0-2c0-.44.23-1.37.23-1.37l-.37-.48Z" transform="translate(0 0)"/><path class="cls-2" d="M86.75,10.41,85.69,14.6A1.17,1.17,0,0,0,87,15.75h9.26s.86,0,.86-.74V10.78s.13-1.16-.55-1.42c-.65,0-8.83,0-8.83,0A1.51,1.51,0,0,0,86.75,10.41Z" transform="translate(0 0)"/><path class="cls-2" d="M115.23,12.36l7.32.05s.27,0,.27.39.12.93-.44.88-7.56,0-7.56,0a1,1,0,0,1-.29-.72C114.53,12.49,114.59,12.32,115.23,12.36Z" transform="translate(0 0)"/><path class="cls-2" d="M125.34,12.41l7.31.05s.28,0,.28.4.11.93-.44.88-7.56,0-7.56,0a1,1,0,0,1-.3-.72C124.63,12.55,124.7,12.38,125.34,12.41Z" transform="translate(0 0)"/><polygon class="cls-2" points="112.81 14.47 113.97 14.48 113.97 16.39 112.84 16.39 112.81 14.47"/><polygon class="cls-2" points="115.21 14.48 116.37 14.49 116.37 16.41 115.24 16.41 115.21 14.48"/><polygon class="cls-2" points="117.65 14.53 118.81 14.54 118.81 16.45 117.68 16.45 117.65 14.53"/><polygon class="cls-2" points="120.05 14.54 121.21 14.55 121.21 16.46 120.08 16.46 120.05 14.54"/><polygon class="cls-2" points="122.52 14.53 123.68 14.54 123.68 16.45 122.55 16.45 122.52 14.53"/><polygon class="cls-2" points="124.92 14.54 126.08 14.55 126.08 16.46 124.95 16.46 124.92 14.54"/><polygon class="cls-2" points="127.31 14.59 128.46 14.6 128.46 16.52 127.34 16.52 127.31 14.59"/><polygon class="cls-2" points="129.71 14.61 130.87 14.62 130.87 16.53 129.74 16.53 129.71 14.61"/><polygon class="cls-2" points="132.16 14.59 133.32 14.6 133.32 16.52 132.19 16.52 132.16 14.59"/><polygon class="cls-2" points="134.56 14.61 135.72 14.62 135.72 16.53 134.59 16.53 134.56 14.61"/><polygon class="cls-2" points="112.76 17.61 113.92 17.63 113.92 19.54 112.79 19.54 112.76 17.61"/><polygon class="cls-2" points="115.16 17.63 116.32 17.64 116.32 19.55 115.19 19.55 115.16 17.63"/><polygon class="cls-2" points="117.6 17.67 118.76 17.68 118.76 19.6 117.63 19.6 117.6 17.67"/><polygon class="cls-2" points="120 17.69 121.16 17.7 121.16 19.61 120.03 19.61 120 17.69"/><polygon class="cls-2" points="122.47 17.67 123.63 17.68 123.63 19.6 122.5 19.6 122.47 17.67"/><polygon class="cls-2" points="124.87 17.69 126.03 17.7 126.03 19.61 124.9 19.61 124.87 17.69"/><polygon class="cls-2" points="127.25 17.74 128.41 17.75 128.41 19.66 127.29 19.66 127.25 17.74"/><polygon class="cls-2" points="129.66 17.75 130.82 17.77 130.82 19.68 129.69 19.68 129.66 17.75"/><polygon class="cls-2" points="132.11 17.74 133.27 17.75 133.27 19.66 132.14 19.66 132.11 17.74"/><polygon class="cls-2" points="134.51 17.75 135.67 17.77 135.67 19.68 134.54 19.68 134.51 17.75"/><path class="cls-2" d="M67.16,23.41A4.85,4.85,0,0,0,70.41,21c.34-.41,2.73-1.93,3.44,1.09a1.69,1.69,0,0,1-1.53,2.19l-5.1.09a.51.51,0,0,1-.34-.83A.94.94,0,0,1,67.16,23.41Z" transform="translate(0 0)"/><rect class="cls-2" x="55.36" y="9.92" width="31.88" height="0.72"/><rect class="cls-2" x="55.44" y="12.36" width="31.88" height="0.72"/><rect class="cls-2" x="112.77" y="16.96" width="22.93" height="0.23" transform="translate(0.13 -0.89) rotate(0.41)"/><polygon class="cls-2" points="1.99 16.92 29.39 16.79 51.34 10.57 51.34 11.96 29.43 18.1 2.03 18.1 1.99 16.92"/><polygon class="cls-2" points="106.49 7.42 106.49 8.6 106.81 8.93 127.04 9.1 123.43 7.49 106.49 7.42"/><path class="cls-2" d="M90.3,35c.51,2.57,1.75,8.72,2.35,11.26a1.12,1.12,0,0,0,1.41.82c1.38-.42,3.4-1.06,4.59-1.44a1.1,1.1,0,0,0,.74-1.33A91.64,91.64,0,0,1,97.3,34.14a1.12,1.12,0,0,0-1.25-1l-4.8.62A1.1,1.1,0,0,0,90.3,35Z" transform="translate(0 0)"/><path class="cls-2" d="M78.13,25.34h0a6.46,6.46,0,0,1,6-4.05L99,21.34l-1.15-1.47-15.22.06a7.27,7.27,0,0,0-6.16,4.24l-.07.17Z" transform="translate(0 0)"/></svg>