<?xml version="1.0" encoding="utf-8"?>
<!-- Generator: Adobe Illustrator 25.1.0, SVG Export Plug-In . SVG Version: 6.00 Build 0)  -->
<svg version="1.1" id="Calque_1" xmlns="http://www.w3.org/2000/svg" xmlns:xlink="http://www.w3.org/1999/xlink" x="0px" y="0px"
	 viewBox="0 0 109.6 43.1" style="enable-background:new 0 0 109.6 43.1;" xml:space="preserve">
<style type="text/css">
	.st0{fill:#1D1D1C;}
</style>
<path class="st0" d="M21.5,0C9.6,0,0,9.6,0,21.5s9.6,21.5,21.5,21.5s21.6-9.6,21.6-21.5c0,0,0,0,0,0C43.1,9.6,33.4,0,21.5,0z
	 M56,32.5c3.1,2.6,7.1,3.9,11.1,3.8c1.3,0,2.6-0.1,3.9-0.3c1.8-0.3,3.6-0.5,5.4-0.5c0.6,0,1.3,0.2,1.8,0.5v-7.4
	c-4.8,2.4-6.8,3-10.2,3c-3,0-5.3-0.8-6.8-2.4c-1.5-1.8-2.3-4-2.2-6.4c-0.1-2.7,0.9-5.3,2.8-7.2c1.8-1.6,4.3-2.5,6.7-2.3
	c3.5,0,6.3,0.9,8.3,2.8l2.4-6.7c-0.4,0.2-0.8,0.2-1.2,0.2c-0.4,0-0.9-0.1-1.3-0.1c-2.7-0.5-5.5-0.8-8.3-0.9c-4-0.1-8,1-11.3,3.3
	c-3.4,2.4-5.1,6.1-5.1,11C52.1,27.1,53.4,30.3,56,32.5L56,32.5z M81.8,35.7h26.7c-0.5-0.3-0.6-0.5-0.6-0.9c0-0.3,0.1-0.6,0.1-0.9
	l1.6-5.1c-1,0.8-2.3,1.4-3.6,1.6c-2.2,0.5-4.4,0.7-6.6,0.7H93l14.5-20.7c0.3-0.6,0.8-1.1,1.4-1.4H83.7c0.3,0.2,0.4,0.4,0.5,0.7
	c0,0.3-0.1,0.6-0.2,0.8l-1.9,5.7c2.1-1.9,4.4-2.8,7.8-2.8H98L83.2,34.5C82.6,35.4,82.5,35.5,81.8,35.7L81.8,35.7z M8.8,20.5
	l-0.6-7.7h24.6l0.5,6.4l-2.2,2.2l2.6,2.5l0.3,4.7l-4.7,4.6h-5.9l-0.5-6h2.6l0.3,3.5h2.5l3-3.1l-0.2-2.6l-3.6-3.6l3.1-3.2l-0.2-2.8
	H10.9l0.2,2.6h3.5l0.2,2.5L8.8,20.5z M25.4,25.7h-8.5L16.3,18h2.5l0.4,5.1h3.3L22.2,18h2.6L25.4,25.7L25.4,25.7z M38.6,21.5
	c0,2.2-0.4,4.5-1.3,6.5l0.8,0.3c-1.8,4.4-5.3,7.9-9.7,9.7l-0.3-0.8c-4.2,1.7-8.9,1.7-13.1,0l-0.3,0.8c-4.4-1.8-7.9-5.3-9.7-9.7
	l0.8-0.3C4,23.9,4,19.2,5.8,15l-0.8-0.3c1.8-4.4,5.3-7.9,9.7-9.7L15,5.8c4.2-1.7,8.9-1.7,13.1,0l0.3-0.8c4.4,1.8,7.9,5.3,9.7,9.7
	L37.3,15C38.2,17.1,38.6,19.3,38.6,21.5z"/>
</svg>
