<?xml version="1.0" encoding="utf-8"?>
<!-- Generator: Adobe Illustrator 25.1.0, SVG Export Plug-In . SVG Version: 6.00 Build 0)  -->
<svg version="1.1" id="Calque_1" xmlns="http://www.w3.org/2000/svg" xmlns:xlink="http://www.w3.org/1999/xlink" x="0px" y="0px"
	 viewBox="0 0 172.4 19.8" style="enable-background:new 0 0 172.4 19.8;" xml:space="preserve">
<style type="text/css">
	.st0{fill:#FFFFFF;}
</style>
<path class="st0" d="M75.7,10.1c-0.4-1.3,1.9-3.6,3-2.8C79.6,8,76.8,9.8,75.7,10.1 M73.8,15.8c-0.7-0.5-0.7-1.6,0.2-2.3
	c0.5,0.9,1.2,1.6,2,2.3C75.4,16.2,74.5,16.2,73.8,15.8 M75.3,6.7c-1.5,1.1-2.3,3-2.2,4.9c-1,0.7-3,2.5-2.2,4.6
	c0.4,1.3,1.8,1.6,3.3,1.6c1,0,2.1-0.2,3.1-0.6c0.5,0.5,0.6,1.9,0.5,2.7c0,0,0.1,0,0.1,0c0.8-0.6,1.4-1.6,0.9-3.6
	c0.7-0.7,2-2.4,1.7-2.7c-0.3-0.3-0.6,0-0.7,0.2c-0.5,0.5-1,0.9-1.6,1.2c-0.5-0.9-1.1-1.8-1.8-2.6c2.8-1.5,3.7-2.7,4.4-3.9
	C82.3,4.9,77.6,4.8,75.3,6.7"/>
<path class="st0" d="M129.7,15.7c-1.4-1.8,1.9-4.5,3.5-4.9c0.2,0.5,0.4,1,0.8,1.5C133.6,13.2,131,17.5,129.7,15.7 M105.1,9.6
	c1.5-0.9,1.8,0.1,0.9,1.1c-0.9,1.1-2,2-3.3,2.7C102.7,13.4,103.3,10.6,105.1,9.6 M116.3,5.4c2.1-1.9,4-1.4,2.6,0.3
	c-2,2.4-4.4,4.5-6.9,6.3C112.4,10,115.3,6.3,116.3,5.4 M125.6,5.4c2.1-1.9,4-1.4,2.6,0.3c-2,2.4-4.3,4.5-6.9,6.3
	C121.7,10,124.6,6.3,125.6,5.4 M144.1,2.4c-0.5,1.2-1.2,2.4-2,3.5c-1-0.3-1.9-0.7-2.8-1.2c-0.9,0.2-0.8,2.7-0.8,2.7
	c0.8,0.3,1.6,0.5,2.4,0.7c-0.6,0.9-1.4,1.6-2.4,2.2c-0.5,0.3-1.3,0.6-1.9,0.4c-0.4-0.5-0.5-1.1-1.2-1.3c-0.4-0.2-0.9,0.1-1.2-0.2
	c-0.2-0.5-0.4-1.3-1.2-1.4c-1.4-0.3-2.4,0.7-3.4,1.6c-0.7,0.8-1.4,1.7-1.9,2.7c-0.4,0.7-0.7,1.5-0.8,2.3c-2.4,1.7-6,3.4-6.1,0
	c0-0.1,0-0.2,0-0.4c0,0,7.6-4.9,9.7-8.9c1.4-2.6-0.6-3.7-3.6-2.4c-2.4,1-5.3,3.9-7,6.6c-0.8,1.3-1.3,2.8-1.3,4.4
	c-2.3,1.8-6.8,4.4-6.9,0.6c0-0.1,0-0.2,0-0.4c0-0.1,7.5-4.9,9.6-8.8c1.4-2.6-0.6-3.7-3.6-2.4c-2.4,1-5.3,3.9-7,6.6
	c-0.8,1.3-1.3,2.9-1.3,4.4c-2.2,1.7-6.1,3.9-6.7,1.4c1.4-0.9,2.7-1.9,3.8-3.1c2.8-2.7,1.3-4.4-0.8-4c-1.3,0.2-2.4,0.8-3.3,1.8
	c-1.3,1.3-2.1,3-2.2,4.8c0,0-1,0.4-2.1,0.8c0.6-1.8,0.1-3.8-1.4-5l0,0c-0.1-0.1-0.2-0.2-0.3-0.2s3.7-1.1,4.2-3.4
	c0.4-1.2,0.2-2.6-0.5-3.7c-0.6-0.8-1.4-1.5-2.3-1.9c-1.1-0.5-2.4-0.9-3.6-0.9H94c-2.4,0-4.7,0.9-5.8,2.8c-0.5,1-0.6,2.1-0.4,3.2
	c0.1,0.6,0.4,1.1,0.9,1.4c0.1,0,0.2,0,0.3-0.1c0.2-0.7,0.3-1.4,0.3-2.2c0-0.5,0.2-1,0.5-1.4c0.9-1.2,2.4-1.8,3.9-1.6
	c-1,2.9-2.9,5.7-4.3,8.4c-1.2,1.9-3.4,6.2-4.8,4.7c-0.2-0.1-0.2-0.4-0.2-0.6c0.1-0.6,1.2-1.4,1.3-1.9c0-0.1,0-0.2,0-0.2
	c-0.4-0.6-3,0.9-2.9,3l0,0c0.1,2.1,2.5,2.2,3.4,1.9c1.7-1,3.2-2.4,4.3-4c1.9-2.8,3.6-5.7,5-8.8l0.8-1.6c0.6,0.3,1,0.8,1.1,1.4
	c0,0.1,0,0.2,0.1,0.2c0.8,3-3.4,3.8-3.9,4.4c-0.1,0.3-0.1,0.7,0.1,1.1l0,0l0.1,0.2l0,0c0,0,0,0.1,0.1,0.1l0,0c0,0,0.1,0.1,0.1,0.1
	v0.1l0.1,0.1v0.1l0.1,0.1v0.1c0,0,0.1,0.1,0.1,0.1v0.1l0.1,0.2v0.1l0.1,0.1v0.1c0,0,0.1,0.1,0.1,0.1c0,0,0,0,0,0.1
	c0.7,1,1.2,2.2-0.5,3.7c-1.8,1.1-2.5-1.5-3.4-1.4c-0.4,0.3-0.2,3.1,1.9,3.4c0.2,0,0.3,0,0.5,0h0.3c1,0,2.1-0.1,3.1-0.4
	c1.4-0.3,2.7-0.8,3.9-1.4c0.6,1.1,1.8,2.3,4.7,1.3c1.6-0.4,3.1-1.1,4.5-2.1c0.3,1.2,1.3,3.6,5.1,2.3c1.5-0.5,2.9-1.3,4.2-2.4
	c0.2,1.2,1.3,3.7,5.1,2.4c1.2-0.4,2.3-1,3.3-1.7c0.2,1.2,1.2,2,2.4,2c3.6,0,4.9-3.3,5.8-4.9c0.8-0.2,1.5-0.5,2.3-0.9
	c0.7-0.3,1.1-0.5,1.8-0.9c-0.5,0.9-0.9,1.8-1.2,2.7c-0.3,0.9-0.4,2.5,0,3.1c0.4,0.6,1.1,0.9,1.8,0.8c1.9,0.1,5.2-3.5,4.4-4.2
	c-0.4-0.4-2.3,1.9-3.4,1.6c-0.6-0.3,1.9-4.7,3-6.8c0,0,4.1-0.2,4.5-1.4l-3.6-0.3C145.2,5.5,146.7,3.3,144.1,2.4"/>
<path class="st0" d="M158.5,9.9l-1,1.1l-1.6-1.6l1-1.1L158.5,9.9z M160.4,11.9l-1,1l-1.6-1.5l1-1.1L160.4,11.9z M160.5,7.8l-1.6-1.5
	C160.7,3.8,162.8,5.8,160.5,7.8 M162.4,9.6l-1.6-1.5C162.6,5.7,164.7,7.6,162.4,9.6 M157.4,2.4c-2.4,0.9-2.6,3.8-1.1,5.5l-2.9,3.1
	l0.8,0.3l3.5,3.2c0,0.2,0.2,0.6,0.3,0.8l2.9-2.9c1.8,1.6,0.1,3.4-1.5,3.4c-3.6,0-6.6-2.9-6.6-6.5c0-1.1,0.3-2.1,0.7-3.1
	c0.2-0.4,0-0.8-0.2-0.5c-3.6,6.4,3,12.4,8.3,10.5c1.9-0.7,3.4-4,1.3-5.9l1.6-1.8c1.4-1.4,0.3-3.1-1.4-3.1c0.3-1.3-2.1-2.4-2.9-1.5
	l-1.9,1.9c-0.8-1-1-2.8,1.7-3c2.4-0.2,8.4,3.4,5.5,10c-0.2,0.4,0.1,0.7,0.2,0.5C169.2,6.7,163.1,0.5,157.4,2.4"/>
<path class="st0" d="M167.1,11.1c-1,4.2-5.2,6.7-9.4,5.7c-4.2-1-6.7-5.2-5.7-9.4c1-4.2,5.2-6.7,9.4-5.7c0,0,0,0,0,0
	C165.6,2.7,168.2,6.9,167.1,11.1 M161.6,0.9c-4.6-1.1-9.2,1.7-10.4,6.3c-1.1,4.6,1.7,9.2,6.3,10.4c4.6,1.1,9.2-1.7,10.4-6.3
	C169,6.7,166.1,2,161.6,0.9"/>
<path class="st0" d="M170.7,16.3v-0.5h0.3c0.2,0,0.4,0,0.4,0.2c0,0.2-0.2,0.2-0.4,0.2H170.7z M171.6,16c0-0.3-0.2-0.4-0.6-0.4h-0.6
	v1.6h0.3v-0.7h0.2l0.4,0.7h0.3l-0.4-0.7C171.4,16.5,171.5,16.3,171.6,16C171.6,16.1,171.6,16,171.6,16"/>
<path class="st0" d="M170.9,17.5c-0.6,0-1.1-0.5-1.1-1.1c0,0,0-0.1,0-0.1c-0.1-0.6,0.4-1.1,1-1.2c0,0,0.1,0,0.1,0
	c0.7,0,1.2,0.5,1.2,1.2C172.1,17,171.6,17.5,170.9,17.5 M170.9,14.9c-0.8,0-1.4,0.6-1.5,1.4c0,0.8,0.6,1.4,1.4,1.5
	c0.8,0,1.4-0.6,1.5-1.4c0,0,0,0,0,0C172.4,15.6,171.8,15,170.9,14.9C171,14.9,171,14.9,170.9,14.9"/>
<path class="st0" d="M54.1,9.6c1.5-0.9,1.8,0.1,0.9,1.1c-0.9,1.1-2,2-3.3,2.7C51.7,13.4,52.4,10.6,54.1,9.6 M18.5,9.6
	c1.5-0.9,1.8,0.1,0.9,1.1c-0.9,1.1-2,2-3.3,2.7C16.1,13.4,16.8,10.6,18.5,9.6 M29.8,5.4c2.2-1.9,4-1.4,2.6,0.3
	c-2,2.4-4.4,4.5-6.9,6.3C25.9,9.9,28.8,6.3,29.8,5.4 M39.1,5.4c2.1-1.9,4-1.4,2.6,0.3c-2,2.4-4.3,4.5-6.9,6.3
	C35.1,9.9,38.1,6.3,39.1,5.4 M64.1,15.3c-0.5-0.6,1.5-3.5,2-5.3c-1.3-0.7-2.5-1.7-3.3-2.9c-0.6,0-1.5,1.5-1.9,2.3
	c-1,1.8-2.4,4.4-4.7,5.7c-0.3,0.1-0.5,0.3-0.8,0.4c-1.7,0.8-3.2,1-3.6-0.6c1.4-0.9,2.7-1.9,3.8-3.1c2.8-2.7,1.4-4.4-0.8-4
	c-1.3,0.2-2.4,0.8-3.3,1.8c-1.3,1.2-2.1,2.9-2.3,4.7c-0.3,0.2-0.7,0.3-1.2,0.5c-0.4,0.2-0.7,0.3-1.1,0.4c-0.6,0.2-1.2,0.3-1.8,0.3
	c-2.1-0.2,1.5-4.2,2-5.7s-0.4-1.6-1.2-2.4c-1.2,1.9-2.6,3.7-4,5.4C42.1,12.9,42,13,42,13.1c-2.1,1.8-7.3,5.1-7.4,1
	c0-0.1,0-0.2,0-0.4S42,8.9,44.1,5c1.4-2.6-0.6-3.7-3.6-2.4c-2.3,1-5.3,3.9-7,6.6c-0.8,1.3-1.3,2.8-1.3,4.4c-2.4,1.8-6.9,4.4-6.9,0.5
	v-0.2c0,0,7.5-4.9,9.6-8.8c1.4-2.6-0.6-3.7-3.6-2.4c-2.4,1-5.3,3.9-7,6.6c-0.8,1.3-1.3,2.9-1.3,4.4c-2.2,1.7-6,3.9-6.7,1.3
	c1.4-0.9,2.7-1.9,3.8-3.1c2.8-2.7,1.4-4.4-0.8-4c-1.3,0.2-2.4,0.8-3.3,1.8c-1.3,1.2-2.1,2.9-2.3,4.7c0,0-1.3,0.5-2.5,0.9l0.1-0.2
	c0.8-1.4,1.2-3.2-0.4-4.6C9.2,9.1,5,8,6,5.6c0.9-2.2,4.1-3.5,6.2-3.8c0.8-0.1,2.3-0.1,2.7,0.5c1,1.4-2.2,3.8-3.3,4.3
	c2.8,2.3,8.3-3.2,5.2-5.4c-0.6-0.3-1.1-0.6-1.8-0.8c-1.9-0.5-4-0.4-5.9,0.1C7.9,0.8,6.8,1.3,5.7,2C4.5,2.5,3.5,3.5,2.9,4.6
	c-1.8,3.5,3.7,4.8,5.9,7.5c0.7,1-0.2,2.1-1.4,2.7c-2,0.9-5.3,0.8-5.6,0c-0.6-1.5,1.5-1.9,1.1-2.4S1,12.1,0.3,14
	C-0.3,15,0,16.2,1,16.8c1.4,0.8,3,1.2,4.5,1c2.9,0.1,5.9-0.5,8.5-1.8c0.6,1.1,1.8,2.3,4.7,1.3c1.5-0.5,2.9-1.3,4.1-2.3
	c0.3,1.2,1.3,3.6,5.1,2.3c1.5-0.5,2.9-1.3,4.2-2.4c0.2,1.2,1.3,3.7,5.1,2.4c1.5-0.5,2.9-1.3,4.1-2.3c0.1,1.4,1,2.7,2.3,2.7
	c2.1-0.1,4.2-0.7,6.1-1.6c0.6,1.1,1.9,2.3,4.7,1.3c0.4-0.1,0.8-0.3,1.1-0.4l0,0h0.1c0.3-0.1,0.6-0.3,0.9-0.4l0.5-0.3
	c0.6-0.4,1.2-0.9,1.8-1.4c2-1.8,2.9-4.7,3.8-4.3c1.3,0.5-4,6.6,0.3,7.3c1.7,0,5.5-3.3,4.9-4.2C67.3,13,65.4,15.6,64.1,15.3"/>
<path class="st0" d="M53.6,7.7c0.7,0.2,1.5-0.2,1.8-0.9c0.3-0.7,0-1.6-0.7-1.9C54,4.7,53.2,5.1,53,5.8C52.6,6.5,52.9,7.4,53.6,7.7
	C53.6,7.7,53.6,7.7,53.6,7.7"/>
</svg>
