<?xml version="1.0" encoding="utf-8"?>
<!-- Generator: Adobe Illustrator 25.1.0, SVG Export Plug-In . SVG Version: 6.00 Build 0)  -->
<svg version="1.1" id="Calque_1" xmlns="http://www.w3.org/2000/svg" xmlns:xlink="http://www.w3.org/1999/xlink" x="0px" y="0px"
	 viewBox="0 0 197.8 69.9" style="enable-background:new 0 0 197.8 69.9;" xml:space="preserve">
<style type="text/css">
	.st0{fill:#FFFFFF;}
	.st1{fill:none;}
</style>
<path class="st0" d="M36.1,10.2c0.5,2.1-1.9,4.4-5.4,5.3c-3.5,0.9-6.7-0.1-7.2-2.2s1.9-4.4,5.4-5.3S35.6,8.2,36.1,10.2z"/>
<path class="st0" d="M17.4,59.8H10c0,0,11.6-7.3,12.5-12.5c1.4-8.4-12.6-7.7-12.8-17.1c-0.2-9.3,10.7-13.4,12.1-13.6
	c1.5-0.1,2.9-0.2,4.4-0.2L49.7,16l-3.1,5l-15.9,0.1c-0.7,0-7.3,1-8.9,7.2c-0.2,0.8-1.4,5.4,5.6,8.4s13.2,7.1,7.3,14.2
	c0,0-1.6,2.2-6.8,5.2s-6.4,3.7-6.4,3.7h-2.5c0,0,7.7-4.7,9.7-9.4c0.4-1,3.3-6.4-3.8-11.8c0,0,7.6,8.2,1,14.1S17.4,59.8,17.4,59.8z"
	/>
<path d="M48.5,15.1h2.1H48.5z"/>
<path class="st0" d="M48.7,13.6c-0.3,0.5-0.3,1-0.2,1.6h2.2c1.3-0.9,3.1-0.9,4.4-0.1h2.3v-0.9h7.1V13H64l-0.4-0.8l-0.3,1H49.9
	C49.5,13.2,49,13.4,48.7,13.6z"/>
<path class="st0" d="M55.8,17c0,1.1-1.3,1.9-2.8,1.9s-2.8-0.9-2.8-1.9s1.3-1.9,2.8-1.9S55.8,15.9,55.8,17z"/>
<path class="st0" d="M53.5,19.5c-1.5,0.8-3.3,0.5-4.4-0.7l-1.6,2.6L32,21.6v0.2L48.4,23l0.9-1.8c0,0,3.5-0.2,4.3-1.4L53.5,19.5z"/>
<path class="st0" d="M49.2,27.7l-5.9,28.8l-5.9-0.1l5.9-28.7H49.2z"/>
<path class="st0" d="M64.4,27.7c3.8,0,6.6,1.2,8.5,3.2s2.8,4.7,2.8,8.3c0,2.4-0.3,4.7-1,7c-0.6,2-1.6,3.9-3,5.5
	c-1.3,1.6-3,2.8-4.9,3.7c-2.1,0.9-4.4,1.3-6.8,1.3l-11.1-0.1l5.9-28.8L64.4,27.7z M60.3,51.3c1.4,0,2.8-0.3,4-0.8
	c1.1-0.6,2.1-1.4,2.9-2.4c0.8-1.1,1.4-2.3,1.8-3.5c0.4-1.4,0.7-2.8,0.7-4.3c0-1-0.1-1.9-0.3-2.8c-0.2-0.8-0.5-1.5-1-2.2
	c-0.5-0.6-1.1-1.1-1.8-1.5c-0.8-0.4-1.7-0.5-2.7-0.5h-4.4l-3.8,18L60.3,51.3z"/>
<path class="st0" d="M95.7,27.7l4.2,28.8h-5.8l-0.8-6.3l-10-0.1l-3.4,6.2h-6.2l16-28.5L95.7,27.7z M92.8,45.4l-1.2-11.3h-0.1
	l-5.9,11.3L92.8,45.4z"/>
<path class="st1" d="M158.8,42.4c0.2,0,0.5,0,0.7-0.1c2.9-0.4,5.6-3.1,6.7-6.5c0.1-0.3,0.2-0.6,0.2-0.9c0.1-0.3,0.1-0.6,0.1-0.9
	c0.4-3.4-1.3-6.1-4-6.5c-0.2,0-0.5,0-0.7,0c-0.3,0-0.5,0-0.8,0.1c-2.9,0.4-5.6,3.1-6.6,6.4c-0.1,0.3-0.2,0.6-0.2,0.9
	c-0.1,0.3-0.1,0.6-0.1,0.9c-0.4,3.4,1.3,6,4,6.5C158.3,42.3,158.5,42.4,158.8,42.4z"/>
<path class="st1" d="M161.4,25.8l1.5-7.1c-6.7,0.9-13.2,7.4-15.2,15.4h5.2C154.1,29.7,157.7,26.2,161.4,25.8z"/>
<path class="st1" d="M174.4,35.8h-6.7c-1.3,4.4-4.9,7.9-8.6,8.3l-1.5,7.2l0,0C164.9,51.4,172.3,44.5,174.4,35.8z"/>
<path class="st1" d="M164.4,18.5L164.4,18.5l-1.5,7.2c3.5,0.4,5.7,3.9,5.2,8.3h6.7C176.2,25.4,171.7,18.5,164.4,18.5z"/>
<path class="st1" d="M156.2,51.3l1.5-7.2c-3.5-0.4-5.7-3.9-5.1-8.3h-5.2C146,43.9,149.8,50.4,156.2,51.3z"/>
<path class="st1" d="M145.8,35.8h-5.2c-2.3,12.8,3.6,23.3,13.7,24.9l1.6-7.6C148.6,52.2,144.3,44.9,145.8,35.8z"/>
<path class="st1" d="M167.5,9c-0.4,0-0.8,0-1.2,0l-1.6,7.7l0,0c8.1,0,13.1,7.7,11.5,17.4h7.5C186.3,20.1,179.1,9,167.5,9z"/>
<path class="st1" d="M157.3,53.2L157.3,53.2l-1.6,7.7c0.4,0,0.8,0,1.1,0c11.6,0,23.4-11.2,26.6-25.1H176
	C173.6,45.5,165.4,53.2,157.3,53.2z"/>
<path class="st1" d="M163.3,16.8l1.6-7.6c-10.7,1.6-20.9,12-23.9,24.8h5.3C148.4,25,155.7,17.7,163.3,16.8z"/>
<path class="st0" d="M156.2,63.6c-0.2,0-0.4,0.1-0.6,0.2c-0.2,0.1-0.3,0.2-0.4,0.4c-0.2,0.4-0.2,0.8,0,1.1c0.1,0.2,0.2,0.3,0.4,0.4
	c0.3,0.2,0.8,0.2,1.1,0c0.2-0.1,0.3-0.2,0.4-0.4c0.1-0.2,0.1-0.4,0.1-0.6c0-0.3-0.1-0.6-0.3-0.8C156.7,63.7,156.5,63.6,156.2,63.6z"
	/>
<path class="st0" d="M185.3,34c2.7-14.9-5-26.9-17.4-26.9c-0.4,0-0.8,0-1.2,0l1.5-7.1h-1.5l-1.5,7.3c-11.5,1.6-22.6,12.9-25.8,26.7
	H136l0.5-6.6h-6.6l-9.2,15.8v0.1l-2.5-15.9h-6.5l-10.5,29.3h6.8l5.4-16.5h0.5l2.7,16.4h2.7l9.6-16.5l0.3,0.1l-1.4,16.4h6.7l1.5-20.8
	h3.2c-2.1,11.6,2.1,21.4,9.9,25.2H8.7L0,67.5h152.8l-0.5,2.4h1.5l0.5-2.4h21.6l4-6.4h-15.3c9.4-3.8,17.6-13.6,20.4-25.2h3.3l0.4-1.8
	L185.3,34z M164.9,9.2l-1.6,7.6c-7.6,0.9-14.9,8.2-17.1,17.2h-5.3C143.9,21.2,154.2,10.7,164.9,9.2z M152.5,35.8
	c-0.6,4.4,1.6,7.8,5.1,8.3l-1.5,7.2c-6.4-0.9-10.2-7.4-8.9-15.4H152.5z M147.7,34c2-8,8.5-14.5,15.2-15.4l-1.5,7.1
	c-3.7,0.4-7.3,3.9-8.5,8.3H147.7z M154,35.8c0-0.3,0.1-0.6,0.1-0.9c0.1-0.3,0.1-0.6,0.2-0.9c1-3.4,3.8-6,6.6-6.5
	c0.3,0,0.5-0.1,0.8-0.1c0.2,0,0.5,0,0.7,0c2.7,0.4,4.4,3.1,4,6.5c0,0.3-0.1,0.6-0.1,0.9c-0.1,0.3-0.1,0.6-0.2,0.9
	c-1,3.4-3.8,6.1-6.7,6.5c-0.2,0-0.5,0.1-0.7,0.1c-0.3,0-0.5,0-0.8-0.1C155.3,41.9,153.7,39.2,154,35.8z M159.1,44.1
	c3.7-0.4,7.3-3.9,8.6-8.3h6.7c-2.2,8.7-9.5,15.5-16.8,15.5l0,0L159.1,44.1z M168.1,34c0.6-4.4-1.6-7.9-5.2-8.3l1.5-7.2l0,0
	c7.2,0,11.8,6.9,10.4,15.5H168.1z M154.2,60.7c-10-1.5-15.9-12-13.7-24.9h5.2c-1.5,9,2.8,16.4,10,17.3L154.2,60.7z M157.8,66.3h-0.6
	v-0.4c-0.1,0.1-0.3,0.2-0.4,0.3c-0.2,0.1-0.5,0.2-0.7,0.2c-0.4,0-0.9-0.2-1.2-0.5c-0.3-0.3-0.5-0.8-0.5-1.2c0-0.4,0.2-0.9,0.5-1.2
	c0.3-0.3,0.7-0.5,1.2-0.5c0.2,0,0.5,0.1,0.7,0.2c0.1,0.1,0.3,0.2,0.4,0.3v-1.5h0.6L157.8,66.3z M159.8,65.5c0.2,0.2,0.5,0.3,0.7,0.3
	c0.1,0,0.3,0,0.4-0.1c0.1,0,0.2-0.1,0.3-0.2c0.1-0.1,0.2-0.3,0.3-0.4v-0.1l0.5,0.2v0.1c-0.1,0.2-0.2,0.4-0.4,0.5
	c-0.1,0.1-0.3,0.2-0.5,0.3c-0.2,0.1-0.4,0.1-0.6,0.1c-0.5,0-0.9-0.2-1.2-0.5c-0.3-0.3-0.4-0.7-0.4-1.2c0-0.4,0.1-0.8,0.4-1.1
	c0.3-0.4,0.8-0.6,1.3-0.6c0.5,0,1,0.2,1.3,0.6c0.2,0.3,0.4,0.7,0.4,1.1v0.1h-2.7C159.5,65.1,159.6,65.3,159.8,65.5L159.8,65.5z
	 M172.3,66.3h-0.6v-3.2h0.6V66.3z M174.5,65.2c-0.1-0.1-0.3-0.2-0.5-0.3c-0.2-0.1-0.4-0.3-0.6-0.4c-0.2-0.4-0.2-0.8,0.1-1.2
	c0.2-0.2,0.4-0.3,0.6-0.2c0.3,0,0.7,0.2,0.9,0.4l0.1,0.1l-0.4,0.4l-0.1-0.1c-0.3-0.3-0.6-0.4-0.8-0.2c-0.1,0.1-0.1,0.1-0.1,0.2
	c0,0.1,0,0.2,0.1,0.2c0.1,0.1,0.3,0.2,0.4,0.3c0.2,0.1,0.5,0.3,0.6,0.4c0.1,0.2,0.2,0.3,0.2,0.5c0,0.3-0.1,0.5-0.3,0.7
	c-0.2,0.2-0.5,0.3-0.7,0.3c-0.2,0-0.4,0-0.5-0.1c-0.2-0.1-0.3-0.2-0.4-0.3l0,0l0.4-0.4l0.1,0.1c0.1,0.2,0.3,0.3,0.6,0.3
	c0.1,0,0.2,0,0.3-0.1c0.1-0.1,0.1-0.2,0.1-0.3C174.6,65.3,174.6,65.2,174.5,65.2L174.5,65.2z M171.7,62c0.2-0.2,0.4-0.2,0.6,0
	c0,0,0,0,0,0c0.2,0.2,0.2,0.4,0,0.6c-0.2,0.2-0.4,0.2-0.6,0C171.5,62.4,171.5,62.2,171.7,62z M167.7,63.1h0.6v1.5
	c0,0.2,0,0.5,0.1,0.7c0,0.2,0.1,0.3,0.3,0.4c0.1,0.1,0.3,0.2,0.5,0.2c0.2,0,0.4,0,0.5-0.1c0.1-0.1,0.2-0.2,0.3-0.4
	c0.1-0.2,0.1-0.5,0.1-0.7v-1.5h0.6v1.6c0,0.3,0,0.7-0.1,1c-0.1,0.2-0.3,0.4-0.5,0.5c-0.5,0.3-1.1,0.3-1.6,0
	c-0.2-0.1-0.4-0.3-0.5-0.5c-0.1-0.3-0.2-0.7-0.1-1V63.1z M165,63c0.4,0,0.9,0.2,1.2,0.5c0.3,0.3,0.5,0.7,0.5,1.2
	c0,0.4-0.2,0.9-0.5,1.2c-0.3,0.3-0.7,0.5-1.2,0.5c-0.2,0-0.5-0.1-0.7-0.2c-0.2-0.1-0.3-0.2-0.4-0.3v1.5h-0.6v-4.3h0.6v0.4
	c0.1-0.1,0.2-0.2,0.4-0.3C164.5,63.1,164.8,63,165,63z M156.9,60.9c-0.4,0-0.8,0-1.1,0l1.6-7.7l0,0c8.1,0,16.3-7.7,18.6-17.3h7.5
	C180.2,49.8,168.4,60.9,156.9,60.9L156.9,60.9z M183.9,34h-7.5c1.6-9.6-3.4-17.4-11.5-17.4l0,0l1.5-7.7c0.4,0,0.8,0,1.2,0
	C179.1,9,186.3,20.1,183.9,34L183.9,34z"/>
<path class="st0" d="M161,63.7c-0.1-0.1-0.3-0.1-0.5-0.1c-0.3,0-0.5,0.1-0.7,0.3c-0.1,0.1-0.2,0.3-0.3,0.5h2c0-0.1-0.1-0.2-0.2-0.3
	C161.3,63.8,161.1,63.7,161,63.7z"/>
<path class="st0" d="M163.9,64.7c0,0.2,0,0.4,0.1,0.6c0.1,0.2,0.2,0.3,0.4,0.4c0.3,0.2,0.8,0.2,1.1,0c0.2-0.1,0.3-0.2,0.4-0.4
	c0.2-0.4,0.2-0.8,0-1.1c-0.1-0.2-0.2-0.3-0.4-0.4c-0.2-0.1-0.4-0.2-0.6-0.2c-0.3,0-0.6,0.1-0.8,0.3C164,64.1,163.8,64.4,163.9,64.7z
	"/>
<path class="st0" d="M181.3,61.1h1.3v6.6h-0.6v-5.9h-1L181.3,61.1z"/>
<path class="st0" d="M182.7,67.7h-0.8v-5.9h-1.1l0.5-0.8h1.4L182.7,67.7z M182,67.6h0.5v-6.4h-1.1l-0.3,0.5h1L182,67.6z"/>
<path class="st0" d="M186.4,67.8l-0.5-0.3l1.8-2.7c-0.2,0.1-0.4,0.1-0.7,0.1c-0.5,0-1-0.2-1.3-0.6c-0.6-0.7-0.7-1.6-0.3-2.4
	c0.2-0.3,0.4-0.6,0.8-0.7c0.3-0.2,0.6-0.3,1-0.3c0.3,0,0.7,0.1,1,0.3c0.3,0.2,0.5,0.4,0.7,0.7c0.2,0.3,0.3,0.7,0.3,1
	c0,0.3-0.1,0.6-0.2,0.8c-0.1,0.4-0.3,0.7-0.6,1.1L186.4,67.8z M187.1,64.3c0.4,0,0.7-0.1,1-0.4c0.5-0.6,0.5-1.4,0-2
	c-0.6-0.5-1.4-0.5-2,0c-0.5,0.5-0.5,1.4,0,1.9C186.4,64.2,186.7,64.3,187.1,64.3z"/>
<path class="st0" d="M186.4,67.9l-0.7-0.4l1.7-2.6c-0.1,0-0.3,0.1-0.4,0.1c-0.5,0-1-0.2-1.4-0.6c-0.4-0.4-0.6-0.9-0.6-1.4
	c0-0.4,0.1-0.7,0.3-1.1c0.2-0.3,0.5-0.6,0.8-0.8c0.3-0.2,0.7-0.3,1.1-0.3c0.4,0,0.7,0.1,1.1,0.3c0.3,0.2,0.6,0.4,0.8,0.8
	c0.2,0.3,0.3,0.6,0.3,1c0,0.3-0.1,0.6-0.2,0.9c-0.2,0.4-0.4,0.7-0.6,1.1L186.4,67.9z M186,67.4l0.4,0.2l1.9-2.9
	c0.2-0.3,0.4-0.6,0.6-1c0.1-0.3,0.1-0.5,0.1-0.8c0-0.3-0.1-0.7-0.2-1c-0.2-0.3-0.4-0.5-0.7-0.7c-0.6-0.3-1.3-0.3-1.9,0
	c-0.3,0.2-0.5,0.4-0.7,0.7c-0.2,0.3-0.3,0.7-0.2,1c0,0.5,0.2,1,0.5,1.3c0.3,0.4,0.8,0.5,1.3,0.5c0.2,0,0.4,0,0.6-0.1l0.2-0.1
	L186,67.4z M187.1,64.4c-0.8,0-1.5-0.7-1.5-1.5c0-0.8,0.7-1.5,1.5-1.5c0.8,0,1.5,0.7,1.5,1.5C188.6,63.8,187.9,64.4,187.1,64.4
	C187.1,64.4,187.1,64.4,187.1,64.4z M187.1,61.7c-0.3,0-0.7,0.1-0.9,0.4c-0.5,0.5-0.5,1.3,0,1.8c0,0,0,0,0,0
	c0.5,0.5,1.3,0.5,1.8-0.1s0.5-1.3-0.1-1.8l0,0C187.8,61.8,187.4,61.7,187.1,61.7L187.1,61.7z"/>
<path class="st0" d="M193.2,64.1c0.4,0.2,0.7,0.4,0.9,0.8c0.2,0.3,0.3,0.6,0.3,1c0,0.5-0.2,1-0.5,1.3c-0.4,0.5-1.1,0.7-1.7,0.7
	c-0.6,0-1.2-0.2-1.6-0.6c-0.4-0.4-0.6-0.9-0.6-1.4c0-0.4,0.1-0.7,0.3-1c0.3-0.3,0.6-0.6,1-0.8c-0.3-0.1-0.5-0.3-0.7-0.6
	c-0.2-0.2-0.2-0.5-0.2-0.8c0-0.3,0.1-0.6,0.2-0.8c0.2-0.3,0.4-0.5,0.7-0.6c0.3-0.2,0.7-0.2,1-0.2c0.3,0,0.7,0.1,0.9,0.2
	c0.3,0.2,0.5,0.4,0.7,0.6c0.2,0.3,0.2,0.5,0.2,0.8c0,0.3-0.1,0.6-0.2,0.8C193.8,63.7,193.5,63.9,193.2,64.1z M192.3,64.4
	c-0.4,0-0.8,0.1-1.1,0.4c-0.3,0.3-0.4,0.6-0.5,1c0,0.5,0.3,1,0.8,1.2c0.3,0.1,0.5,0.2,0.8,0.2c0.4,0,0.8-0.1,1.1-0.4
	c0.3-0.3,0.4-0.6,0.4-1c0-0.4-0.2-0.7-0.4-1C193,64.5,192.7,64.4,192.3,64.4z M192.3,61.6c-0.3,0-0.6,0.1-0.9,0.3
	c-0.2,0.2-0.4,0.5-0.4,0.8c0,0.3,0.1,0.6,0.4,0.8c0.2,0.2,0.6,0.4,0.9,0.3c0.2,0,0.4-0.1,0.6-0.2c0.2-0.1,0.4-0.3,0.5-0.4
	c0.1-0.2,0.2-0.4,0.2-0.6c0-0.3-0.1-0.5-0.3-0.7C192.9,61.7,192.6,61.5,192.3,61.6L192.3,61.6z"/>
<path class="st0" d="M192.2,67.9c-0.6,0-1.3-0.2-1.7-0.7c-0.4-0.4-0.6-0.9-0.6-1.4c0-0.4,0.1-0.7,0.3-1c0.2-0.3,0.5-0.6,0.9-0.7
	c-0.2-0.1-0.5-0.3-0.6-0.6c-0.2-0.2-0.3-0.5-0.2-0.8c0-0.3,0.1-0.6,0.3-0.9c0.2-0.3,0.4-0.5,0.7-0.7c0.6-0.3,1.4-0.3,2,0
	c0.3,0.2,0.5,0.4,0.7,0.7c0.2,0.3,0.3,0.6,0.3,0.9c0,0.3-0.1,0.6-0.2,0.8c-0.2,0.2-0.4,0.4-0.6,0.5c0.3,0.2,0.6,0.4,0.8,0.7
	c0.2,0.3,0.3,0.6,0.3,1c0,0.5-0.2,1-0.5,1.4C193.6,67.7,192.9,67.9,192.2,67.9z M192.3,61c-0.3,0-0.7,0.1-0.9,0.2
	c-0.3,0.1-0.5,0.3-0.7,0.6c-0.2,0.2-0.2,0.5-0.2,0.8c0,0.3,0.1,0.5,0.2,0.8c0.2,0.3,0.4,0.5,0.7,0.6l0.2,0.1l-0.2,0.1
	c-0.4,0.2-0.7,0.4-1,0.8c-0.2,0.3-0.3,0.6-0.3,0.9c0,0.5,0.2,1,0.5,1.3c0.4,0.4,1,0.6,1.6,0.6c0.6,0,1.2-0.2,1.7-0.7
	c0.3-0.4,0.5-0.8,0.5-1.3c0-0.3-0.1-0.6-0.3-0.9c-0.2-0.3-0.6-0.6-0.9-0.7l-0.1-0.1l0.1-0.1c0.3-0.1,0.5-0.3,0.7-0.6
	c0.1-0.2,0.2-0.5,0.2-0.7c0-0.3-0.1-0.6-0.2-0.8c-0.2-0.3-0.4-0.5-0.6-0.6C192.9,61.1,192.6,61,192.3,61L192.3,61z M192.3,67.3
	c-0.3,0-0.6-0.1-0.9-0.2c-0.2-0.1-0.4-0.3-0.6-0.5c-0.1-0.2-0.2-0.5-0.2-0.7c0-0.4,0.2-0.8,0.5-1.1c0.7-0.6,1.7-0.6,2.3,0
	c0.6,0.5,0.6,1.4,0.1,2c0,0-0.1,0.1-0.1,0.1C193.1,67.2,192.7,67.3,192.3,67.3L192.3,67.3z M192.3,64.5c-0.4,0-0.8,0.1-1.1,0.4
	c-0.3,0.3-0.4,0.6-0.4,1c0,0.2,0.1,0.5,0.2,0.6c0.1,0.2,0.3,0.4,0.5,0.5c0.2,0.1,0.5,0.2,0.8,0.2c0.4,0,0.8-0.1,1.1-0.4
	c0.3-0.2,0.4-0.6,0.4-0.9c0-0.3-0.2-0.7-0.4-0.9C193,64.6,192.7,64.5,192.3,64.5z M192.3,63.9c-0.4,0-0.7-0.1-1-0.4
	c-0.2-0.2-0.4-0.5-0.4-0.8c0-0.3,0.1-0.6,0.4-0.8c0.3-0.2,0.6-0.4,0.9-0.3c0.4,0,0.7,0.1,1,0.4c0.2,0.2,0.3,0.5,0.4,0.8
	c0,0.2-0.1,0.4-0.2,0.6c-0.1,0.2-0.3,0.4-0.5,0.5C192.7,63.8,192.5,63.9,192.3,63.9L192.3,63.9z M192.3,61.7c-0.3,0-0.6,0.1-0.8,0.3
	c-0.2,0.2-0.3,0.4-0.3,0.7c0,0.3,0.1,0.5,0.4,0.7c0.2,0.2,0.5,0.3,0.8,0.3c0.2,0,0.4-0.1,0.6-0.2c0.2-0.1,0.3-0.2,0.4-0.4
	c0.1-0.2,0.1-0.3,0.1-0.5c0-0.3-0.1-0.5-0.3-0.7C192.9,61.7,192.6,61.6,192.3,61.7L192.3,61.7z"/>
<path class="st0" d="M196.4,61.1h1.3v6.6h-0.6v-5.9h-1L196.4,61.1z"/>
<path class="st0" d="M197.8,67.7H197v-5.9h-1.1l0.5-0.8h1.4L197.8,67.7z M197.2,67.6h0.5v-6.4h-1.2l-0.3,0.5h1L197.2,67.6z"/>
</svg>
