<?xml version="1.0" encoding="utf-8"?>
<!-- Generator: Adobe Illustrator 25.1.0, SVG Export Plug-In . SVG Version: 6.00 Build 0)  -->
<svg version="1.1" id="Calque_1" xmlns="http://www.w3.org/2000/svg" xmlns:xlink="http://www.w3.org/1999/xlink" x="0px" y="0px"
	 viewBox="0 0 160 42.3" style="enable-background:new 0 0 160 42.3;" xml:space="preserve">
<style type="text/css">
	.st0{fill-rule:evenodd;clip-rule:evenodd;fill:#FFFFFF;}
	.st1{fill:#FFFFFF;}
	.st2{fill-rule:evenodd;clip-rule:evenodd;fill:#1D1D1C;}
</style>
<path class="st0" d="M135.9,21.5c0.1-0.4-0.5-0.7-0.9-0.7h-3.1c0.2,0.2,1.5,0.1,1.6,0.3s-0.8,0.2-0.8,0.3s1.1,0.2,1.1,0.4
	s-2.6,0.2-2.9,0.5h3.8C135.2,22.2,135.7,21.9,135.9,21.5L135.9,21.5z"/>
<path class="st0" d="M133.6,39.3l-0.6,2.9h0.8l0.6-2.7c4.4,1,8.8-0.3,13-4.2c3.8-3.6,6.5-8.2,7.7-13.3h4.7l0.4-1.4h-4.7
	c0.7-4.3,0.5-8.4-1.4-12.1c-2.4-4.8-6.8-6.5-11.9-5.3l0.7-3.3H142l-0.8,3.6c-3.7,1.3-6.8,3.6-9.1,6.8c-2.4,3-4.1,6.5-5,10.2h0.5
	c0.9-3.6,2.5-6.9,4.8-9.7c2.2-2.9,5.1-5,8.5-6.2l-1.2,5.4c-2.2,0.6-4.2,1.9-5.7,3.7c-1.7,1.9-2.9,4.3-3.6,6.8h0.6
	c1.3-4.5,4.6-8.6,8.5-9.4l-1.2,5.4c-1.9,0.6-3.3,2.1-3.9,4h0.8c0.6-1.5,1.9-3,3.5-3c2.2,0,2.4,2.5,2.1,4c-0.4,1.8-2,4.1-3.9,3.9
	c-1.6-0.1-2.1-1.6-2.1-2.9h-0.7c-0.1,1.7,0.5,3.3,2.2,3.9l-1.1,5.4c-2-0.5-3.6-2.1-4.1-4.1c-0.5-1.7-0.7-3.4-0.4-5.2h-0.6
	c-0.7,4.3,0.5,9,4.8,10.4l-1.1,5.4c-3-1.1-5.1-3.4-6.2-7.2c-0.8-2.8-0.9-5.8-0.4-8.7h-0.5C125.5,28.9,127,36.6,133.6,39.3
	L133.6,39.3z M138,20.9c0.6,0,0.5,1.1-0.2,1.1S137.3,20.9,138,20.9z M140.5,10.9l-1.2,5.5c1.8,0.1,2.9,1.9,2.6,4.4h5
	c0.5-2.2,0.2-4.6-0.8-6.6C145.2,12,142.9,10.6,140.5,10.9L140.5,10.9z M141.6,22h5c-0.6,2.7-2,5.2-4,7.1c-2.2,2.1-4.4,3-6.6,2.8
	l1.1-5.5C139.3,26.1,140.9,24.4,141.6,22L141.6,22z M141.8,4.4l-1.2,5.5c2.6-0.5,5.2,0.9,6.3,3.3c1.2,2.4,1.5,5.1,0.9,7.6h6
	c0.8-4.6,0.3-8.5-1.4-11.6C150,4.8,146.4,3.5,141.8,4.4L141.8,4.4z M153.6,22.1l-6,0c-0.7,3-2.3,5.8-4.5,8c-2.4,2.3-4.9,3.3-7.4,3
	l-1.2,5.5c4.2,0.9,8.6-0.5,12.8-4.7C150.4,30.5,152.6,26.5,153.6,22.1L153.6,22.1z"/>
<path class="st1" d="M116.5,26.4h-4.3l-1,4.9l0.5,1.5h-6.5l2.2-10.7l5.6,0.1l-0.4,1.8h4.3l0.4-1.7l5.6,0.1l-1.9,9l0.6,1.5h-7.4
	l1.2-1.5L116.5,26.4L116.5,26.4z M107.7,20.9l0.6-3h6.5l-1.2,1.5l-0.3,1.4C113.4,20.8,107.7,20.9,107.7,20.9z M117.7,20.7l0.3-1.3
	l-0.5-1.5h7.4l-1.2,1.5l-0.3,1.2C123.4,20.6,117.7,20.7,117.7,20.7z M49.8,28.6l1.4-6.5c0.3-1.3,0.5-1.8,1.8-1.7h6.9l1.3,0.9
	l0.7-3.3H50.3c-2.1,0-4,0.4-4.6,3.1l-1.8,8.7c-0.3,1.5,0.1,2.4,1.2,2.8s5.2,0.3,6.5,0.2c1.5,0,2.6-0.1,3-1.6
	c-0.1,0.5-0.1,1.1-0.1,1.6h5.1L59,31.3l1.5-7.4h-8.8l-0.5,2.4h3.2l-0.5,2.6c-0.2,1-0.4,1.5-1.5,1.5C49.9,30.3,49.3,30.6,49.8,28.6z
	 M14.6,26.4l4.7-8.5h7.9l-1.2,1.5l-2.5,11.9l0.5,1.5h-7.4l1.2-1.5l2.1-9.8l-6.3,11.3h-4L8.3,21.5l-2.1,9.8l0.5,1.5H2.6l1.2-1.5
	l2.5-11.9l-0.6-1.5h7.9L14.6,26.4z M35.5,26.4l-0.9-4.6l-3,4.6H35.5z M36.9,32.8h-1.5l1.2-1.5L36,28.8h-6.1l-1.7,2.5l0.5,1.5h-4.3
	l9.1-13.4L33,17.9h7.1l2.8,14.9H36.9z M67.2,20.4H64l-1.7,0.9l0.7-3.3h14.9l-0.7,3.3l-1.3-0.9h-3.1l-0.2,1l-5.7,0.1L67.2,20.4
	L67.2,20.4z M72.6,21.6l-2,9.7l0.6,1.5h-7.4l1.2-1.5l2.1-9.8C66.9,21.5,72.5,21.6,72.6,21.6z M84.3,20.4l-0.2,0.9l-5.7,0.1l0.7-3.4
	h13.3l-0.7,3.2h-0.2l-1.1-0.7L84.3,20.4z M84,21.8L83.6,24h4.9l1.7-0.9l-0.9,4.2l-1.3-0.9H83l-0.8,3.9h6.1l1.7-0.9l-0.7,3.3H75.2
	l1.2-1.5l2-9.6L84,21.8z M107.1,17.9l-0.6,3h-0.6l-0.8-0.5c0,0-5.1-0.1-5.6,0.1c-0.3,0.1-0.5,0.3-0.7,0.5l-5.7,0.1
	c0.4-1.2,1.2-2.2,2.3-2.7c0.6-0.3,1.4-0.5,2.1-0.5L107.1,17.9z M98.5,22l-0.1,0.2l-1.3,6.3c-0.4,1.7,0.4,1.8,1.6,1.8h4.3l1.7-0.9
	l-0.7,3.3h-9.6c-2,0-3.2-1.2-3.1-3.1c0.1-1.2,1.2-6,1.5-7.5l0.1-0.3L98.5,22L98.5,22z"/>
<path class="st0" d="M132,40.1c-2.5-1-4.6-3-5.7-5.4H2.1L0,42.2h131.5L132,40.1L132,40.1z M53.5,41c0.1-0.1,0.1-0.2,0.1-0.4
	c0-0.1,0-0.3-0.1-0.4l-0.1-0.5h-2.3l-0.5,0.8c-0.1,0.1-0.1,0.2-0.2,0.4c0,0,0,0.1,0,0.1h-1.3c0.2-0.2,0.4-0.4,0.6-0.7l2.6-3.9
	c-0.1-0.1-0.2-0.2-0.4-0.3h2.6l0.8,4.1c0,0.3,0.2,0.6,0.3,0.8L53.5,41z M65.1,36.6l-0.8,3.9l0.2,0.5H62l0.4-0.5l0.7-3.2L61,41h-1.3
	l-0.5-3.7l-0.7,3.2l0.2,0.5h-1.4l0.4-0.5l0.8-3.9l-0.2-0.5H61l0.3,2.8l1.5-2.8h2.6L65.1,36.6z M74.5,36.6l-0.8,3.9l0.2,0.5h-2.4
	l0.4-0.5l0.7-3.2L70.4,41h-1.3l-0.5-3.7L68,40.5l0.2,0.5h-1.4l0.4-0.5l0.9-3.9l-0.2-0.5h2.6l0.3,2.8l1.6-2.8h2.6L74.5,36.6z
	 M82.3,36.9l-0.8,3c-0.1,0.5-0.2,0.7-0.4,0.8C81,40.9,80.8,41,80.6,41h-0.3h-2.8H77c-0.4,0-0.7-0.4-0.7-0.8c0-0.2,0-0.3,0.1-0.5
	l0.8-2.9c0-0.1,0-0.3,0.1-0.4c0-0.1,0-0.2-0.1-0.3h2.2C79.1,36.4,79,36.7,79,37l-0.7,2.8c0,0.1,0,0.1,0,0.2c0,0.2,0.1,0.3,0.5,0.3
	h1.5c0.1,0,0.3,0,0.4-0.1c0.1-0.1,0.1-0.1,0.2-0.4l0.8-2.9c0-0.1,0-0.3,0.1-0.4c0-0.1,0-0.2-0.1-0.3h1.1
	C82.5,36.4,82.3,36.6,82.3,36.9L82.3,36.9z M89.7,36.9l-1,4.1h-2.1l-1.3-3.7l-0.8,3.1c0,0.1,0,0.3,0,0.4c0,0.1,0,0.2,0,0.3h-1.1
	c0.2-0.3,0.3-0.5,0.4-0.8l0.9-3.4c0-0.1,0-0.3,0-0.4c0-0.1,0-0.2,0-0.2h2.2l1.3,3.8l0.8-3.2c0-0.1,0-0.3,0-0.4c0-0.1,0-0.2,0-0.2
	h1.1C89.9,36.3,89.8,36.6,89.7,36.9L89.7,36.9z M94.4,36.9l-0.9,3.4c0,0.1,0,0.3,0,0.4c0,0.1,0,0.2,0,0.3h-2.2
	c0.2-0.3,0.3-0.5,0.4-0.8l0.9-3.4c0-0.1,0-0.3,0-0.4c0-0.1,0-0.2,0-0.2h2.2C94.6,36.3,94.5,36.6,94.4,36.9L94.4,36.9z M101,37.2
	l-0.4-0.3h-1l-0.1,0.3l-0.7,3.2L99,41h-2.4l0.4-0.5l0.7-3.3l0,0l0.1-0.3h-1l-0.5,0.3l0.2-1.1h4.8L101,37.2z M105,36.9l-0.9,3.4
	c0,0.1,0,0.3-0.1,0.4c0,0.1,0,0.2,0.1,0.3H102c0.2-0.3,0.3-0.5,0.4-0.8l0.9-3.4c0-0.1,0-0.3,0-0.4c0-0.1,0-0.2,0-0.2h2.2
	C105.2,36.3,105.1,36.6,105,36.9L105,36.9z M112.4,37.5l-0.6,2.4c-0.2,0.8-0.6,1.1-1.5,1.1h-2.5c-0.6,0-0.8,0-1-0.2
	c-0.2-0.2-0.3-0.4-0.3-0.7c0-0.2,0-0.3,0.1-0.5l0.6-2.4c0.2-0.8,0.6-1.1,1.6-1.1h2.4c0.5,0,0.8,0,1,0.2c0.2,0.2,0.3,0.5,0.3,0.8
	C112.5,37.2,112.5,37.3,112.4,37.5L112.4,37.5z M120.2,36.9l-1,4.1h-2.1l-1.3-3.7l-0.8,3c0,0.1,0,0.3,0,0.4c0,0.1,0,0.2,0,0.3h-1.1
	c0.2-0.3,0.3-0.5,0.4-0.8l0.9-3.4c0-0.1,0-0.3,0-0.4c0-0.1,0-0.2,0-0.2h2.2l1.3,3.8l0.8-3.1c0-0.1,0-0.3,0-0.4c0-0.1,0-0.2,0-0.2
	h1.1C120.4,36.3,120.2,36.6,120.2,36.9L120.2,36.9z"/>
<polygon class="st2" points="51.7,38.8 53.3,38.8 53,37 "/>
<path class="st0" d="M110.3,36.8h-0.7c-0.3,0-0.4,0.1-0.5,0.5l-0.6,2.4c0,0.1,0,0.2-0.1,0.2c0,0.1,0.1,0.1,0.1,0.2
	c0.1,0,0.2,0,0.3,0h0.7c0.3,0,0.3,0,0.4-0.4l0.6-2.4v-0.1c0,0,0-0.1,0-0.2C110.6,36.9,110.5,36.8,110.3,36.8z"/>
</svg>
