<svg id="Calque_1" data-name="Calque 1" xmlns="http://www.w3.org/2000/svg" viewBox="0 0 77.79 57.92"><defs><style>.cls-2{fill:#fff}.cls-3{fill:none;stroke:#fff;stroke-miterlimit:10;stroke-width:.31px}</style></defs><path d="M0 51c0 .17-.08.36.17.42H.3a.87.87 0 000 .22v1a4.53 4.53 0 000 .52v.18c0 .03 0 .21.11.25-.14 0-.18.11-.15.26a3.4 3.4 0 010 .45v.93a2.29 2.29 0 00.07.36 1.26 1.26 0 00.29.2c.43.09.85.17 1.28.23a.44.44 0 00.32-.12 4.44 4.44 0 00.5-.56c.28-.38.54-.77.82-1.15s.27-.27.53-.13l.06.38v.08c-.05.11-.08.28-.17.33s-.13.23 0 .36l-.09.18h.11c-.09.22-.21.43-.29.66a.65.65 0 00.56.87c.76.08 1.52.15 2.29.2s1.78.08 2.68.13c1.28.07 2.56.15 3.84.25 1.06.07 2.12.2 3.18.27 1.38.09 2.76.19 4.15.23.9 0 1.81-.05 2.72-.1a2.25 2.25 0 00.54-.17.47.47 0 00.09-.54c-.15-.55-.32-1.1-.45-1.66-.09-.38-.25-.67-.67-.74a1 1 0 00-.12-.58c-.21-.5-.4-1-.6-1.51l7-21.42a4.78 4.78 0 014.49-.69 16.82 16.82 0 005.35.94c2.19 0 4.37 0 6.56-.05A5 5 0 0048.71 30c.18-.2.34-.42.51-.63l.18-.37a.58.58 0 000-.14s.08 0 .09-.05c.13-.31.27-.62.39-.94a4.17 4.17 0 00.08-.51 1.42 1.42 0 00.32-.85s-.05-.06-.08-.09h.05c.11.09.13 0 .15-.07.09-.28.17-.57.26-.84.2-.65.41-1.3.62-1.95l.21-.64.42-1.23c.22-.65.45-1.29.68-1.93L53 19l.6-.52.64-.34h.61l3.11.06h2.74c.17 0 .28 0 .29-.24s0-.48.08-.72 0-.22.19-.22h1.64v.67a.34.34 0 00.31.38 1.15 1.15 0 00.23.1h1.46c.15 0 .23-.06.24-.2s0-.48.07-.72 0-.25.2-.25H67v.54c0 .18.11.5.42.55a.89.89 0 00.2.06h1.45a.21.21 0 00.23-.2c0-.25 0-.51.08-.76s0-.22.17-.22l1.49.05v.5c0 .39.09.51.47.6a.84.84 0 00.2.05c.58 0 1.15.07 1.72.07a1.05 1.05 0 00.38-.12c.06-.06.15-.1.17-.17.08-.23.13-.48.21-.71s.26-.75.4-1.12.31-.68.46-1h2a.52.52 0 00.19-.08 1.7 1.7 0 00.18-.39v-1.12a2.3 2.3 0 000-.26v-1.35V10c0-.44.26-1.79.26-1.91a33.93 33.93 0 000-4.51l-.12-.36V2.16l-.05-.26a.28.28 0 00-.29-.28h-.34c-.1 0-.15 0-.16-.15S76.64 1 76.6.7a.73.73 0 00-.71-.64h-2.3c-.47 0-.49.05-.6.4s-.21.65-.3 1a.34.34 0 01-.39.27H59.19l-8 .05h-4.41a2 2 0 00-.46.1.58.58 0 01-.22.08c-.59 0-1.19-.1-1.78-.1h-8.77c-.33 0-.67 0-1 .07l-.22-.05H25.8L18.17 2h-4.11a3.76 3.76 0 00-.51.06 2.21 2.21 0 00-.29-.22h-.17c-.06 0-.32-.08-.49-.09l-1.46-.1c-.28 0-.32-.08-.37-.37S10.66.9 10.61.7s-.15 0-.13.08v.24c.05.19.09.38.14.58l-.17-.09a.36.36 0 010-.11c0-.26-.09-.52-.14-.78-.33 0-.66-.1-1-.13C8.47.4 7.64.32 6.8.25L5 .11a2.55 2.55 0 00-.32.05c.16.27 0 .5 0 .74-.06.47-.07.94-.1 1.42 0 .09 0 .21.13.21h.08v.08a.25.25 0 00-.34.21c-.09.34-.17.68-.27 1a5.36 5.36 0 01-.25.62v.29a.87.87 0 00-.08.1c-.17.6-.35 1.2-.5 1.8v.49a4.8 4.8 0 00-.3 1.2v.12c-.16.55-.66 2.15-.81 2.7 0 0-.17 2.59-.23 2.89l.12.34.12.19a1 1 0 00.94.51 6.19 6.19 0 012.63.38 7 7 0 013.94 3.79l.18.63s.9 3.44-1.14 5.26L3.83 35z" fill="#999d3b"/><path class="cls-2" d="M26.2 2.9a2 2 0 010-.25c0-.36.13-.46.48-.48s.54 0 .81 0c.47 0 .79.23.69.74l-1.14-.07c-.27.16-.58.06-.88.07zM71.23 6.91h2.47c.23 0 .61-.08.91-.11h.08a2.79 2.79 0 01-.35.42 6.07 6.07 0 01-2 1.37 3.44 3.44 0 01-1.42.29h-5.6L62.7 9h-5.08a2.64 2.64 0 00-.61.17h-.21c-.83 0-1.66-.07-2.48-.06H38.49L35 9.29h-2.13c-1 0-1.93 0-2.89-.07a8.71 8.71 0 01-2.58-.47 8.92 8.92 0 01-1.4-.64 1.47 1.47 0 00-.76-.2c-.92 0-1.83 0-2.75.06a2.35 2.35 0 01-1.29-.11c-.78-.5-.62-1.55-.31-1.61 0 .09-.36 1.59 1 1.63 1.24 0 2.49-.07 3.74-.07H33.02c.61 0 1.23-.09 1.84-.13a.65.65 0 01.37.08 3.5 3.5 0 002.34.51l5.69-.05h1a2 2 0 001.75-1.2l.13-.29c0 .19.1.28.31.27zM4.82 3.71h7.73c.27 0 .54 0 .81-.06s.28 0 .42 0a1.33 1.33 0 00.28-.1.39.39 0 00.16.07h2.17c.38 0 .76 0 1.14-.05s.56 0 .84 0h2c.67 0 1.34-.05 2-.06h3.46c.36 0 .53 0 .79-.07s.23 0 .34 0h1.81a3.93 3.93 0 00.49 0l2.87-.3c.16 0 .32-.08.43.08s-.08.36-.13.52-.08.08-.14.1c.11-.25 0-.45-.3-.45a9.17 9.17 0 00-1.17 0 11.16 11.16 0 00-4 1 3.08 3.08 0 00-1.14.79c-.27-.23-.6-.15-.91-.16H20.33a1.28 1.28 0 00-.41.12c0-.24-.23-.33-.43-.42a6 6 0 00-.82-.36.26.26 0 00-.22 0l-.74.65c.09-.26-.12-.33-.31-.42s-.39-.16-.58-.26-.2 0-.3 0-.45.39-.69.59c0-.26-.22-.36-.43-.4s-.47-.44-.8-.15-.44.36-.67.55c0-.29-.29-.32-.51-.42-.62-.27-.62-.27-1.12.18l-.25.23-.29-.27a.76.76 0 00-.16-.11c-.23-.08-.48-.26-.69-.23s-.38.28-.56.43l-.18.16a4.63 4.63 0 00-.4-.3c-.72-.38-.72-.38-1.33.15l-.17.14a3.19 3.19 0 00-.45-.3c-.78-.34-.81-.33-1.43.31l-.16.17a2.72 2.72 0 00-1.3 0c-.1 0-.19.17-.28.25zM73.94 8.23a12.78 12.78 0 01-.58 1.42c-.21.38-.12.78-.28 1.18l-.93-.05v-.14c.18-.53.35-1.06.58-1.57a2.39 2.39 0 011.08-1.16h.1l-.06.09-.07.08zM35.89 10.6c0 .15 0 .35-.25.35-1.59 0-3.18.22-4.77.2-.44 0-.44.31-.59.72l-.06.14-.58-.09c-.11 0-.25-.1-.31.1h-.15a.16.16 0 01-.09-.12c0-.2-.07-1.08-.12-1.33zM30.08 13H26c-.06 0-.11-.05-.17-.08s.11-.07.17-.08h4.21c0 .39 0 .38-.32.38h-3.96c-.05 0-.09-.06-.13-.09v-.06h4.3zM33.61 5.92h-.23c-.18 0-.22.13-.15.29s0 .09-.07.15c-.12-.48-.49-.29-.81-.3h-1.81c-1.23 0-7.64.12-9.07.14-.34 0-.21-.16-.26-.16 2.49-.17 9.9-.19 12.39-.23zM25.38 14.5v-.27h4.37c-.13.2-.34.18-.56.18h-3.41a2.47 2.47 0 00-.38.05zM25.37 14.58h4.25c-.11.22-.32.17-.51.17h-3.73s-.23-.11 0-.17z"/><path class="cls-2" d="M9.18 3.29c.06 0 .12-.11.19-.11.4 0 .81-.08 1.21-.08h1.79l.82-.1c.06 0 .11-.09.19-.14l.33.66c-.12-.15-.22-.3-.49-.26a5.51 5.51 0 01-.79-.07H9.69a3.69 3.69 0 00-.45.11zM25.29 14.86h4.25a1.8 1.8 0 01-.45.09h-3.4a2.73 2.73 0 01-.4-.05zM73.87 17.31l-1.05.11h-1.13s-.07 0-.1-.08.08-.12.12-.12h.6a2.38 2.38 0 00.85-.06c.21-.11.39 0 .58-.05h.09a.2.2 0 00.08-.1c0 .07.06.14 0 .19s-.03.1-.04.11zM26.05 12.51c-.08-.11 0-.14.09-.14h4.1v.05a1.74 1.74 0 01-.22 0h-3.76l-.22.06zM75.43 11.54a17.06 17.06 0 00-2.14 0 4 4 0 01-.55-.05l.12-.06 1.22-.05a6.17 6.17 0 01.86 0 1.87 1.87 0 01.49.16zM32.32 3.94c0 .05.13.09.14.14a2 2 0 001 1.16 2.77 2.77 0 01.34.2 1.89 1.89 0 01-1.48-1.5zM68 17.33c.1 0 .2-.14.3-.14.27 0 .54 0 .85.06 0 .05-.07.13-.1.14h-1l-.05-.06zM29.17 14.08h-3.69l.11-.1h3.69zM5.37 14c.57.42.57.42 1.13.3a.68.68 0 01-1.13-.3zM30.11 13.62h-2.76v-.16h2.72zM31.27 12c-.05-.08-.11-.12-.11-.17 0-.21.18-.16.29-.17s.11.08.17.13zM38.8 15.19a1.07 1.07 0 00.93-.23c-.04.32-.65.47-.93.23zM56.06 11.8c.06-.06.09-.11.11-.11s.37-.13.52.11zM13 12c.12-.25.18-.26.39-.06zM25.79 13.52h.95v.18h-1zM.5 54.86l.06.14-.12.05V54.88H.5zM69.75 9.37c.21.1 0 .23 0 .32a8.93 8.93 0 01-.33 1 2.14 2.14 0 01-.13.19c-.32 0-.64.09-1 .12s-.37 0-.55 0-.19-.05-.18-.19a1.55 1.55 0 012.07-1.42zM67.47 9.33l.25.13a1.69 1.69 0 00-.51 1 .4.4 0 01-.3.37 2.28 2.28 0 01-.52.1h-.8c-.27 0-.18-.06-.17-.17s.09-.34.12-.51a1.27 1.27 0 01.46-.63 1.37 1.37 0 011.47-.29zM61.25 9.42l.13.08a1.92 1.92 0 00-.48 1.11.27.27 0 01-.12.2 1.28 1.28 0 01-.46.17h-1c-.16 0-.21-.08-.2-.24a1.47 1.47 0 01.37-.88 1.43 1.43 0 011-.61 1.5 1.5 0 01.76.17zM63.35 9.42l.09.09a2.24 2.24 0 00-.44 1.06c0 .27-.27.36-.5.38s-.72 0-1.08 0c-.14 0-.21-.05-.19-.18a1.22 1.22 0 01.39-.93c.13-.11.22-.28.36-.37a1.26 1.26 0 011.37-.05zM65.37 9.38l.09.14a2.52 2.52 0 00-.4 1.1c0 .1-.18.23-.28.25-.44.06-.89.08-1.33.11a.16.16 0 01-.17-.2 2.07 2.07 0 01.52-1.07 1.17 1.17 0 01.8-.43 3.46 3.46 0 01.77.1zM9.17 11.93a2.67 2.67 0 00.48-.08c.15 0 .17-.14.18-.42a2 2 0 01.22-.88c.06-.12.1-.27.16-.41v-.88a6.14 6.14 0 01.24-.75l.14-.33s.11-1.43.13-1.62a.84.84 0 00-.13-.21c-.12-.1-.25-.18-.38-.27l-.12.4a2.7 2.7 0 00-.24 1.21 2.44 2.44 0 000 .27 1.94 1.94 0 00.06.22 1.6 1.6 0 010 .27 1.42 1.42 0 01-.12.25 2.29 2.29 0 01-.18.56.21.21 0 000 .12 2.52 2.52 0 010 .55V10a2.28 2.28 0 01-.08.7c-.06.27-.13.53-.2.79zM11 11.93a3.05 3.05 0 00.5-.08c.15 0 .17-.14.18-.42a2 2 0 01.23-.88 3.89 3.89 0 00.16-.41v-.88a6.14 6.14 0 01.24-.75l.15-.33s.11-1.43.14-1.62a1.27 1.27 0 00-.14-.21c-.13-.1-.26-.18-.4-.27l-.12.4a2.7 2.7 0 00-.25 1.21v.49a.93.93 0 010 .27 1.49 1.49 0 01-.13.25 2 2 0 01-.19.56.21.21 0 000 .12 2.53 2.53 0 010 .55.28.28 0 000 .09 2 2 0 01-.08.7c-.06.27-.14.53-.21.79z"/><path class="cls-2" d="M13.08 11.93a3.05 3.05 0 00.5-.08c.15 0 .18-.14.18-.42a2 2 0 01.23-.88 3.89 3.89 0 00.16-.41v-.88a6.14 6.14 0 01.24-.75l.15-.33s.11-1.43.14-1.62a1.27 1.27 0 00-.14-.21c-.13-.1-.26-.18-.4-.27l-.12.4a2.7 2.7 0 00-.25 1.21v.27a1.94 1.94 0 00.06.22 1.6 1.6 0 010 .27 1.49 1.49 0 01-.13.25 2 2 0 01-.19.56.21.21 0 000 .12 2 2 0 010 .55.28.28 0 000 .09 2 2 0 01-.08.7c-.06.27-.13.53-.21.79zM14.86 11.93a3 3 0 00.51-.08c.16 0 .18-.14.19-.42a1.84 1.84 0 01.21-.85 2.53 2.53 0 00.19-.44v-.88s.13-.51.25-.75.1-.22.15-.33.12-1.43.15-1.62a1.27 1.27 0 00-.14-.21l-.41-.27c0 .13-.08.27-.13.4a2.7 2.7 0 00-.25 1.21 2.45 2.45 0 000 .27 1.94 1.94 0 00.06.22 1.6 1.6 0 010 .27c0 .09-.09.16-.13.25a2.13 2.13 0 01-.2.56.19.19 0 000 .13 2.44 2.44 0 010 .54.28.28 0 000 .09 2 2 0 01-.08.7c-.06.27-.14.53-.22.79zM16.76 11.93a3.12 3.12 0 00.52-.08c.16 0 .19-.14.2-.42a1.84 1.84 0 01.21-.85 3.62 3.62 0 00.2-.44v-.88a6.87 6.87 0 01.25-.75c.06-.11.11-.22.16-.33s.12-1.43.15-1.62a1.27 1.27 0 00-.15-.21l-.42-.27c0 .13-.08.27-.13.4a2.7 2.7 0 00-.26 1.21v.27a1.94 1.94 0 00.06.22 1.6 1.6 0 010 .27 1.49 1.49 0 01-.13.25 2.13 2.13 0 01-.2.56.19.19 0 000 .13 2.44 2.44 0 010 .54V10a2.28 2.28 0 01-.08.7c-.07.27-.15.53-.23.79zM8.16 6.13s.08-.07.11 0a3.74 3.74 0 01.4.32s.06.1.1.15-.13.4-.13.4a8.14 8.14 0 01-.09 1.27 2.22 2.22 0 00-.32 1.27 1.09 1.09 0 000 .18 1 1 0 01-.13.71 1.86 1.86 0 00-.3 1c0 .27-.11.33-.2.36A2.47 2.47 0 017 12c-.09 0 0-.19 0-.14s.16 0 .18-.19.07-.44.11-.67c.07-.42.15-.84.2-1.26a3.27 3.27 0 000-.44.87.87 0 01.21-.3c.08.08.17-.55.09-.63a2.62 2.62 0 00.14-.73c0-.16.1-.43.14-.41a3.19 3.19 0 010-.76 2.58 2.58 0 00.09-.34zM5 6.07a.46.46 0 01.35-.33h.51l.1.06a.45.45 0 010 .16 3.57 3.57 0 00-.05 1.13 2.15 2.15 0 01-.11.55 1.16 1.16 0 01-.13.22 2.22 2.22 0 00-.34 1.55 1.24 1.24 0 01-.24 1 2 2 0 00-.34 1.12c0 .32 0 .34-.21.38a.94.94 0 01-.41 0s-.07-.19-.08-.29a1.38 1.38 0 010-.29l.42-2.62C4.62 7.7 5 6.07 5 6.07zM35.13 3l.1 3.9 1.22.52h7.71a1.46 1.46 0 001.42-1.65c0-1.68-.1-2.68-.1-2.68z"/><circle class="cls-2" cx="39.14" cy="14.74" r=".67"/><circle class="cls-2" cx="37.07" cy="20.48" r=".4"/><circle class="cls-2" cx="46.21" cy="16.12" r=".66"/><circle class="cls-2" cx="36.19" cy="23.71" r=".31"/><circle class="cls-2" cx="6.06" cy="13.88" r=".79"/><path class="cls-3" d="M11.59 12.12l.55 1.86h2.18l-.1-2.19"/><path class="cls-2" d="M31.09 11.64l23.17-.15-.03.52-23.14.15v-.52zM54.89 11.54l20.54-.16-.03.52-20.51.15v-.51zM37.65 23.34l-.5-.55a3.9 3.9 0 012.24-2.56 5.44 5.44 0 011.2-.47.57.57 0 00.45-.43c0-.18.14-.21.3-.23a39.89 39.89 0 014.64 0 3.81 3.81 0 013.65 3.49c0 .17-.91 4.94-.94 4.94l-.21.56c0 .12-.73 1-.77.86a3.66 3.66 0 01-1.73 1 9.6 9.6 0 01-1.7.15h-5.46a13.51 13.51 0 01-3.58-.44c-.89-.24-1.76-.53-2.62-.85a3.25 3.25 0 01-1.43-1.08 1.62 1.62 0 01-.49-1.1 1.76 1.76 0 01-.26-.86A3.33 3.33 0 0130.5 24a.47.47 0 01.38-.35.87.87 0 00.54-1.4.41.41 0 010-.53l.82-1c.1-.11.26-.17.23-.37l.08-.16.84.79-.48.43c0 .05-.14.15-.12.19a.31.31 0 00.19.16c.47.13.93.26 1.4.37.31.08.39.14.44.46.07.47.14.95.21 1.45h.17a6 6 0 001.91 2.83 5.21 5.21 0 00.77.56 1.56 1.56 0 01.61.8 1.57 1.57 0 00.09.23.34.34 0 00.5.12c.08 0 .15-.13.23-.18a.64.64 0 01.58-.13 1 1 0 001-.2.46.46 0 00.18-.52c-.07-.21-.28-.23-.46-.23a1.14 1.14 0 01-.7-.16c-.06-.06-.17-.05-.26-.06a.44.44 0 01-.37-.21c-.09-.16-.31-.23-.48-.34a5.65 5.65 0 01-.51-.34c-.1-.08-.15-.24-.25-.33a2.46 2.46 0 01-.51-.77 1.12 1.12 0 00-.14-.19s-.18-.26.26-1.58zM26.05 12.51h4.19c0 .17-.09.12-.18.12H25.9l.15-.12zM25 27l.88.16a2.09 2.09 0 011.31-.65 15 15 0 012.19.32 1.62 1.62 0 01.65 2 1.92 1.92 0 01-2.8 1.17c-.82-.43-1.7-.71-1.64-1.69a6 6 0 00-1.1-.6s.11-.89.51-.71z"/><path class="cls-2" d="M14.84 53.31l-10.95-1.1v-.11c0-.15-1.34-4.29 5.8-7.8 6.7-3.3 8.47-6 8.24-12.83-.18-5.38-5.46-7.79-7.66-9-.52-.28-.11-.92-.21-1v-.65c.07.07 0 .29.4.5 2.25 1.2 8.2 4.39 8.39 10 .23 7-1.59 10.29-8.43 13.65-3.61 1.78-4.69 3.12-5.25 4.34a4.35 4.35 0 00-.44 2.19s11 1.18 11.2.79c.11-.18 0-.19-.12-.46s-.21-.39-.33-.61c-.67-1.3-1.6-3.54 1.2-6s4.85-6.44 6.32-12.17a15.66 15.66 0 00.51-2.8 12.81 12.81 0 01.29-2.39c.2-.78.43-1.49.64-2.11.36-1.11.76-1.7.56-2.06a.33.33 0 00-.21-.17 58.68 58.68 0 00-7.11-.67s-.29-.06-.58.33-.3.77-.15 1.56l-.59.13a2.52 2.52 0 01.29-2.05 1.37 1.37 0 01.95-.54 58.68 58.68 0 017.49.66.62.62 0 01.4.32c.26.47 0 1.36-.43 2.58-.2.62-.43 1.33-.63 2.1a12.09 12.09 0 00-.28 2.33 15.4 15.4 0 01-.38 2.91c-1.44 5.8-3.67 10-6.61 12.55-2.61 2.25-1.7 4-1 5.31.12.22.23.44.31.63a1 1 0 010 1c-.47.57-1.58.64-1.63.64z"/><path class="cls-3" d="M.55 53.55l3.21.44M4.56 54.36s1.2.16 3.64.36c.58.05 1.53-1.24 2.85-1.09S12.61 55 13.31 55c4.49.33 8.65.6 9.32.29"/><path class="cls-2" d="M3.39 11.79l23.17-.15-.03.52-23.14.14v-.51z"/></svg>