<svg id="Calque_1" data-name="Calque 1" xmlns="http://www.w3.org/2000/svg" viewBox="0 0 79.42 61.4"><defs><style>.cls-1{fill:#636a28}.cls-2{fill:#fff}.cls-3,.cls-4,.cls-5{fill:none}.cls-3{stroke:#636a28;stroke-linecap:round;stroke-linejoin:round}.cls-3,.cls-5{stroke-width:.29px}.cls-4,.cls-5{stroke:#fff;stroke-miterlimit:10}.cls-4{stroke-width:.44px}</style></defs><path class="cls-1" d="M78.81 10.39a.3.3 0 00-.08.22.41.41 0 01-.17.32.62.62 0 00-.22.47v3c0 .69-.11 1.15-.1 1.72a.47.47 0 01-.12.32 1.44 1.44 0 00-.22 1.28 1.13 1.13 0 01-.13.81c-.11.2-.24.39-.34.6a.6.6 0 01-.51.35c-.38.05-.76.09-1.14.16a9 9 0 01-1.72.06l-8.49-.15-9.78-.17-3.69-.05a1.7 1.7 0 01-.67-.13c-.43-.18-.86-.33-1.28-.52a.71.71 0 00-.62 0 7.28 7.28 0 00-1.32.78 4 4 0 00-1.6 2.86c0 .24-.05.49-.07.73v.07c0 .2-.16.36-.07.59s0 .41 0 .61a.26.26 0 010 .15.58.58 0 000 .41.21.21 0 010 .08c-.05.29.08.58 0 .87a.41.41 0 000 .22.43.43 0 010 .19c-.08.25.08.5 0 .75a.51.51 0 000 .3 1.29 1.29 0 010 .34.41.41 0 000 .22.49.49 0 010 .41.25.25 0 000 .19c.07.17 0 .33 0 .49s.11.28.1.44a.79.79 0 01-.21.45 7.54 7.54 0 01-1.43 1.39c-.16.12-.33.23-.51.34a4.88 4.88 0 01-2.17.7 14.44 14.44 0 01-2.37.05c-.5 0-1 0-1.5-.05-.83 0-1.66-.08-2.49-.16a13.39 13.39 0 01-4.83-1.41c-.54-.27-1.08-.55-1.59-.86a3.34 3.34 0 00-1.1-.42 2.33 2.33 0 00-1.93.42 3.56 3.56 0 00-1.17 1.49.59.59 0 000 .52.38.38 0 010 .43.3.3 0 000 .23.38.38 0 01-.08.25.32.32 0 00-.07.25.4.4 0 010 .19.59.59 0 00-.12.43.39.39 0 01-.05.14.41.41 0 00-.09.28.33.33 0 01-.08.25.33.33 0 00-.07.25.16.16 0 010 .12c-.15.21-.08.5-.23.71s0 .22-.05.3-.09.52-.25.75a.27.27 0 000 .18.47.47 0 01-.08.26.36.36 0 00-.08.25.44.44 0 01-.08.29.43.43 0 00-.07.25.37.37 0 01-.07.25.33.33 0 00-.08.25.33.33 0 01-.05.22.52.52 0 00-.1.36c0 .14-.15.21-.14.35a.47.47 0 01-.09.36.13.13 0 000 .07 2.3 2.3 0 01-.18.73 5.07 5.07 0 01-.22.76 6.05 6.05 0 00-.2.73.53.53 0 01-.05.18.68.68 0 00-.09.37.3.3 0 01-.06.18.71.71 0 00-.1.32.9.9 0 01-.06.22.91.91 0 00-.07.14 1.82 1.82 0 01-.13.51 1.45 1.45 0 01-.15.5c0 .27-.19.48-.17.74-.14.22-.09.5-.23.72s0 .36-.15.51a5.38 5.38 0 01-.18.69 1 1 0 01-.09.29.48.48 0 00-.05.14c0 .28-.17.48-.24.72a.63.63 0 01-.29.35.69.69 0 00-.27.4 5.33 5.33 0 00-.21 1.17 7.84 7.84 0 00.3 2.85v.18a.39.39 0 010 .3v.2a.44.44 0 01.17.4c0 1.69 0 3.38-.09 5.07 0 .22 0 .44-.07.65a1.26 1.26 0 01-.46.82 3 3 0 01-.62.38 6.26 6.26 0 01-2 .54 25.32 25.32 0 01-3.37.13c-.35 0-.69 0-1-.07l-3.44-.27-2.49-.18-2.53-.2-1.18-.1a1.48 1.48 0 01-.88-.34A1.29 1.29 0 012 59.19v-1.5a1.78 1.78 0 01.11-.52 10 10 0 00.45-1.71 2.3 2.3 0 000-.45 1.15 1.15 0 01.13-.48c.15-.27.31-.53.47-.79a.28.28 0 01.24-.16H4.03v-.09c-.26 0-.5-.13-.75-.15A2.58 2.58 0 012.21 53a1.86 1.86 0 01-.73-.54 1.3 1.3 0 00-.38-.32.92.92 0 01-.46-.59C.59 51.38.53 51.17.5 51a8 8 0 010-2.53.5.5 0 00-.09-.47.44.44 0 010-.53.33.33 0 00.06-.22.32.32 0 010-.14 4.27 4.27 0 00.27-1c.17-.22.09-.53.25-.75 0-.24.16-.43.15-.66a.22.22 0 010-.08 1.45 1.45 0 00.15-.54c.17-.22.08-.53.26-.75 0-.26.19-.47.16-.73s.14-.22.13-.36a.48.48 0 01.1-.36.28.28 0 000-.18.41.41 0 01.06-.31.31.31 0 00.07-.22.48.48 0 01.07-.29.3.3 0 00.07-.21.41.41 0 01.08-.29.48.48 0 00.07-.26.43.43 0 01.08-.29.29.29 0 00.06-.22.4.4 0 01.08-.28.21.21 0 000-.18.37.37 0 01.07-.29.45.45 0 00.07-.25.16.16 0 010-.12c.16-.21.09-.49.24-.71a.36.36 0 000-.18.42.42 0 01.09-.29.23.23 0 00.06-.18.54.54 0 01.11-.39.4.4 0 000-.19.37.37 0 01.07-.25.32.32 0 00.07-.25.36.36 0 01.06-.25.29.29 0 00.07-.22.39.39 0 01.07-.29.41.41 0 00.24-.29.57.57 0 010-.22.58.58 0 00.1-.36.29.29 0 010-.14.44.44 0 00.1-.36c0-.16.14-.24.15-.38a.59.59 0 01.08-.37.22.22 0 00.14-.17.32.32 0 01.06-.25.33.33 0 00.07-.29.24.24 0 010-.18s.08-.09.08-.13c0-.25.14-.45.21-.68s.09-.27.24-.32a.74.74 0 00.36-.38C6.22 29.4 7 28 7.88 26.69c.18-.29.37-.58.56-.87a6.43 6.43 0 001-3.45 5.55 5.55 0 00-1.34-3.71 3.45 3.45 0 00-2.62-1.24h-1a6.71 6.71 0 01-3.77-1.25 2.54 2.54 0 01-.44-.37.55.55 0 01-.11-.63.55.55 0 01.5-.36 3.58 3.58 0 011 .11c.49.1 1 .2 1.46.32a1.28 1.28 0 00.88-.09 6 6 0 00.7-.39 2.29 2.29 0 001-1.58A4.31 4.31 0 005.76 12a1.7 1.7 0 010-.45A7.66 7.66 0 006 9.82a1.7 1.7 0 010-.5.61.61 0 010-.18c.06-.1.45-.37.08-.33C6 8.82 6 8.74 6 8.65a2.09 2.09 0 01.13-.35c.18-.41.37-.82.56-1.22a.54.54 0 000-.48c-.15-.35-.28-.71-.41-1.07a1 1 0 01-.1-.37V4.05c0-.37.22-.55.68-.6a3.35 3.35 0 011 0 5.9 5.9 0 01.83.11.55.55 0 00.22 0c1 0 1-.11 1-.23a3.7 3.7 0 010-.88.24.24 0 00-.19-.28 2.09 2.09 0 00-.54.12h-.05v1.03c0 .09-.07.13-.15.14a.56.56 0 01-.36-.1.2.2 0 01-.07-.09.76.76 0 010-.15c0-.5-.09-1-.14-1.49a.88.88 0 01.09-.48c.2-.27.34-.58.5-.9A.35.35 0 019.32 0h.11c.65.09 1.31 0 2 .05h.34l1.75.42c1.82.43 3.64.82 5.45 1.3a1.49 1.49 0 01.49.2 1 1 0 01.39.56c.15.43.07.4.56.4h6A5.44 5.44 0 0027 3a1.68 1.68 0 01.5 0 15.47 15.47 0 001.8.06h4.88c1.63 0 3.37 0 5.06.07H51.75l9.53.07h4.45l6.22.05h.39c.14 0 .18 0 .23-.2s0-.13-.08-.13h-.58c-.23 0-.25 0-.26-.23a11.46 11.46 0 00-.06-1.17c-.06-.42.07-.55.49-.59a.54.54 0 01.49.16.73.73 0 00.51.22c.48 0 1 .05 1.46.05a6 6 0 01.95.07.29.29 0 00.26 0c.13-.11.3-.11.44-.21a.68.68 0 01.55-.07.21.21 0 01.14.12v.11a11.65 11.65 0 00.4 1.43 3 3 0 00.43.84 4.45 4.45 0 01.53.89.72.72 0 00.31.42 1 1 0 01.3.43 3.44 3.44 0 01.44 1.12 5.5 5.5 0 01-.74 3.89.46.46 0 01.26-.06zM7.87 36.65zm9.22 5zm-.18.59zm60.28-26.88a1.55 1.55 0 00-.14-.43 3.63 3.63 0 010-1.64 1 1 0 01.16-.35.25.25 0 01.42 0c.07.07.07.19.18.24s0-.05 0-.07a2.15 2.15 0 01-.15-.51.6.6 0 00-.31-.42c-.34-.2-.35-.28-.2-.66-.33.07-.68-.26-.9-.43 0 0-.14-.07-.17 0-.12.22 0 .24.08.21.22.08.23.21.27.42a1.76 1.76 0 01.07.4v2.53a4.62 4.62 0 00.11 1 2.8 2.8 0 00.23.69s0 .05.05.05.24-.06.24-.09.08-.94.06-.94zM38.45 26.58a4.82 4.82 0 002 1.3.48.48 0 01.26.16.14.14 0 010 .14.1.1 0 01-.1.05 2.77 2.77 0 00-.64.11.61.61 0 01-.48 0 4.22 4.22 0 00-.45-.18 4.58 4.58 0 01-1.16-.66 5.59 5.59 0 01-1.81-2.5 6 6 0 01-.2-3.58c.05-.18.08-.37.12-.56a2.26 2.26 0 01.1-.45.55.55 0 00-.11-.63.47.47 0 01-.14-.31 2.08 2.08 0 000-.23.13.13 0 00-.16-.12l-.91.15a.23.23 0 00-.18.12.57.57 0 01-.08.13.38.38 0 01-.52.07 1.22 1.22 0 01-.17-.15.34.34 0 00-.36-.06c-.11 0-.09.15-.13.22-.06-.16-.1-.19-.2-.15a2.11 2.11 0 00-.34.16c-.3.18-.59.37-.88.56a5.17 5.17 0 00-2.32 4.08.38.38 0 00.17.36 1.8 1.8 0 01.74 1.17 2.22 2.22 0 01-.2 1.52.29.29 0 000 .32 5.14 5.14 0 002.79 2.46 8.9 8.9 0 002.4.48c.64.05 1.28.07 1.92.1l1.84.09c1 .07 2 .06 3.06.09h.16a1.66 1.66 0 001.09-.5 2.55 2.55 0 00.53-.84 4.63 4.63 0 00.31-1.72c0-.64-.06-1.28-.08-1.92s-.05-1.51-.07-2.26a1.24 1.24 0 000-.27c-.07-.32-.13-.65-.22-1a6.33 6.33 0 00-.91-2.06 4.39 4.39 0 00-2-1.6 2.54 2.54 0 00-1.39-.16 3.56 3.56 0 00-1.1.32 3.53 3.53 0 01-.95.31c-.27 0-.54.12-.82.14s-.41.07-.61.08-.15.07-.13.18.06.15.15.13c.28-.05.56 0 .84 0a.55.55 0 01.22 0 .26.26 0 01.22.34c0 .11-.07.22-.09.33-.09.39-.18.78-.26 1.16a5.69 5.69 0 001.25 5.08zM30.39 8.79h23.9c.16 0 .35.06.49 0s.1-.27.16-.41c.21-.51.17-.48-.36-.48H39.56a3.91 3.91 0 00-.83.09 4.87 4.87 0 01-1.26.14L23.34 8a7.09 7.09 0 01-1 0c-.11 0-.61-.15-.72-.15H7.31A.32.32 0 007 8l-.33.56c0 .05 0 .1.07.1h21.83zM17 4.16c-.07-.23-.14-.44-.21-.64-.12-.37-.24-.73-.37-1.09a.53.53 0 00-.43-.38c-.61-.15-1.21-.32-1.81-.49a2.76 2.76 0 00-1.24-.16c-.67-.06-1.33 0-2 0a.23.23 0 00-.24.16v.11A5 5 0 0010.34 3a1.62 1.62 0 000 .31.14.14 0 00.13.12 1.21 1.21 0 00.19 0h1.65a1.77 1.77 0 00.23 0c.07 0 .12-.05.11-.13a.77.77 0 000-.15.86.86 0 01.35-.85.62.62 0 01.57-.13.8.8 0 01.62.74 2.11 2.11 0 01-.13.75A2.54 2.54 0 0014 4c0 .09 0 .15.12.15H17zM71.92 8h-2c-.53 0-.53 0-.71.49a2.47 2.47 0 00-.1.29.1.1 0 00.09.13h4.37a1.55 1.55 0 00.71 0 5.78 5.78 0 000-.72v-.08a.13.13 0 00-.06-.11h-2.3zM13.15 3.36a2.93 2.93 0 00.68-.1.21.21 0 00.17-.16.83.83 0 00-.13-.51.49.49 0 00-.75-.12.74.74 0 00-.22.73.17.17 0 00.16.14zM8.56 14.78a1 1 0 000 .24.79.79 0 00.67.61.41.41 0 00.48-.47 2.24 2.24 0 00-.31-.84c-.15-.32-.4-.32-.61-.08a.66.66 0 00-.23.54zm68.86.08c.37 0 .39-1.34 0-1.34s-.37 1.34 0 1.34zM64 4.18a2.29 2.29 0 00-.74 0 .14.14 0 00-.13.13c-.07.3-1.79 4.55-1.85 4.88h.59c.13 0 .21-.05.25-.21S64 4.47 64 4.18zm5.55.05a1.82 1.82 0 00-.65 0 .14.14 0 00-.12.09c-.08.29-1.81 4.53-1.88 4.81a.09.09 0 00.08.12h.15c.13 0 .53-.06.57-.21s1.87-4.51 1.89-4.81zm-6.19 5c.24 0 .51 0 .56-.25s1.77-4.37 1.83-4.59 0-.19-.12-.19h-.48a.15.15 0 00-.12.1c-.09.28-1.84 4.51-1.86 4.81a.1.1 0 00.1.11zm1.78 0c.25 0 .58-.08.63-.31s1.78-4.37 1.83-4.58-.32-.14-.44-.14H67a.15.15 0 00-.12.1C66.76 4.56 65 8.79 65 9.09a.1.1 0 00.1.11zm-6.67-5s.3-.16-.72 0a.13.13 0 00-.11.1c-.06.15-1.82 4.7-1.82 4.9a.76.76 0 00.3 0c.06 0 .51 0 .52-.09.12-.34 1.83-4.59 1.87-4.92zm3.66 0a1.36 1.36 0 00-.69-.05.13.13 0 00-.12.09c-.07.29-1.79 4.53-1.86 4.83a.07.07 0 00.06.09h.53c.1 0 .16-.07.19-.18.12-.26 1.85-4.5 1.93-4.78zm-4.49 4.92a1.79 1.79 0 00.64 0 .14.14 0 00.15-.11c.08-.27 1.81-4.49 1.89-4.76 0-.09 0-.15-.08-.16s-.69 0-.7.06c-.07.33-1.83 4.67-1.9 4.97zM3.08 52.59c.17.34.26.4.6.41a2.52 2.52 0 00-.6-.41zm31-33.14a.22.22 0 00.27 0 .31.31 0 00-.3 0zM20.08 30s-.01 0 0 0zM37.13 7.7zM3.25 53zm16.86-28.25v0zM34.57 21c0 .05 0 0 0 0M18.2 18.54l-.01.01.01-.01zM18.2 18.54l.02.01-.02-.01zM18.87 18.61s-.01-.03 0 0zM19.29 18.42zM19.85 18.47l-.01.01.01-.01z"/><path class="cls-2" d="M28.75 12.31c0 .89.27 2 2.95 2s2.67-1.44 2.67-1.78-1-1.51-2.88-1.3c-2.49-.15-2.74 1.08-2.74 1.08z"/><circle class="cls-2" cx="37.15" cy="12.28" r=".79"/><ellipse class="cls-2" cx="19.14" cy="10" rx=".72" ry=".93"/><circle class="cls-2" cx="26.76" cy="11.76" r=".6"/><path class="cls-2" d="M11.69 10h4.39l3.42 1.72a9 9 0 01-.13 2.19c-.21.41-.21 1.23-1.24 1.23h-6.24s-3.08-2.05-.2-5.14zM22.85 27.28a.93.93 0 01-1-.93c.41-1.23 1-.51 1-.51l.72-.05s2.48-.86 2.48 1.61c-.84 2.33-3.2-.12-3.2-.12z"/><path class="cls-1" d="M33.11 19.43l2.78 3.05.55-2.06-.6-.97.05-1.36-2.78 1.34z"/><path class="cls-2" d="M50.15 16.52c-.08-.19 26.61.48 26.61.48l-.21.89-25.92-.48s-.13-.07-.48-.89zM50.91 18.16c0-.12 10 0 12.51.07l-.05.64-11.57-.23a1.32 1.32 0 01-.89-.48zM65.17 18.36c.06-.12 8.7.2 11.26.26l-.28.48-10.91-.1s-.14-.5-.07-.64zM10 7.19c.25 0 .26 0 .31-.17s1.35-2.9 1.41-3 0-.12-.13-.13h-.23a.13.13 0 00-.12.06c-.09.19-1.4 3-1.43 3.19-.03.02.19.05.19.05zM11.57 7.19c.24 0 .25 0 .31-.17s1.34-2.9 1.4-3 0-.12-.13-.13h-.22a.13.13 0 00-.12.06c-.09.19-1.41 3-1.43 3.19-.01.02.17.05.19.05zM13.16 7.19c.25 0 .26 0 .31-.17s1.35-2.9 1.4-3 0-.12-.12-.13h-.23a.13.13 0 00-.12.06c-.09.19-1.4 3-1.43 3.19.03.02.17.05.19.05zM14.76 7.19c.24 0 .25 0 .3-.17s1.35-2.9 1.41-3 0-.12-.13-.13h-.23a.11.11 0 00-.11.06c-.09.19-1.41 3-1.43 3.19-.01.02.17.05.19.05zM16.35 7.19c.24 0 .26 0 .31-.17s1.34-2.9 1.4-3 0-.12-.12-.13h-.23a.13.13 0 00-.12.06c-.09.19-1.41 3-1.43 3.19 0 .02.17.05.19.05zM18 7.19c.25 0 .26 0 .31-.17s1.35-2.9 1.4-3 0-.12-.12-.13h-.23a.13.13 0 00-.12.06c-.09.19-1.4 3-1.43 3.19.02.02.19.05.19.05zM19.76 7.19c.24 0 .25 0 .3-.17s1.35-2.9 1.41-3 0-.12-.13-.13h-.22a.13.13 0 00-.12.06c-.09.19-1.41 3-1.43 3.19-.01.02.17.05.19.05zM21.42 7.19c.24 0 .25 0 .3-.17s1.35-2.9 1.41-3 0-.12-.13-.13h-.23a.11.11 0 00-.11.06c-.1.19-1.41 3-1.43 3.19-.01.02.17.05.19.05zM31.75 6.39h-7.33l-.48.09h-1.07s-.26.65-.07.92c2.28 0 7.64.17 7.64.17s.56-.14 1.36-1.18M24 5.65c0-.11.86-1.61 1.58-1.75s5.18-.1 5.18-.1l.78 1.09s.21.76 0 .79S24 5.65 24 5.65zM32.39 7.7l.07-2.29A1.79 1.79 0 0134 3.69c1.47-.13 8-.13 8.4.28s.13 1.09-.66 1.88a6.81 6.81 0 01-4.42 2c-1.87-.01-4.93-.15-4.93-.15zM42.92 3.69l33 .24a2.38 2.38 0 01-1.24.59c-2.22 0-2.22 0-31.61-.31-.07 0 .09 0-.15-.52zM7.09 5.78s-.82-1.5.62-1.4zM78.2 5.48c.79 0 1.09 4.28 0 4.28s-.79-4.28 0-4.28z"/><path class="cls-2" d="M77.82 4.69s-.41-.62-.75-.14a5.66 5.66 0 00-.76 3.36c0 1.82.69 3.36 1.34 2.64a6.41 6.41 0 01.17-5.86z"/><path class="cls-2" d="M77.51 4.11s-.51-.62-.92 0a8.1 8.1 0 00-.66 2.81c-.17 2.11.09 4.62 1.44 4.14a1.29 1.29 0 01-1-1c-.52-1.77-.36-5 .58-6 .13-.06.37.08.56.05z"/><path class="cls-3" d="M14.14 11.92h4.43M14.11 12.42l4.37-.03M13.98 12.92h4.34M13.89 13.41h4.27M10.61 11.56h3.56a11 11 0 01-.58 2h-3"/><path class="cls-4" d="M12.56 20.54a8.31 8.31 0 01-1.37 4.7c-1.08 2.11-4.87 7.89-5.33 9.17S2.16 47 2.11 48.91a17.91 17.91 0 00.59 4.32"/><path class="cls-4" d="M10.9 21.09a17.11 17.11 0 01-1.47 5.07c-1.08 2.11-4 6.27-4.7 8.41-.44 1.29-3.6 12.57-3.65 14.43a14.24 14.24 0 00.36 3.5"/><path class="cls-1" d="M5 31.5s-.47.07-.43.46a.52.52 0 00-.12.6c-.28.07-.16.48-.16.48s-.29.28-.13.57A.32.32 0 004 34s-.31.27-.16.57c-.24.2-.1.6-.1.6s-.32.08-.2.36c-.18.32-.24.49-.12.66a.29.29 0 00-.18.4.33.33 0 00-.12.55.32.32 0 00-.1.44.4.4 0 00-.15.55s-.29.09-.14.43c-.24.26-.22.39-.14.55a.41.41 0 00-.17.56c-.15.18-.22.31-.1.48a.38.38 0 00-.15.48.45.45 0 00-.16.51.61.61 0 00-.14.56.44.44 0 00-.13.51.5.5 0 00-.14.51.34.34 0 00-.11.47.46.46 0 00-.16.5.44.44 0 00-.15.55.38.38 0 00-.14.51.33.33 0 00-.15.48c-.19.15-.12.52-.12.52s-.27.1-.17.49c-.24.24-.2.38-.12.51a.35.35 0 00-.13.49c-.26.07-.23.43-.16.52a.34.34 0 000 .58.53.53 0 01.14.49 14.08 14.08 0 00.08 1.69l.77-5z"/><path class="cls-4" d="M13.41 20.47a17.94 17.94 0 013.44-1c.6.07 4.61-.53 4.21 1S13.55 48.1 13.55 48.1s-.38 4.3.62 6.29c-2.66 0-10.62-.55-10.62-.55s-.8-4.73-.13-6.58S6 37.5 6 37.5a2.2 2.2 0 001.22.72 1.51 1.51 0 001.37-1.16 2.09 2.09 0 00-.4-2.06A2.11 2.11 0 007 34.49L11.84 26a6 6 0 001.57-5.53z"/><path class="cls-2" d="M7 35.46c.77.06.89 1.77 0 1.63s-.75-1.69 0-1.63zM15.49 53.92s-.92-5.28.83-5.56c.41-.27-.21-.58-.21-.58h.55l-.48-.59.51.07-.34-.58h.55l-.38-.48h.52l-.38-.58h.48l-.28-.48h.42l-.28-.41.45-.09-.36-.44.46-.09-.32-.48.46-.06-.31-.49h.46c-.05 0-.3-.46-.3-.46h.45l-.3-.62h.5l-.36-.44.53-.09L18 41h.53l-.37-.48h.47l-.37-.52.52-.1-.37-.47h.54L18.6 39l.45-.09-.34-.47h.47l-.31-.47.49-.06-.36-.59.47-.06-.29-.43h.45l-.31-.49.47-.07-.36-.47h.49l-.33-.51h.47l-.29-.5.42-.06-.31-.43.5-.09-.34-.45.47-.07-.29-.4.42-.1-.29-.46.45-.08-.33-.46L21 32a1 1 0 01-.26-.92 5.68 5.68 0 011.34-2.39c.43-.22.5-1.06.5-1.06a1 1 0 01-.72-.28 1.3 1.3 0 01-.4-1.35 1.21 1.21 0 011.62-.53c.41-1.27 1.22-5.14 2.92-6.58s3.08-2.46 3-2.44-12.54-.08-12.54-.08l-5.12-.12s1.39.72 1.59 3.19c3.6-1 2.73-.92 4.37-.92s4.53.36 4.53.36 1-.11.46 1.44-7.2 26.27-7.45 27.87A38.3 38.3 0 0015 54zM31.49 17.34s1.85-.26 2.05 0c-.31-1.34-.46-1.9-1.13-1.8-1.18.46-.77 1.39-.92 1.8z"/><circle class="cls-1" cx="32.46" cy="16.52" r=".41"/><path class="cls-2" d="M3.8 55.87l10.29.55s1.09.55.41 2.33a2.38 2.38 0 01-2.33 1.65l-9-1.1a14.71 14.71 0 01.63-3.43z"/><path class="cls-5" d="M19.16 55.6v4.11M18.34 55.8v4.12M17.45 56.08v4.11"/></svg>