<svg id="Calque_1" data-name="Calque 1" xmlns="http://www.w3.org/2000/svg" viewBox="0 0 105.46 53.8"><defs><style>.cls-2{fill:#3d4c28}.cls-3{fill:none;stroke:#fff;stroke-linecap:round;stroke-linejoin:round;stroke-width:.52px}</style></defs><path d="M31.18 1a5.39 5.39 0 00.07-.79c0-.15.06-.24.23-.24s.24.06.26.21a2.51 2.51 0 010 .27c0 .25 0 .48.35.48.1 0 .15.14.21.22a.4.4 0 00.38.19h2.2l1.06.1a.52.52 0 01.26.12 4.19 4.19 0 002.32.73c1.1.05 2.21.06 3.31.11s2.4.15 3.6.11 2.45 0 3.67 0h3.19a2.45 2.45 0 011.1.21.3.3 0 00.13 0 11.83 11.83 0 012.3.18c.49.09 1 0 1.51.08 1.08.1 2.16 0 3.24 0H77C81.38 3 85.8 3 90.23 3a11.81 11.81 0 004.44-.74 2.44 2.44 0 011-.16h1.65a.79.79 0 00.54-.18 2.92 2.92 0 01.84-.38c1.15-.47 2.32-.92 3.51-1.29a2.83 2.83 0 011.08-.08 1.3 1.3 0 01.91 1 4.5 4.5 0 01.08.51.77.77 0 00.22.62c.13.11.07.33.07.5a.6.6 0 00.18.51.55.55 0 01.14.44 1.45 1.45 0 00.19.86 3.66 3.66 0 01.34 1.5 16.75 16.75 0 01-.16 3.94v.12a3.36 3.36 0 00-.17 1.48 5.71 5.71 0 01-.6 2.53.76.76 0 01-.77.48H58.19c-.21 0-.33.05-.31.27a2.73 2.73 0 01-.54 1.6 4.05 4.05 0 00-.58 2c-.08 1.49-.1 3-.1 4.46v1a.28.28 0 01-.3.3 34 34 0 01-3.78 0 3.35 3.35 0 00-3.13 1.93 4.21 4.21 0 00-.39 2 6.2 6.2 0 01-.71 3.1 7 7 0 01-3.78 3.35 19.1 19.1 0 01-5 1.18 12.42 12.42 0 01-4-.14 6.25 6.25 0 01-1.74-.63 5 5 0 01-1.95-2.18 5.6 5.6 0 01-.27-.55c-.05-.09-.1-.12-.2-.06a1.53 1.53 0 01-.89.21 22.55 22.55 0 00-2.6 0 9.46 9.46 0 00-3.16.63 6.42 6.42 0 00-3.21 3.22 12.2 12.2 0 00-.94 3.65 41 41 0 00-.32 6.46c0 1.56.09 3.11.2 4.66a5.37 5.37 0 010 1.06.94.94 0 01-.6.79 5 5 0 01-1.53.28 95.22 95.22 0 01-10 .27c-2 0-4-.13-6-.27a7 7 0 01-1.64-.33 1.48 1.48 0 01-.33.08c-.3-.15-.35-.26-.32-.6a9.93 9.93 0 01.46-1.88c.76-2.36 1.54-4.71 2.3-7.07.71-2.19 1.37-4.4 2.11-6.58a31.31 31.31 0 011.47-3.77c.44-.9 1-1.75 1.47-2.61a52 52 0 014.54-6.29c.78-1 1.52-1.94 2.25-2.93a5.52 5.52 0 00.76-1.74 18.47 18.47 0 00.66-3.21v-1.25a2.33 2.33 0 01.07-.53 1 1 0 01.66-.72 8.82 8.82 0 011.23-.3 15.24 15.24 0 003.71-1.17 1.44 1.44 0 00.46-.31 4.28 4.28 0 011.61-1 3.86 3.86 0 001.31-.74c.18-.17.19-.19 0-.33-.52-.34-1.07-.65-1.56-1a4.28 4.28 0 00-.88-.6 3.06 3.06 0 00-.7-.32 1.52 1.52 0 01-.25-.05c-.63-.22-.67-.65-.38-1.19a.21.21 0 01.26-.12.28.28 0 00.22 0 .17.17 0 01.26 0c.08.14.16.09.26 0s.11 0 .12 0c.18.23.48.07.71.2a2.2 2.2 0 00.63.19c.22 0 .39.21.62.23s-.06.19.07.25.06-.23.21-.09a1.37 1.37 0 01.28.21 1.32 1.32 0 002.15-.05c.15-.18.28-.37.42-.57s.35-.5.5-.77a.63.63 0 01.81-.33.33.33 0 00.45-.19q.36-.55.75-1.08a.76.76 0 00.15-.69c-.12-.53-.2-1.06-.29-1.6a1.37 1.37 0 011-1.42.21.21 0 01.23.02z" fill="#fff"/><path class="cls-2" d="M31.12 1.13a5.51 5.51 0 00.07-.79c0-.15.06-.24.23-.24a.22.22 0 01.26.21 2.51 2.51 0 010 .27c0 .25 0 .48.34.48.11 0 .16.13.22.22a.4.4 0 00.38.19 20.24 20.24 0 012.2 0l1 .1a.5.5 0 01.27.11 4.12 4.12 0 002.32.74c1.1 0 2.21.06 3.31.11s2.4.15 3.6.11 2.44 0 3.67 0h3.19a2.61 2.61 0 011.1.22h.13A11.89 11.89 0 0155.8 3c.49.09 1 0 1.51.08 1.08.1 2.16 0 3.23 0h16.35c4.42-.06 8.85 0 13.28 0a12 12 0 004.44-.74 2.6 2.6 0 011-.17h1.65A.79.79 0 0097.8 2a2.92 2.92 0 01.84-.38c1.15-.47 2.32-.92 3.51-1.29a2.83 2.83 0 011.08-.08 1.3 1.3 0 01.91 1c0 .17.06.34.08.51a.81.81 0 00.21.62c.14.11.08.32.08.5a.61.61 0 00.18.51.54.54 0 01.14.44 1.47 1.47 0 00.19.86 3.65 3.65 0 01.34 1.49 16.85 16.85 0 01-.16 3.95v.11a3.42 3.42 0 00-.17 1.49 5.71 5.71 0 01-.6 2.53.77.77 0 01-.77.48H58.12c-.2 0-.32.05-.3.28a2.74 2.74 0 01-.54 1.59 4.12 4.12 0 00-.58 2.05c-.08 1.49-.1 3-.1 4.46v1a.28.28 0 01-.3.3 36.66 36.66 0 01-3.78 0 3.35 3.35 0 00-3.13 1.93 4.16 4.16 0 00-.39 2 6.22 6.22 0 01-.71 3.1 7 7 0 01-3.78 3.35 19.1 19.1 0 01-5 1.18 12.42 12.42 0 01-4-.14 6.25 6.25 0 01-1.74-.63 5.08 5.08 0 01-1.95-2.18 5.6 5.6 0 01-.27-.55c-.05-.09-.1-.12-.2-.06a1.47 1.47 0 01-.89.2 25 25 0 00-2.6 0 9.46 9.46 0 00-3.16.63 6.42 6.42 0 00-3.21 3.22 11.63 11.63 0 00-.94 3.65 41 41 0 00-.32 6.46c0 1.55.09 3.11.2 4.66a5.35 5.35 0 010 1.06 1 1 0 01-.61.79 4.92 4.92 0 01-1.52.28 92.57 92.57 0 01-10 .26c-2 0-4-.12-6-.27a6.53 6.53 0 01-1.64-.32 1.48 1.48 0 01-.29-.12C0 52.91 0 52.8 0 52.46a9.48 9.48 0 01.46-1.89c.76-2.36 1.54-4.7 2.3-7.06.71-2.19 1.36-4.4 2.11-6.58a32.12 32.12 0 011.47-3.78c.44-.89 1-1.75 1.47-2.6a53 53 0 014.54-6.3c.78-.95 1.52-1.93 2.25-2.92a5.62 5.62 0 00.76-1.74 19.45 19.45 0 00.64-3.21v-1.25a1.88 1.88 0 01.07-.53.93.93 0 01.66-.72 8.49 8.49 0 011.23-.3 15 15 0 003.7-1.17 1.67 1.67 0 00.47-.31 4.16 4.16 0 011.61-1 3.82 3.82 0 001.3-.74c.19-.17.19-.19 0-.33a17.73 17.73 0 01-1.56-1 4.67 4.67 0 00-.88-.59 3.06 3.06 0 00-.6-.29l-.28-.09c-.63-.23-.67-.65-.38-1.19a1.31 1.31 0 011.12-.11 6 6 0 011.34.39 3.17 3.17 0 01.9.38c.08.08.2.12.28.22a1.33 1.33 0 002.15 0 5.89 5.89 0 00.41-.57 8 8 0 00.46-.83.63.63 0 01.8-.32.35.35 0 00.46-.19q.36-.55.75-1.08a.73.73 0 00.14-.67c-.11-.53-.2-1.06-.28-1.6a1.36 1.36 0 011-1.42c.13-.07.18-.07.25.06zm23.14 3.22a12.18 12.18 0 001.6 0 4.3 4.3 0 011.42.32.48.48 0 00.29.09c.09 0 .08-.09.08-.16a4.12 4.12 0 000-.7c-.05-.31-.08-.35-.4-.36h-1c-.46 0-.89-.16-1.34-.21a20.55 20.55 0 00-2.22 0h-19.3c-.49 0-.55.07-.57.47 0 .13-.07.18-.2.18l-1.09.08a.76.76 0 00-.6.35c-.58.84-1.14 1.69-1.74 2.51a18 18 0 01-4.42 4.28 19 19 0 01-3.18 1.8 18.44 18.44 0 01-4 1.15c-.63.12-.68.18-.68.82a18.63 18.63 0 01-.35 3.33 9.48 9.48 0 01-1.15 2.84 1.12 1.12 0 00-.16.38c.18-.11.76 0 .83-.1a13.91 13.91 0 001.49-4.16 17.34 17.34 0 00.14-1.9c0-.23.1-.66.36-.72a10.12 10.12 0 012.18-.42c.39 0 .49.07.55.46a2.44 2.44 0 010 .27V18.4a2.05 2.05 0 00.1 1 3.68 3.68 0 001.94 2.05 8.09 8.09 0 002 .47A8 8 0 0130 24.94c.08.1.65 1 .79 1.28a2.65 2.65 0 00.26.39.17.17 0 00.26 0 2.64 2.64 0 00.56-.47 5.64 5.64 0 013.45-3.05 19.35 19.35 0 015.13-.81 20.5 20.5 0 013 .14 7 7 0 011.75.42 5.74 5.74 0 012.42 1.81.55.55 0 00.75.19.79.79 0 00.31-.26A5.22 5.22 0 0150 23.36a4.82 4.82 0 012.74-.72H55c.49 0 .49 0 .5-.49V18.87c0-.29-.07-.36-.35-.35a17.79 17.79 0 00-3 .15 6.13 6.13 0 00.07-.84c0-1.11-.06-2.22-.08-3.33 0-.33-.79-.28-.84-.28-.21 0-.25.09-.25.27v3.74c0 .14-.06.32 0 .41s-.75.11-1.35.11H38.46a23.45 23.45 0 01-2.65 0c-.45-.05-.53-.15-.54-.6s-.23-1.49-.5-1.64a1.26 1.26 0 01-.43-.71c-.08-.28-.23-.54-.3-.82a5.16 5.16 0 01-.58-2 13.55 13.55 0 01.23-2.52 4 4 0 000-.92.7.7 0 01.24-.72 5.1 5.1 0 00.33-.82 2.09 2.09 0 01.34-.76c.15-.17.15-.47.4-.55s.24-.19.25-.37a13.09 13.09 0 000-1.4c0-.43.11-.55.54-.56h7.27c2.73 0 5.45-.07 8.18 0a.9.9 0 01.94.85c0 .08 0 .17.13.17s.72-.71.72-.71a5.49 5.49 0 011.23-.32zm-16.8 30.43c.45 0 1 0 1.6-.08a15.27 15.27 0 005.35-1.34 5.25 5.25 0 002.67-2.44 4.76 4.76 0 00.36-3.69 4.17 4.17 0 00-2.95-2.78 10.11 10.11 0 00-2.69-.32.2.2 0 00-.23.19 4.9 4.9 0 01-.68 1.62A10.25 10.25 0 0140 27a2.51 2.51 0 00-.54 2.12 4.25 4.25 0 001.85 2.77 5.38 5.38 0 001.7.79c.15 0 .26.11.27.29a.53.53 0 01-.62.59c-.26 0-.51-.07-.76-.12a5.34 5.34 0 01-2.66-1.25 6.36 6.36 0 01-1.89-5.46c0-.32 0-.34-.28-.38a5.52 5.52 0 01-2.35-.89.2.2 0 00-.28 0 6.85 6.85 0 00-.89.81 5.5 5.5 0 00-1.27 3.3 5.69 5.69 0 00.51 2.69 3.57 3.57 0 001.82 2 6.22 6.22 0 002.85.52zm46.72-29H61.59c-.62 0-1.51-.06-2.26 0h-1.24c-.17 0-.21.09-.21.25v.83c0 .5.1.59.61.55h.09a4.43 4.43 0 011.26 0l29.44-.13h13.24c.09 0 .37-.59.57-.59h.74a3.38 3.38 0 01.55 0c.32 0 .47-.07.47-.39V6c-.07.08-.07.22-.2.18a1.51 1.51 0 00-.67 0 11 11 0 01-2 .1.79.79 0 01-.51-.16.31.31 0 00-.19-.06h-1.18zM42.27 8.94a2.45 2.45 0 01-1 0c-.07 0-.15 0-.17-.13s.07-.14.14-.18a3.28 3.28 0 01.59-.23 8.83 8.83 0 012.45-.28c2.08 0 4.15 0 6.23-.06.08 0 .19 0 .2-.08a.28.28 0 00-.09-.27.5.5 0 00-.27 0l-3.4-.05c-1.43 0-2.87 0-4.3.09a36.42 36.42 0 01-3.91.18.65.65 0 01-.56-.25.56.56 0 00-.92 0 .84.84 0 01-.76.3h-.31a.22.22 0 00-.25.25v3.42c0 .1 0 .22.15.2 1.12-.13 2.26-.09 3.38-.13h2.38a10.73 10.73 0 011.13 0 6.74 6.74 0 001.27 0 4.56 4.56 0 01.74 0h3.31c.76 0 1.53-.06 2.29 0 .11 0 .11-.05.11-.12a8.25 8.25 0 010-.86c0-.13 0-.19-.18-.19h-.23c-2.32 0-4.65.06-7-.05a5.77 5.77 0 01-1.69-.29c-.18-.06-.13-.87-.13-.87s.58.11.86.19a5.31 5.31 0 001.37.13s6.76.08 6.67.2c.16 0 .36.08.37-.19a5.4 5.4 0 000-1 7.42 7.42 0 01-2 .22m36.45-4.38c.34 0 .37 0 .27-.36a.14.14 0 010-.17h.15c.05 0 6.44.05 8.22.06v-.55H58.15c-.26 0-.32.05-.32.32v.74a.27.27 0 00.21.3 3.83 3.83 0 001.54.15c.54-.05 8.13-.25 8.28-.2zm5.34 7.13a1.85 1.85 0 00.47 0c.45 0 .89-.1 1.33-.1s1.14.08 1.71 0 1 0 1.51 0h1.93c.3 0 .56-.19.87-.13h.08c.03 0 .15 0 .15-.12s-.11-.09-.18-.11-.34 0-.52 0a7.37 7.37 0 00-1.41-.06h-2.11a25.74 25.74 0 00-2.78-.07c-.65 0-1.28-.08-1.93-.06h-6.69c-.47 0-.94-.05-1.41 0s-.8 0-1.19 0H78c-.56 0-1.12.09-1.67.09h-4a9.69 9.69 0 01-1.07 0c-.3-.06-.64 0-1 0-.59-.08-1.18.06-1.78 0s-1.22 0-1.83 0h-4.57A9.47 9.47 0 0160.5 11c-.58-.1-1.17-.06-1.75-.13-.25 0-.49.13-.75 0v.08a3.62 3.62 0 000 .86c.13-.17.26-.22.43-.13a.46.46 0 00.26 0 8.43 8.43 0 011 .06h.14zm-37.29 5.88c.09-.05 2.48.28 2.53.3a.08.08 0 00.11 0c0-.06 0-.11.07-.17.12-.4.23-.81.37-1.21a3.74 3.74 0 01.37-1c.12-.19.36-.29.38-.56 0-.06.08-.09.14-.1s.08-.16.07-.24 0-.19-.15-.19c-.33 0-3.85-.18-4.11.28s-.43 3.05.22 2.89zM52.18 6.61v.7c0 .18.08.24.24.16A1.26 1.26 0 0153 7.4a2.37 2.37 0 00.47 0 3.35 3.35 0 011.14 0 11.17 11.17 0 001.42 0 10 10 0 001.22-.07c.18 0 .36-.07.38-.25a7 7 0 000-1.45c0-.16-.1-.23-.27-.23h-2.75a2.85 2.85 0 00-.51.07 2.12 2.12 0 01-.71 0 2.49 2.49 0 00-1 .06.27.27 0 00-.24.31c.04.35.03.56.03.77zm0 3.49c0 .4 0 .84.06 1.29 0 .09 0 .2.15.21h1.07a8.72 8.72 0 012 .14.19.19 0 00.13 0 3.15 3.15 0 01.61-.06 2.15 2.15 0 01.72.06.49.49 0 00.6-.32 4.35 4.35 0 00.13-1.19c0-.09 0-.16-.15-.16a9.78 9.78 0 00-1.53 0 3.31 3.31 0 01-.76-.07c-.73 0-1.45-.06-2.18 0a2.71 2.71 0 00-.84.1zM36.4 14.89a.86.86 0 010 .15c0 .13-.06.33-.17.35s-.18.2-.18.34v.61c0 .2 0 .15.15.19a3.24 3.24 0 00.62 0c.36 0 3.37.05 3.59.08s.25 0 .37 0 1.43.24 1.65.24h2.93s0-.13.06-.17a1.71 1.71 0 00-.2-.52c-.56 0-1.08.23-1.65.2a9 9 0 01-2.2-.12c-.19-.06-.11-1 0-1 .69-.3 3-.29 4-.55.41-.11.25-.61.25-.61s-1.8 0-2.69.12a5 5 0 00-2.09.63 2.15 2.15 0 01-.32.13 5.44 5.44 0 00-.72.2.73.73 0 01-.47.13c-.23 0-.17.09-.18.2s0 .34-.21.34h-2.36s-.13 0-.11-.06 0-.41 0-.61a.25.25 0 00-.07-.27zm27-4.56c-.18.09-.35-.09-.52 0a6.17 6.17 0 01-1.29 0h-1c-.36 0-.92-.06-1.37-.07a8.52 8.52 0 01-1.13 0c-.14 0-.18.09-.17.21s.22.24.38.24h3.18a13.9 13.9 0 011.52-.25.54.54 0 00.39-.13zm28 2.75c-.1 0-.22 0-.25.1s.12.18.2.18c.35 0 .35.38.72.28a39.1 39.1 0 014.33 0 4.77 4.77 0 001.13 0c.07 0 .13-.18.13-.26s-.27-.27-.31-.22a16.93 16.93 0 01-2.57 0c-.64-.08-2.99-.05-3.38-.08zm-55.94 3.61v1.61a.52.52 0 00.06.3.25.25 0 00.29.13c.12 0 .08-.14.08-.23v-.38c-.06-1-.08-2-.09-3 0-.12.06-.29-.16-.28s-.14.18-.14.29c-.05.51-.04 1.03-.04 1.56zm66.26-3.57a2.26 2.26 0 00-.78.09c-.07 0-.18 0-.17.1s.56.3 1 .33 2.31-.06 2.62-.09.19-.33.16-.38-.3-.14-.48-.13c-.38.04-1.93.09-2.35.08zM35.46 7.36v2.19c0 .08 0 .19.1.2s.12-.11.14-.2v-.09c-.06-1.12 0-2.23 0-3.35v-.16c0-.04-.13 0-.19 0s-.1.16-.1.26zm63.73-3.8h-5.06c.1.11 0 .53.06.54s4.08 0 4.52 0c.18-.05.29-.54.48-.54z"/><path class="cls-2" d="M43.3 20.51a.88.88 0 01.93-.87.9.9 0 01.89.88.94.94 0 01-.93.89.87.87 0 01-.89-.9zm.25-.29c0 .17 0 .3.14.38s.17.11.23 0l.32-.55v-.16a.53.53 0 00-.44.05.41.41 0 00-.25.28zM31.36 25.37a.77.77 0 01-.85-.79.82.82 0 01.84-.82.8.8 0 01.81.84.77.77 0 01-.8.77zM49.87 22.06c0-.12 0-.27.15-.27s.33 0 .32.23.07.17.18.18.11-.1.12-.18 0-.24.15-.24A.21.21 0 0151 22c0 .16 0 .28-.22.29s-.52 0-.78 0-.11-.14-.13-.23zM37.67 9.51h-1c-.15 0-.22 0-.23-.21 0-.81 0-.69.63-.67s1.08 0 1.62 0c.22 0 .32.06.31.29 0 .7 0 .58-.57.59h-.72z"/><path class="cls-3" d="M11 29.14S5.4 37 4.7 42s-.08 8.57.55 10.22c2-3.07 5-6.76 7-8s5.11-3.42 5.9-5.93 1.41-5.54 1.41-5.54-1.41 3.3-4.4 2.28c-1.49-.48-.39-3.78-.39-3.78S9.49 35.27 11 29.14z"/><ellipse cx="10.43" cy="38.45" rx="1.02" ry=".98" stroke-width=".34" fill="none" stroke="#fff" stroke-linecap="round" stroke-linejoin="round"/><ellipse class="cls-3" cx="18.45" cy="25.17" rx="2.91" ry="2.79"/><path class="cls-3" d="M18.61 52.21c-.12 0-9.08-1.1-11.28-.12 3.89-4.71 5.89-7.23 7.07-7.66s4-2.2 4.56-4c-1.1 3.57-.35 11.78-.35 11.78z"/></svg>