<?xml version="1.0" encoding="utf-8"?>
<!-- Generator: Adobe Illustrator 25.1.0, SVG Export Plug-In . SVG Version: 6.00 Build 0)  -->
<svg version="1.1" id="Calque_1" xmlns="http://www.w3.org/2000/svg" xmlns:xlink="http://www.w3.org/1999/xlink" x="0px" y="0px"
	 viewBox="0 0 149.8 59.8" style="enable-background:new 0 0 149.8 59.8;" xml:space="preserve">
<style type="text/css">
	.st0{fill:#1D1D1C;}
</style>
<path class="st0" d="M73.1,28.7c-0.2-0.2-0.3-0.5-0.3-0.9c0.1-0.3,0.2-0.5,0.3-0.7c-0.4-0.5-0.5-1.2-0.3-1.8
	c0.1-0.1,0.2-0.2,0.3-0.1c0.4,0.2,0.4,0.7,0.8,1c0.9,0.6,1.6-0.3,2.3-0.8c0.3-0.2,0.6-0.5,0.9-0.8c0.1,0,0.1,0.1,0.2,0.2
	c0.1,0.3,0.2,0.7,0.3,1c-1,1-1.9,2.2-2.5,3.5c0.2,0.3,0.7,0.3,0.9,0.7c0.1,0.2,0.1,0.3,0.1,0.5c-0.2,0.3-0.5,0.5-0.9,0.5
	c-0.6,0-1.2-0.4-1.4-0.9c-0.1-0.3-0.1-0.6,0-0.8c0,0,0.1-0.1,0.1-0.1C73.5,29,73.3,28.8,73.1,28.7"/>
<path class="st0" d="M85.6,8.9c0,0,0,0.1,0.1,0.1c0,0,0.6,0.1,0.8,0.1c0.7,0.2,1.3,0.6,1.6,1.3c0.2,0.5,0.1,1-0.3,1.4
	C87.5,12,87.3,12.1,87,12c-0.5-0.2-0.8-0.7-0.7-1.2c-0.1-0.2-0.2-0.4-0.4-0.4c-0.5,0.1-0.9,0.4-1.1,0.9c-0.2,0.6-0.4,1.5-0.6,2.1
	c-1.3,5.2-2.6,10.3-3.8,15.5L80.2,29c-0.5-0.1-1,0-1.4,0c-0.1-0.2,0-0.5-0.1-0.7c-0.2-1.7-0.8-3.2-1.7-4.7c0.2-0.2,0.5-0.3,0.7-0.3
	c0.5-0.1,0.9-0.2,1.4-0.1c0.3,0.2,0.2,0.7,0.6,0.9c0.1,0,0.2-0.1,0.2-0.2c1.1-4.3,2.2-8.6,3.3-13c0.1-0.2,0-0.3,0-0.3
	c-0.2-0.2-0.4,0.1-0.6,0.1c-0.2,0.1-0.5,0-0.7-0.1c-0.2-0.2-0.2-0.4-0.2-0.6c0-0.1,0-0.2,0.1-0.4c0-0.1,0-0.2-0.1-0.3
	c-0.1-0.1-0.3-0.1-0.4,0c-0.1,0.1-0.2,0.1-0.1,0.4c0.2,0.7,0.2,1.4-0.2,2c-0.2,0.4-0.6,0.8-1,0.8c-0.3,0-0.5-0.2-0.6-0.4
	c-0.1-0.3-0.1-0.5,0.1-0.8c0.2-0.4,0.8-0.2,0.8-0.8c-0.1-1-0.6-1.9-1.3-2.6c-1.2-1.3-3-1.9-4.8-1.7C74.1,6,74,5.7,74,5.3
	c0.2-0.2,0.9-0.1,0.7-0.6c-0.1-0.2-0.2-0.3-0.4-0.5c-0.2-0.1-0.4,0-0.5,0.2c-0.3,0.7-0.3,1.4,0,2C74,6.9,74.1,6.8,74.1,7
	s-0.2,0.6-0.6,0.7c-0.4-0.5-0.7-1.1-0.7-1.7c-0.1-1,0.3-2,1.1-2.6c0.3-0.2,0.7-0.2,1.1,0c0.3,0.2,0.5,0.5,0.7,0.8
	c0.1,0.3,0.2,0.6,0.3,0.9c0.3,0.1,0.6,0.3,0.9,0.3c1.5,0.6,3,1.3,4.5,2.1c0.2,0.1,0.5,0,0.7-0.1c0.4-0.3,0-1,0.7-1.2
	c0.4-0.2,1,0,1.2,0.4c0.1,0.3,0.1,0.7-0.1,1c-0.3,0.5-0.9,0.6-1.4,0.7c-0.1,0.1-0.2,0.2-0.1,0.3c0,0,0,0,0,0c0,0.1,0.1,0.2,0.2,0.2
	c0.4-0.2,0.9-0.2,1.4-0.2c0.2-0.3,0.5-0.5,0.9-0.5C85.1,8.3,85.4,8.5,85.6,8.9"/>
<path class="st0" d="M61.4,13c-0.4-0.3-0.7-0.7-0.8-1.2c-0.1-0.6,0.2-1.2,0.7-1.6c0.7-0.3,1.4-0.3,2.1,0c0.3-0.4,0.8-0.7,1.4-0.7
	c0.5,0,0.9,0.3,1.2,0.7c0.5-0.3,1-0.3,1.5-0.2c0.2,0.1,0.4,0.2,0.6,0.3c0.2,0.1,0.2-0.1,0.2-0.2c0.7-2,2.2-3.5,4.1-4.4
	c0.1,0,0.1,0,0.1,0c0,0.3,0.1,0.7,0.2,1c-0.8,0.5-1.5,1.1-2.1,1.9c-1.2,1.8-1.3,4-0.2,5.9c0.4,0.7,1,1.4,1.7,1.8
	c-0.1,0.5-0.5,2.1-0.6,2.3c-0.3-0.1-0.6-0.3-0.8-0.6c-2.1-1.7-3-4.4-2.6-7.1c-0.1-0.2-0.3-0.2-0.5-0.2c-0.3,0-0.6,0.2-0.8,0.5
	c-0.7,0.9,0,2.1,0.2,3c0.6,1.6,1.4,3.1,2.5,4.4c0,0.1-0.1,0.5-0.2,0.7c-0.4,1.8-0.2,3.7,0.6,5.3c0.1,0,0.1,0.1,0.2,0.1l0.1-0.1
	c0.2-0.7,0.4-1.4,0.6-2c0.4,0.3,0.7,0.7,1.1,1c-0.2,1-0.5,2.1-0.8,3.1c-0.2,0.7-0.3,1.5-0.6,2.1c-0.5,0-1,0-1.4,0.1h-0.1
	c-0.5-3.4-1.2-6.8-3.9-9.2c-0.2-0.1-0.3-0.2-0.4-0.3c0.6-1.1,0.8-2.4,0.6-3.6c-0.1-1.5-0.8-2.9-1.8-4.1c-0.1-0.2-0.3-0.2-0.5-0.2
	c-0.1,0.1-0.2,0.3-0.2,0.5c0,0.3-0.1,0.6-0.4,0.8C62,13.2,61.6,13.2,61.4,13"/>
<path class="st0" d="M75.1,8.1c1.8,1.5,3.2,3.3,4.1,5.4c0.2,0.7,0.5,1.4,0.6,2.1c-0.4,0.3-0.8,0.5-1.3,0.7c-0.3-2.1-1.1-4.1-2.3-5.8
	c-0.4-0.6-1-1.1-1.6-1.5c-0.6-0.1-0.8,0.6-1.2,0.9c-1.1,1.5-1.8,3.2-2.3,5.1c-0.2,0-0.2-0.2-0.4-0.3c-0.2-0.3-0.4-0.6-0.5-0.9
	c0.6-2.3,2.2-4.2,3.8-6.1c0.2-0.3,0.3-0.6,0.4-0.9c0.2,0,0.5,0,0.7,0c0.2,0,0.3,0.1,0.5,0.1c-0.2,0.4-0.4,0.8-0.6,1.2
	C75.1,7.9,75.1,8,75.1,8.1"/>
<path class="st0" d="M72.3,21.5c-0.4-0.4-0.7-0.8-0.9-1.4c0.2-0.6,0.3-1.3,0.6-1.9c0.3-1.4,0.7-2.8,1.1-4.1c0.3-1.6,0.8-3.1,1.3-4.7
	c0.2,0,0.1,0.2,0.2,0.3l0.3,0.8l1.4,4.1c0.2,0.7,0.5,1.4,0.7,2.2c0,0-0.1,0.1-0.2,0.1c-0.6,0.1-1.2,0.1-1.8,0.1l-0.3-0.7
	c0-0.1-0.3-0.9-0.5-1.2c-0.6,2.1-1.2,4.5-1.8,6.6C72.5,21.5,72.5,21.5,72.3,21.5"/>
<path class="st0" d="M76.1,23.7c1.1-0.7,2.4-1.1,3.7-1c0.4-1.3,0.7-2.7,1-4v-0.2C80.3,17.8,80,17,80,16.1V16c-0.8,0.4-1.6,0.8-2.4,1
	c-1.1,0.2-2.3,0.2-3.4,0c-0.3,1-0.6,2-0.8,3C74.7,20.9,75.7,22.1,76.1,23.7"/>
<path class="st0" d="M87.3,16.2c0.3,1.2,1.1,2.1,2.3,2.4l0,0c-1.1,0.3-1.9,1.2-2.2,2.2c0,0-0.1,0-0.1,0c-0.3-1-1-1.7-1.9-2.1
	l-0.6-0.2c0-0.1,0-0.1,0.1-0.1c1.1-0.2,1.9-1,2.3-2C87.2,16.3,87.3,16.2,87.3,16.2"/>
<path class="st0" d="M61.5,16.2c0.2,1,0.9,1.8,1.8,2.2c0.1,0,0.3,0.1,0.4,0.1c0,0.1-0.1,0.1-0.2,0.2c-1,0.3-1.8,1.1-2.1,2.1
	c0,0-0.1,0.1-0.1,0c-0.3-1-1.1-1.8-2.1-2.1v-0.1C60.3,18.2,61.2,17.3,61.5,16.2L61.5,16.2"/>
<path class="st0" d="M74,21.2c-0.1,0.4-0.4,0.7-0.7,0.9c-0.3,0.1-0.6,0-0.9-0.1c-0.9-0.7-1.4-1.8-1.6-2.9c-0.1-0.2,0-0.5-0.2-0.7
	s-0.5-0.4-0.8-0.6c-0.2,2.2,0.8,4.4,2.6,5.8c0.8,0.4,1.5,1.2,1.8,2.1c0.1,0,0.1,0,0.1-0.1c0.1-0.5,0.2-1.1,0-1.6
	c0.1-0.1,0.3-0.2,0.4-0.3c0.2-0.1,0.2-0.2,0.2-0.3s-0.2-0.3-0.3-0.5c0.1-0.6-0.1-1.2-0.5-1.6C74.1,21.2,74,21.2,74,21.2"/>
<path class="st0" d="M66.6,30.8c0,0.1,0,0.2,0,0.3c0,0.2-0.2,0.3-0.3,0.3c-0.2,0-0.5,0-0.6-0.1c-0.5-0.3-0.7-0.9-0.7-1.5
	c-0.5-0.4-0.8-1.1-0.7-1.7c0.1-0.3,0.4-0.6,0.6-0.8l0.1-0.1c-0.2-0.4-0.4-0.8-0.6-1.2c-0.1-0.8,0.2-1.5,0.8-2
	c0.4-0.3,0.9-0.3,1.3-0.1c0.6,0.4,0.8,1.2,0.7,1.9c-0.1,0.4-0.3,0.8-0.5,1.1c0.1,0.4,0.3,0.7,0.6,1.1c1.7,2.6,4.5,3.6,7.4,3.9
	c2.5,0.2,5-0.8,6.6-2.7c1.1-1.3,1.3-3,0.6-4.5c0.1-0.8,0.3-1.7,0.6-2.5c0.1-0.6,0.3-1.1,0.4-1.7l0,0c1.9,2.1,2.5,5.2,1.4,7.8
	c-1.2,2.6-3.6,4.5-6.4,5c-1.1,0.2-2.3,0.3-3.5,0.2c-2.8-0.2-5.4-1.2-7.7-2.8C66.7,30.7,66.6,30.7,66.6,30.8"/>
<path class="st0" d="M3.2,43.5c1.7-0.7,3.6-0.7,5.3,0c0.7,0.2,1.2-0.3,1.9-0.4c0.1,0,0.2,0.1,0.3,0.2c0.3,1.3,0.6,2.6,0.9,3.9
	c0,0.1,0,0.3-0.2,0.4c-0.3,0.2-0.6,0.2-0.9,0.1c-1.1-1.8-2.9-3.9-5.2-3.5c-0.8,0.1-1.5,0.5-1.9,1.2c-0.2,0.3-0.3,0.7-0.2,1.1
	c0.2,1.7,2.1,2.2,3.4,2.5c2.3,0.5,5.1,1.3,5.8,3.9c0.5,1.8,0,3.7-1.3,5c-0.9,0.8-2.1,1.4-3.3,1.5c-1.4,0.2-2.9,0-4.2-0.5
	c-0.7-0.2-1.5-0.1-2.1,0.3c-0.2,0.1-0.3,0-0.4-0.2c-0.4-1.3-0.7-2.7-1.1-4c0-0.1,0-0.2,0-0.3c0.3-0.2,0.6-0.3,1-0.2
	c0.2,0.3,0.5,0.6,0.7,0.9c1.2,2.1,3.4,3.2,5.8,3c1-0.1,1.9-0.9,2.2-1.8c0.2-0.8-0.1-1.6-0.7-2.1c-0.8-0.6-1.8-0.9-2.8-1
	c-1.4-0.3-2.7-0.8-3.9-1.4c-1.5-1.2-2.2-3.1-1.7-4.9C0.9,45.5,1.9,44.2,3.2,43.5"/>
<path class="st0" d="M48,43.3c0.1,1.8,0.1,3.6,0.1,5.5c0.1,0.1,0.2,0.3,0.3,0.3c0.4-0.1,0.8-0.2,1.1-0.4c1.3-0.6,2.8-0.5,4,0.3
	c1.1,0.8,1.2,2,1.2,3.3c0,1.8,0.1,3.7,0.1,5.5c0.2,0.5,1.3,0.1,1,0.9l-0.2,0.1c-1.6,0-3.3,0-4.9,0c-0.2,0-0.3,0-0.4-0.2
	s-0.1-0.5,0.1-0.5s0.8-0.1,0.8-0.5c0-1.9-0.1-4-0.1-5.8c-0.1-0.8-0.5-1.4-1.2-1.7c-0.5-0.2-1.2-0.2-1.7,0.1
	c-0.1,0.1-0.2,0.3-0.3,0.4c0.1,2.5,0,4.9,0.1,7.4c0.2,0.5,1.2,0.1,0.9,0.9c0,0.1-0.2,0.2-0.3,0.2L44,59c-0.1,0-0.1-0.1-0.2-0.2
	s-0.1-0.4,0.1-0.5s0.7,0,0.8-0.4c0.1-0.4,0.1-0.9,0.1-1.3c-0.1-3.5-0.1-6.7-0.2-10.1c-0.1-0.7-0.6-1.2-1.2-1.4
	c-0.1-0.1-0.1-0.2-0.1-0.3c0.2-0.3,0.6-0.3,0.9-0.4c1.2-0.3,2.3-0.7,3.5-1.1C47.8,43.2,47.9,43.1,48,43.3"/>
<path class="st0" d="M35.7,44c0.3,0.5,0.3,1.1,0.1,1.7c-0.3,0.7-0.9,1.1-1.6,1.2c-0.7,0.1-1.4-0.3-1.7-1c-0.2-0.5-0.2-1.1,0-1.6
	c0.4-0.6,1.1-1,1.8-0.9C34.8,43.3,35.3,43.5,35.7,44"/>
<path class="st0" d="M80.4,43.4c0.1,0,0.2,0.1,0.3,0.2c0.1,0.2,0.1,0.5,0,0.8c-0.2,0.2-0.6,0.1-0.9,0.1c-0.2,0-0.3,0.1-0.4,0.3
	c0,0.6,0.1,1.2,0.3,1.8c0.7,2.7,1.3,5.4,2.1,8.1c0,0.1,0.1,0.1,0.2,0.2c0.2,0,0.3,0,0.4-0.2c0.6-2.2,1.2-4.4,1.8-6.7
	c0.5-1.3-0.5-2.3-0.6-3.5c0-0.2,0.2-0.2,0.3-0.2c1.1-0.3,2.1-0.6,3.2-0.8c0.1,0,0.3,0.1,0.3,0.2c0.4,1.1,0.7,2.3,1,3.4
	c0.7,2.6,1.3,5.2,2.2,7.7c0.1,0.1,0.2,0.2,0.3,0.1c0.2-0.2,0.3-0.4,0.3-0.7c0.7-2.6,1.3-5.2,2-7.8c0.1-0.6-0.1-1.3-0.6-1.7
	c-0.3-0.4-1.1,0-1.2-0.7c0-0.2,0-0.4,0.2-0.5h0.3h4.7c0.1,0,0.2,0.1,0.2,0.2c0,0.2,0.1,0.5-0.1,0.7c-0.5,0.2-1,0.4-1.4,0.6
	c-1.2,1-1.1,2.7-1.6,4c-0.7,2.8-1.5,5.5-2.2,8.2c-0.1,0.6,0.2,1,0.2,1.6L91.6,59c-1.1,0.1-2.3,0-3.4,0.1c-0.1,0-0.3-0.1-0.3-0.2
	c-0.8-2.9-1.6-5.8-2.4-8.6C85.3,50,85.1,50,84.9,50l-0.2,0.2c-0.7,2.3-1.3,4.7-2,7.1c-0.1,0.6,0.2,1,0.2,1.6c0,0.1-0.2,0.1-0.3,0.1
	c-1.1,0-2.2,0.2-3.3,0c-0.2-0.2-0.3-0.4-0.3-0.6c-0.5-1.6-0.9-3.2-1.4-4.8l-1.2-4.3c-0.4-1.5-0.8-2.9-1.2-4.3
	c-0.3-0.6-1-0.3-1.5-0.6c-0.1-0.2-0.2-0.5-0.1-0.8c0.1-0.1,0.1-0.1,0.2-0.2L80.4,43.4"/>
<path class="st0" d="M41.4,44.6c0.1,1.2,0,2.4,0.1,3.5c0,0.2,0.1,0.3,0.3,0.4c0.6,0.1,1.3,0,1.9,0.1c0.2,0.1,0.2,0.3,0.2,0.5
	c0,0.2-0.1,0.4-0.1,0.5l-0.2,0.1h-1.7c-0.2,0.1-0.3,0.2-0.4,0.3v4.5l0.1,2c0.1,0.4,0.4,0.6,0.8,0.7c0.3,0,0.5-0.2,0.6-0.4
	c0.2-0.2,0.1-0.6,0.4-0.6s0.5-0.1,0.5,0.1c0,0.9-0.5,1.7-1.2,2.3c-0.9,0.4-2,0.5-2.9,0.3c-0.7-0.2-1.2-0.6-1.5-1.2
	c-0.1-0.5-0.2-1-0.2-1.5v-6.1c-0.3-0.7-1.2-0.3-1.7-0.5c-0.1-0.3-0.1-0.6,0-0.8l0.1-0.1c0.6-0.2,1.5,0.2,1.7-0.5l0.1-2.4
	c0-0.1,0.2-0.2,0.3-0.3c0.9-0.3,1.7-0.7,2.6-1C41.3,44.4,41.4,44.4,41.4,44.6"/>
<path class="st0" d="M35.8,48.5c0,0.5,0,1,0,1.5v6.9c0,0.3-0.1,0.9,0.2,1.2s0.6,0,0.8,0.2c0,0.2,0,0.3-0.1,0.5L36.5,59h-4.9
	c-0.2-0.1-0.2-0.4-0.1-0.5c0.2-0.3,0.7-0.2,0.8-0.7v-6c-0.1-0.7-0.5-1.3-1.1-1.5C31,50.2,31,50.1,31,49.9c0-0.1,0.1-0.2,0.2-0.2
	c1.4-0.4,2.8-1,4.3-1.3C35.6,48.4,35.7,48.4,35.8,48.5"/>
<path class="st0" d="M111.2,49.4c0.3,0.6,0,1.4-0.6,1.7c-0.3,0.1-0.6,0.2-0.9,0.1c-0.7-0.2-1.2-0.8-1.5-1.5
	c-0.1-0.1-0.2-0.2-0.4-0.3c-0.5,0-1,0.3-1.3,0.7c-0.2,0.4-0.2,0.8,0,1.2c0.7,0.9,1.9,0.9,2.9,1.3c1.4,0.3,2.5,1.4,2.9,2.7
	c0.3,1.3-0.2,2.7-1.3,3.4c-1.5,1-3.8,0.9-5.5,0.5c-0.7-0.3-1.6-0.8-1.7-1.7c-0.1-0.4,0.1-0.9,0.5-1.1c0.4-0.3,1-0.3,1.5-0.1
	c0.6,0.4,1,1.1,1.1,1.9c0.4,0.5,1.1,0.7,1.7,0.5c0.7,0,1.3-0.5,1.6-1.2c0.1-0.6-0.2-1.2-0.7-1.6c-1.8-0.9-4.6-0.9-5.2-3.4
	c-0.2-1.3,0.5-2.6,1.6-3.2c1.4-0.9,3.1-1.2,4.6-0.7C110.7,48.8,111,49.1,111.2,49.4"/>
<path class="st0" d="M23,49.9c0.1,0.1,0.3,0.2,0.4,0.1c0.5-0.4,1-0.7,1.5-1c1.1-0.6,2.4-0.6,3.5-0.1c1.9,1.3,1.3,3.7,1.4,5.8v3.1
	c0,0.3,0.4,0.4,0.6,0.5c0.1,0.2,0.1,0.4,0,0.5C30.3,59,30.1,59,29.9,59h-4.2c-0.1,0-0.2-0.1-0.2-0.1c0-0.2,0-0.3,0.1-0.5
	c0.3-0.2,0.7-0.1,0.9-0.4l0.1-0.3V52c0-0.8-0.5-1.4-1.2-1.7c-0.6-0.1-1.1,0.1-1.5,0.5c-0.2,0.1-0.3,0.3-0.3,0.5v6.7
	c0.2,0.5,0.7,0.3,0.9,0.6c0,0.1,0,0.3-0.1,0.4C24.1,59,24,59,23.8,59h-4.5c-0.1,0-0.2-0.1-0.2-0.2c-0.1-0.2,0-0.4,0.1-0.5
	c0.3-0.1,0.6,0,0.8-0.3l0-0.2v-5.6c-0.1-0.7-0.3-1.6-1.1-1.8c-0.7-0.1-1.4,0.2-1.8,0.9l0,1.7V58c0.1,0.3,0.5,0.3,0.8,0.4
	s0.1,0.3,0.1,0.5S17.7,59,17.6,59h-4.8c-0.1,0-0.2-0.1-0.2-0.2c0-0.2,0-0.3,0.1-0.4c0.4-0.1,0.8-0.1,0.9-0.5c0-2,0-4.2-0.1-6.2
	c-0.1-0.6-0.6-1.1-1.2-1.3c-0.1-0.1-0.2-0.2-0.1-0.3s0.1-0.2,0.2-0.2c1.2-0.4,2.3-0.9,3.5-1.3c0.2,0,0.5,0,0.5,0.2
	c0.3,0.3,0.2,0.8,0.6,1.1h0.2c1-1,2.4-1.5,3.8-1.2C21.9,48.8,22.6,49.3,23,49.9"/>
<path class="st0" d="M120,49.5c0.3,0.6,0.1,1.4-0.5,1.7c-0.1,0.1-0.3,0.1-0.4,0.1c-0.5,0.1-1,0-1.4-0.4c-0.4-0.4-0.5-0.9-0.9-1.3
	c-0.5-0.1-1.1,0.1-1.3,0.6c-0.3,0.3-0.3,0.8-0.1,1.2c0.2,0.4,0.6,0.6,1,0.8c1.8,0.6,4.2,1,4.7,3.3c0.2,1.2-0.1,2.4-1,3.2
	c-1.6,1.3-4.3,1.3-6.2,0.6c-0.6-0.2-1.2-0.8-1.4-1.4c-0.1-0.6,0.2-1.1,0.7-1.4c0.5-0.2,1.2-0.2,1.7,0.2c0.5,0.4,0.8,1.1,0.8,1.7
	c0.2,0.5,0.8,0.5,1.4,0.5c0.8,0,1.4-0.4,1.8-1.1c0.2-0.5,0-1.1-0.4-1.4c-1-0.8-2.3-0.9-3.4-1.4c-1-0.3-1.8-1.2-2.1-2.2
	c-0.2-1.1,0.3-2.3,1.2-3c1.4-1.1,3.2-1.6,4.9-1.2C119.4,48.8,119.7,49.1,120,49.5"/>
<path class="st0" d="M136.9,49c0.3,0.3,0.3,0.8,0.5,1.1c0.1,0.1,0.2,0.1,0.4,0.1c1-1,2.5-1.5,3.9-1.2c1,0.2,1.9,0.9,2.2,1.8
	c0.6,1.7,0.2,3.5,0.3,5.4c0,0.7,0,1.3,0,2c0,0.2,0.1,0.3,0.3,0.4c0.2,0.2,0.6,0,0.8,0.4c0,0.2,0,0.3-0.1,0.5l-0.2,0.1
	c-1.6,0-3.3-0.1-4.9-0.1c-0.1,0-0.2-0.1-0.3-0.2c0-0.2,0-0.3,0.1-0.5c0.3-0.2,0.8-0.2,0.9-0.6V58c0-1.7,0-3.8-0.1-5.5
	c0-0.6-0.4-1.2-1-1.5c-0.6-0.2-1.3,0-1.8,0.5c-0.4,0.3-0.2,0.9-0.3,1.3c0.1,1.8-0.1,3.7,0.1,5.4c0.1,0.2,0.2,0.4,0.4,0.4
	c0.2,0,0.4,0,0.5,0.2c0,0.2,0,0.3-0.1,0.5l-0.2,0.1c-1.6,0-3.3,0-4.9-0.1c-0.1,0-0.2-0.1-0.3-0.2c0-0.1,0-0.3,0.1-0.4
	c0.4-0.2,1-0.2,1-0.8c0-1.7-0.1-3.4-0.1-5.1c-0.1-0.6-0.1-1.2-0.7-1.6c-0.2-0.2-0.6-0.2-0.8-0.5c0-0.1,0-0.3,0.1-0.4
	c0.2-0.2,0.4-0.1,0.6-0.3c1.1-0.4,2.1-0.8,3.2-1.1C136.6,48.9,136.8,48.9,136.9,49"/>
<path class="st0" d="M102.7,51.1c0.3,0.6,0.5,1.2,0.5,1.8l-0.1,0.1l-1.4,0.4l-4.3,1.1c-0.3,0.1-0.6,0.1-0.7,0.4c0,0.5,0.3,1,0.6,1.5
	c0.7,0.9,1.8,1.4,2.9,1.3c1-0.2,1.8-0.7,2.5-1.4c0.2-0.1,0.4,0,0.6,0.1c0.1,0.1,0.1,0.2,0,0.3c-0.3,0.5-0.8,1-1.3,1.4
	c-1.6,1.2-3.8,1.5-5.7,0.8c-1.6-0.6-2.9-2-3.2-3.7c-0.5-2.2,0.3-4.4,2.1-5.8c1.5-1.2,3.6-1.4,5.3-0.6
	C101.5,49.4,102.3,50.2,102.7,51.1 M97.7,49.5c-0.8,0.4-1.4,1.2-1.5,2.1c-0.1,0.7-0.1,1.4,0.1,2c0.1,0.1,0.2,0.1,0.3,0.1
	c1-0.3,2.3-0.2,3-1.2c0.4-0.8,0.3-1.7-0.2-2.5C99.1,49.4,98.4,49.2,97.7,49.5L97.7,49.5z"/>
<path class="st0" d="M132.4,52.1c0.8,1.7,0.7,3.6-0.3,5.2c-1.4,2.1-3.9,3-6.3,2.4c-2.1-0.5-3.8-2.1-4.4-4.2
	c-0.4-2.1,0.4-4.3,2.1-5.6c1.8-1.2,4-1.4,6-0.6C130.8,49.8,131.9,50.8,132.4,52.1 M127.9,50c-0.5-0.3-1-0.3-1.5,0
	c-0.7,0.5-1,1.3-1,2.1c-0.1,0.8-0.2,1.6-0.2,2.4c0.2,1.6,0,3.7,1.7,4.4c0.5,0.1,1.1-0.1,1.5-0.5c0.8-1.1,0.6-2.6,0.7-4
	c0.1-1.2-0.1-2.5-0.6-3.7C128.3,50.4,128.1,50.2,127.9,50z"/>
<path class="st0" d="M70.4,45c0.2,0.6,0.1,1.2-0.2,1.7c-0.4,0.5-1.1,0.8-1.8,0.6c-0.6-0.1-1-0.5-1.3-1c-0.2-0.6-0.3-1.2-0.1-1.8
	c0-0.2-0.1-0.3-0.2-0.4c-0.2-0.2-0.4-0.2-0.7-0.2c-0.7,0.3-1.2,0.9-1.3,1.7c0.4,2.2,1.2,4.3,2.4,6.2c0.5,0.9,1.1,1.8,1.7,2.6
	c0.1,0.1,0.3,0.1,0.4,0.1c0.5-0.5,0.9-1.2,1.2-1.9c0.2-0.5,0.2-1.2-0.2-1.7c-0.4-0.3-0.9-0.5-1.4-0.6c-0.2-0.1-0.1-0.4-0.1-0.7
	l0.2-0.2c1.6,0,3.4-0.1,5.1,0c0,0,0.1,0,0.2,0.1c0.1,0.2,0.1,0.4,0,0.7c-0.3,0.3-0.8,0.2-1.2,0.5c-0.7,0.6-1.2,1.3-1.5,2.2
	c-0.4,0.8-0.9,1.6-1.4,2.3c-0.3,0.7,0.5,1,0.9,1.4c0.6,0.5,1.5,0.7,2.3,0.5c0.2-0.1,0.5-0.3,0.8-0.2c0.1,0.1,0.2,0.2,0.3,0.4
	c0,0.2-0.2,0.3-0.3,0.4c-1.5,1.3-3.6,1.7-5.5,0.9c-0.6-0.2-1-0.8-1.6-0.6c-2.3,1.3-5.9,1.7-8.2,0c-1.2-0.9-1.7-2.4-1.3-3.9
	c0.5-2,2.7-3.2,4.4-3.8c0.1-0.1,0.3-0.2,0.3-0.4c0-0.6-0.3-1.2-0.3-1.8c-0.2-1.8,0.6-3.6,2.1-4.6c1.7-0.9,3.8-0.9,5.5,0.2
	C69.9,44.1,70.2,44.5,70.4,45 M61.8,51.6c-0.7,0.7-0.9,1.7-0.7,2.6c0.5,1.5,1.5,3.4,3.2,3.6c0.6,0.1,1.3-0.1,1.8-0.4
	c0.1-0.2,0.1-0.4,0-0.5c-1-1.3-1.9-2.8-2.7-4.2c-0.3-0.4-0.4-0.9-0.7-1.3S62,51.4,61.8,51.6z"/>
<path class="st0" d="M93.2,18.5c0,10.2-8.3,18.5-18.5,18.5s-18.5-8.3-18.5-18.5S64.4,0,74.7,0c0,0,0,0,0,0
	C84.9,0,93.2,8.3,93.2,18.5 M74.6,1.6c-9.4,0-16.9,7.6-16.9,16.9c0,9.4,7.6,16.9,16.9,16.9c9.4,0,16.9-7.6,16.9-16.9c0,0,0,0,0,0
	C91.6,9.2,84,1.6,74.6,1.6C74.6,1.6,74.6,1.6,74.6,1.6z"/>
<path class="st0" d="M92.8,6.1h-0.4V4h0.8C93.7,4,94,4.2,94,4.6c0,0.3-0.2,0.5-0.4,0.5c0,0,0,0-0.1,0l0.5,0.9h-0.5l-0.5-0.9h-0.2
	L92.8,6.1 M93.2,4.8c0.2,0,0.3,0,0.3-0.3s-0.2-0.2-0.4-0.2h-0.3v0.5H93.2z M93.2,7c-1,0-1.9-0.8-1.9-1.8c0,0,0-0.1,0-0.1
	c0-1.1,0.9-1.9,1.9-1.9c1.1,0,1.9,0.9,1.9,1.9c0,1-0.8,1.9-1.8,1.9C93.3,7,93.2,7,93.2,7z M93.2,3.6c-0.8,0-1.4,0.6-1.4,1.4
	c0,0,0,0,0,0.1c0,0.8,0.5,1.4,1.3,1.5c0,0,0.1,0,0.1,0l0,0c0.8,0,1.4-0.6,1.4-1.4c0,0,0,0,0-0.1C94.6,4.3,94,3.6,93.2,3.6
	C93.2,3.6,93.2,3.6,93.2,3.6L93.2,3.6z"/>
<path class="st0" d="M147.6,51.3h-0.4v-2.1h0.8c0.5,0,0.9,0.2,0.9,0.6c0,0.3-0.2,0.5-0.4,0.5c0,0-0.1,0-0.1,0l0.5,0.9h-0.5l-0.5-0.9
	h-0.2V51.3 M148,50c0.2,0,0.3,0,0.3-0.3s-0.2-0.2-0.4-0.2h-0.3V50H148z M147.9,52.1c-1.1,0-1.9-0.9-1.9-1.9c0-1.1,0.9-1.9,1.9-1.9
	c1.1,0,1.9,0.9,1.9,1.9c0.1,1-0.7,1.9-1.7,2C148,52.1,148,52.1,147.9,52.1L147.9,52.1z M147.9,48.7c-0.8,0-1.5,0.7-1.5,1.5
	c0,0.8,0.7,1.5,1.5,1.5l0,0c0.8,0,1.5-0.7,1.5-1.5C149.4,49.4,148.7,48.7,147.9,48.7z"/>
</svg>
